<svg width="1254" height="687" viewBox="0 0 1254 687" fill="none" xmlns="http://www.w3.org/2000/svg">
<path d="M354.326 192C354.326 244.135 306.48 286.5 247.326 286.5C188.172 286.5 140.326 244.135 140.326 192C140.326 139.865 188.172 97.5 247.326 97.5C306.48 97.5 354.326 139.865 354.326 192Z" fill="#F8F8F8" stroke="black"/>
<path d="M248.194 290.935C248.194 340.874 261.531 393.094 246.018 442.733C241.881 455.974 241.667 475.098 241.667 489.142C241.667 512.827 240.166 536.133 239.492 559.724C239.372 563.918 224.159 575.556 221.121 580.028C210.991 594.942 199.715 609.365 191.149 625.229C185.742 635.241 179.528 661.555 180.755 635.381C181.317 623.393 192.436 611.906 201.301 604.441C211.078 596.208 221.805 588.498 233.57 583.653C238.481 581.631 251.369 567.829 254.72 568.667C256.73 569.17 264.738 582.334 265.839 583.653C277.004 597.028 287.631 611.635 301.009 622.932C309.344 629.971 318.812 635.66 326.51 643.357" stroke="#020202" stroke-width="3" stroke-linecap="round"/>
<path d="M248.194 423.637C180.204 397.274 106.485 385.857 35 373.602" stroke="#020202" stroke-width="3" stroke-linecap="round"/>
<path d="M252.545 427.988C270.856 420.867 286.323 404.02 303.789 394.752C342.585 374.166 384.307 362.757 426.58 351.848" stroke="#020202" stroke-width="3" stroke-linecap="round"/>
<path d="M191.632 147.356C175.27 153.649 159.839 200.916 179.788 211.29C190.02 216.61 205.7 215.799 217.012 214.311C240.73 211.19 243.843 194.437 243.843 173.582C243.843 160.433 244.525 142.964 231.395 135.511C220.446 129.297 196.335 126.312 183.897 130.919C179.458 132.563 167.12 154.776 173.504 155.936C187.121 158.412 201.688 160.408 215.562 160.408" stroke="#020202" stroke-width="3" stroke-linecap="round"/>
<path d="M241.667 171.286C248.279 205.998 271.12 216.97 305.601 216.97C315.35 216.97 326.653 220.609 331.344 210.685C340.884 190.505 341.738 169.225 341.738 147.356C341.738 111.984 314.92 112.549 287.352 112.549C252.856 112.549 235.141 143.576 235.141 175.637" stroke="#020202" stroke-width="3" stroke-linecap="round"/>
<path d="M187.281 147.356C184.613 149.69 181.398 177.952 188.369 178.416C193.728 178.774 194.273 148.195 185.589 149.531C180.952 150.245 178.58 157.046 178.58 161.738C178.58 165.658 179.251 159.548 179.788 158.475C183.056 151.939 188.514 167.225 189.457 169.11" stroke="#020202" stroke-width="3" stroke-linecap="round"/>
<path d="M276.475 160.408C277.021 165.053 285.997 172.073 290.736 168.627C303.668 159.222 279.892 151.925 275.629 156.662C273.437 159.096 274.299 172.865 274.299 171.286C274.299 168.397 274.221 156.669 274.299 158.233C274.504 162.333 278.37 181.019 285.055 173.219C288.464 169.243 287.5 149.281 285.176 152.069C282.119 155.738 283.862 168.326 284.693 164.276C286.537 155.286 285.176 151.326 285.176 162.584" stroke="#020202" stroke-width="3" stroke-linecap="round"/>
<path d="M159 223.496C176.668 225.263 192.063 243.037 209.036 245.251C221.612 246.891 234.994 247.426 247.71 247.426C266.121 247.426 284.532 247.426 302.943 247.426C332.085 247.426 346.571 236.953 370.019 221.321" stroke="#020202" stroke-width="3" stroke-linecap="round"/>
<path d="M152.474 232.198C174.384 246.681 196.153 262.308 220.396 272.565C236.236 279.266 251.647 286.619 267.048 294.319C272.82 297.205 278.958 301.603 285.66 301.812C308.65 302.531 321.26 301.653 337.387 283.925C359.545 259.568 380.54 231.91 393.949 201.742" stroke="#020202" stroke-width="3" stroke-linecap="round"/>
<path d="M256.896 251.777C257.548 263.528 267.59 270.436 277.562 274.498C288.573 278.984 287.352 273.169 287.352 263.863C287.352 253.294 290.773 256.824 292.67 264.951C293.7 269.368 291.785 282.077 297.02 283.925C300.998 285.329 313.01 290.341 313.457 283.925C314.297 271.886 313.457 259.518 313.457 247.426" stroke="#020202" stroke-width="3" stroke-linecap="round"/>
<path d="M679.634 341.672C685.127 342.359 688.054 406.669 688.215 414.55C688.728 439.713 688.336 464.918 688.336 490.086C688.336 497.096 688.336 504.105 688.336 511.115C688.336 518.691 688.499 495.963 688.819 488.394C691.124 433.848 699.213 380.707 699.213 325.961C699.213 312.547 694.856 304.677 689.544 292.604C687.04 286.913 681.809 276.025 681.809 269.882C681.809 253.552 765.478 261.181 777.529 261.181C798.236 261.181 815.869 258.288 836.024 253.687C863.191 247.486 890.235 246.736 917.966 245.469C982.758 242.509 1049 248.931 1113.27 239.91C1126.27 238.085 1122.72 303.739 1122.94 311.458C1123.7 338.084 1126.51 363.898 1128.74 390.378C1130.39 409.947 1131.49 429.727 1132.01 449.357C1132.29 460.068 1135.48 479.387 1130.19 489.119C1120.41 507.132 1079.55 507.59 1063 509.665C1038.81 512.697 1013.87 512.884 989.877 517.037C940.569 525.571 893.298 539.638 842.913 539.638C811.289 539.638 779.664 539.638 748.039 539.638C733.269 539.638 719.355 535.287 704.772 535.287C699.617 535.287 680.783 528.761 682.776 528.761C700.271 528.761 717.568 530.936 734.987 530.936C786.49 530.936 838.352 536.866 889.685 535.287C896.976 535.063 897.894 532.357 893.311 527.069C883.04 515.218 876.006 498.928 868.052 485.493C861.29 474.074 847.468 454.965 849.319 440.534C850.445 431.748 889.079 435.216 895.366 435.216C914.099 435.216 932.832 435.216 951.565 435.216C966.638 435.216 970.238 480.606 972.231 493.228C973.908 503.847 975.494 514.488 975.494 525.256C975.494 533.753 974.527 525.108 973.802 521.751C968.4 496.704 959.232 471.282 958.091 445.61C957.473 431.71 949.61 430.483 938.028 430.986C921.296 431.714 904.769 434.609 887.993 435.096C882.544 435.253 865.579 432.023 861.888 437.392C858.914 441.717 851.494 436.728 851.494 442.951C851.494 460.272 852.436 477.063 853.549 494.316C854.641 511.254 857.951 528.41 859.712 545.439C859.792 546.209 860.196 558.357 860.196 551.24C860.196 535.931 860.196 520.623 860.196 505.314C860.196 493.344 858.882 480.505 861.888 468.815C864.412 458.999 869.06 481.317 869.139 481.626C873.385 498.135 878.355 513.901 879.775 530.936" stroke="#020202" stroke-width="3" stroke-linecap="round"/>
<path d="M618.721 291.637C626.335 284.658 636.03 279.201 644.585 273.75C698.899 239.145 755.283 207.549 808.348 171.021C846.252 144.929 880.405 112.251 915.549 82.5525C924.036 75.3807 943.475 47.511 956.641 54.2716C974.021 63.1966 989.176 75.6804 1004.5 87.6285C1025.66 104.123 1048.47 118.841 1068.31 136.939C1093.01 159.461 1117.68 180.99 1143.61 202.081C1155.58 211.818 1168.19 220.146 1180.95 228.791C1184.69 231.322 1198.93 238.85 1186.63 239.305C1139.8 241.04 1092.59 236.6 1045.83 239.91C1017.03 241.949 987.703 248.089 959.058 251.996C931.321 255.778 901.798 252.052 873.853 252.6C823.007 253.597 770.469 257.03 720.121 263.356C706.45 265.074 691.172 266.329 677.7 270.003C673.914 271.036 671.083 273.936 667.065 274.233C660.547 274.716 635.484 279.624 632.983 284.627C632.079 286.435 637.005 285.091 639.026 285.111C644.907 285.168 650.79 285.194 656.671 285.111C704.062 284.437 751.714 281.334 798.921 277.255C862.822 271.733 926.446 256.83 990.723 256.83C1029.16 256.83 1067.59 256.83 1106.02 256.83" stroke="#020202" stroke-width="3" stroke-linecap="round"/>
<path d="M409.177 30.5834C393.304 30.5834 377.431 30.5834 361.559 30.5834C358.636 30.5834 343.085 28.4076 340.046 31.0668C336.388 34.2676 339.088 57.6345 340.529 62.4899C343.506 72.5159 351.935 79.3537 355.999 88.837C360.99 100.482 382.95 89.2626 391.773 87.145" stroke="#020202" stroke-width="3" stroke-linecap="round"/>
<path d="M430.931 47.9868C449.169 68.9268 466.321 91.2541 483.142 113.25" stroke="#020202" stroke-width="3" stroke-linecap="round"/>
<path d="M487.493 67.5659C465.056 91.4349 445.317 121.884 433.107 152.408" stroke="#020202" stroke-width="3" stroke-linecap="round"/>
<path d="M557.107 37.1096C554.634 59.37 545.838 83.7743 537.528 104.548" stroke="#020202" stroke-width="3" stroke-linecap="round"/>
<path d="M557.107 47.9869C565.726 47.9869 575.469 46.5755 583.938 47.9869C594.575 49.7598 579.425 96.3333 576.686 104.549" stroke="#020202" stroke-width="3" stroke-linecap="round"/>
<path d="M626.721 56.6887C633.16 66.1579 646.664 70.8273 653.914 57.7764C659.178 48.3022 628.368 44.2282 622.25 53.7881C616.169 63.2887 610.802 84.3695 618.503 94.6381C629.899 109.833 658.404 101.681 672.406 95.8467" stroke="#020202" stroke-width="3" stroke-linecap="round"/>
<path d="M707.213 47.987C707.213 70.5077 706.927 94.3343 704.554 116.876C703.947 122.639 706.3 137.658 701.774 134.038C698.368 131.313 700.687 115.871 700.687 112.042C700.687 95.4439 700.687 78.8461 700.687 62.2482C700.687 56.571 698.28 43.7994 702.016 39.6478C711.346 29.2807 724.034 40.8776 730.901 47.7453C756.535 73.3794 722.234 87.145 698.511 87.145" stroke="#020202" stroke-width="3" stroke-linecap="round"/>
<path d="M765.95 43.636C765.95 66.8892 768.045 90.6884 761.599 113.25" stroke="#020202" stroke-width="3" stroke-linecap="round"/>
<path d="M759.424 141.531C755.295 142.047 757.248 155.948 757.248 139.356" stroke="#020202" stroke-width="3" stroke-linecap="round"/>
<path d="M768.827 533.112C762.969 520.558 748.015 512.49 743.689 499.513C739.951 488.299 742.103 467.865 753.358 461.805C766.281 454.846 781.314 454.228 794.933 450.445C805.432 447.528 790.582 401.916 788.527 396.542C783.965 384.61 776.333 370.589 792.878 365.723C810.112 360.654 808.121 355.655 817.412 341.431C818.344 340.005 831.739 318.721 834.574 321.126C841.24 326.782 839.765 349.847 840.134 357.142C840.266 359.761 838.249 380.097 841.584 382.522C845.539 385.399 858.124 378.557 863.459 379.863C888.782 386.065 888.904 429.803 894.762 448.632C898.868 461.83 905.341 484.357 892.828 494.437C883.068 502.299 874.415 509.996 863.822 516.917C852.866 524.074 841.039 527.848 829.498 535.166C811.471 546.598 799.037 549.319 784.418 532.507C774.808 521.455 762.935 545.893 757.95 552.691" stroke="#F00606" stroke-width="3" stroke-linecap="round"/>
<path d="M1045.11 248.128C1032.6 248.128 1020.67 249.652 1008.37 251.995C990.088 255.477 991.334 248.971 987.58 231.087C984.462 216.227 984.196 201.463 984.196 186.369C984.196 176.79 988.076 188.192 992.898 191.808C1016.5 209.513 1023.77 191.182 1031.81 168.724C1033.95 162.755 1033.98 137.618 1041.97 141.41C1058.19 149.116 1076.47 163.639 1093.45 149.266C1100.56 143.25 1118.55 107.035 1123.91 127.753C1126.1 136.239 1132.3 149.773 1131.76 158.693C1130.78 174.903 1126.26 190.638 1125.72 207.036C1125.47 214.796 1127.63 221.172 1127.78 228.549C1128.24 251.15 1102.44 230.193 1089.83 238.822C1085 242.123 1081.48 248.953 1079.92 254.413C1078.69 258.702 1070.37 256.83 1066.86 256.83" stroke="#F00606" stroke-width="3" stroke-linecap="round"/>
<path d="M1034.23 517.883C1033.16 507.729 1030.97 496.593 1032.3 486.339C1033.15 479.769 1040.02 462.501 1048.25 462.893C1065.04 463.692 1085.98 482.055 1101.19 488.877C1117.74 496.307 1116.44 487.71 1118.59 471.957C1120.18 460.303 1116.93 439.232 1122.82 428.811C1124.81 425.291 1147.82 434.39 1151.46 435.095C1159.67 436.685 1168.8 439.618 1176.12 434.008C1179.28 431.588 1191.89 412.297 1193.52 420.713C1195.7 431.916 1198.6 443.045 1200.41 454.312C1202.9 469.795 1195.29 466.974 1182.77 471.232C1169.96 475.587 1168.95 489.73 1157.02 494.92C1116 512.777 1077.4 513.532 1034.23 513.532" stroke="#F00606" stroke-width="3" stroke-linecap="round"/>
<path d="M781.88 535.287C767.343 530.926 779.451 504.048 786.231 498.304C795.52 490.434 807.244 484.815 818.379 480.176C825.955 477.019 840.242 475.791 839.771 464.947C839.265 453.316 831.435 442.102 827.564 431.349C823.944 421.293 823.213 411.946 823.213 401.376C823.213 393.8 826.665 377.621 832.036 372.249C836.905 367.38 856.688 408.793 858.746 415.154C863.168 428.822 859.911 446.572 860.196 460.838C860.307 466.403 862.602 472.104 861.888 477.638C860.194 490.766 841.284 502.794 831.915 510.39C822.98 517.634 811.985 518.287 801.459 522.234" stroke="#F0D906" stroke-width="3" stroke-linecap="round"/>
<path d="M1047.28 511.357C1057.02 506.296 1094.91 478.424 1101.79 493.47C1103.26 496.683 1106.43 510.764 1111.94 508.819C1124.37 504.434 1129.4 488.533 1133.94 477.638C1140.09 462.877 1163.81 466.444 1176.84 463.014C1177.89 462.738 1179.13 479.12 1182.16 470.023" stroke="#F0D906" stroke-width="3" stroke-linecap="round"/>
<path d="M1023.35 232.9C1023.35 234.305 1023.43 244.192 1022.27 239.789C1019.65 229.846 1016.83 218.656 1016.83 208.366C1016.83 194.322 1040.92 180.481 1054.29 186.007C1057.97 187.525 1069.54 198.398 1072.54 197.73C1077.52 196.625 1081.93 184.12 1083.54 180.931C1089.04 170.074 1094.3 159.169 1101.07 149.024C1111.33 133.624 1101.06 194.928 1116.05 185.644C1126.68 179.068 1128.47 175.032 1127.29 190.841C1126.47 201.8 1125.6 210.17 1120.77 219.847C1112.64 236.109 1085.59 236.643 1069.4 238.217C1054.97 239.62 1043.15 238.683 1030.36 246.436C1019.01 253.319 1011.81 257.837 998.216 256.83C989.523 256.186 985.384 245.537 981.537 238.943C972.312 223.127 1000.92 223.195 1010.3 222.023" stroke="#F0D906" stroke-width="3" stroke-linecap="round"/>
<path d="M1116.9 511.357C1116.9 500.236 1121.55 461.934 1139.86 478C1149.12 486.122 1145.72 495.655 1160.04 486.581C1164.25 483.916 1166.56 483.076 1171.28 483.076" stroke="#F19811" stroke-width="3" stroke-linecap="round"/>
<path d="M788.406 517.883C788.406 492.039 803.417 476.03 815.599 453.949C823.318 439.959 820.114 424.837 821.038 409.594C821.455 402.719 842.836 398.004 847.748 397.871C865.55 397.39 851.203 455.769 849.561 466.035C844.934 494.952 842.68 516.357 817.896 537.221C809.513 544.278 779.461 557.848 789.857 554.382C799.611 551.131 810.734 551.051 820.917 550.636C832.68 550.156 826.636 561.632 832.399 561.392C836.673 561.214 845.267 553.216 849.319 550.515" stroke="#F19811" stroke-width="3" stroke-linecap="round"/>
<path d="M1042.93 239.426C1032.25 235.754 1008.58 211.657 1010.78 198.818C1012.58 188.379 1028.56 179.749 1038.58 178.635C1057.91 176.487 1077.06 214.912 1087.17 227.22C1093.33 234.719 1104.48 212.349 1105.78 210.058C1110.92 201.01 1113.86 194.486 1116.78 184.678C1117.65 181.741 1117.77 173.52 1119.56 170.295C1120.66 168.305 1134.92 162.232 1137.69 160.385C1140.77 158.328 1141.55 201.661 1140.34 208.607C1139.17 215.341 1134.22 229.497 1126.81 230.845C1118.18 232.415 1105.39 258.46 1099.49 265.532" stroke="#F19811" stroke-width="3" stroke-linecap="round"/>
<path d="M370.947 275.809C375.136 268.129 389.628 263.046 397.053 258.406" stroke="#0F0F0E" stroke-width="3" stroke-linecap="round"/>
<path d="M412.281 258.406C420.121 259.347 419.141 266.883 426.542 267.108C434.483 267.348 436.155 262.819 438.386 255.505C443.294 239.417 454.422 220.986 453.614 204.02C453.356 198.589 445.197 197.642 441.045 197.493C434.934 197.275 435.63 201.331 434.035 206.678C430.502 218.526 420.295 224.278 420.983 236.651C421.159 239.821 426.389 244.506 429.684 242.694C435.519 239.485 435.812 229.049 438.386 223.599C440.816 218.454 446.788 211.894 447.088 206.195C447.322 201.756 444.912 219.798 444.912 222.632C444.912 230.626 441.722 249.682 445.396 257.439C448.038 263.016 462.096 260.581 466.667 260.581" stroke="#0F0F0E" stroke-width="3" stroke-linecap="round"/>
<path d="M221.719 108.546C201.564 93.8874 173.859 168.107 173.859 183.236C173.859 184.765 174.712 188.994 175.309 187.587C181.794 172.316 187.796 157.077 195.13 142.144C196.205 139.956 206.285 119.869 207.699 117.006C209.584 113.191 217.271 105.403 213.017 105.403C208.211 105.403 185.458 145.997 183.769 148.429C171.321 166.354 158.619 184.078 145.457 201.485C141.303 206.98 136.514 212.482 133.976 219.01C133.227 220.937 137.832 217.199 139.173 215.626C161.006 190.014 182.788 164.358 204.92 139.002C210.081 133.089 215.143 127.083 220.51 121.357C224.131 117.493 229.825 111.587 224.861 120.873C204.21 159.51 177.221 195.478 151.621 230.854C131.995 257.975 111.714 284.022 95.7847 313.521C94.2053 316.446 105.237 292.216 106.904 289.108C123.195 258.727 140.132 231.578 149.929 198.222C154.076 184.104 169.814 143.803 160.806 155.439C135.224 188.483 116.864 233.033 97.3559 269.408C72.6843 315.411 48.919 361.942 23.5116 407.549C15.729 421.518 16.477 419.025 21.5778 408.515C39.5506 371.485 23.9009 405.2 42.6072 365.973C42.7376 365.7 58.9944 324.424 62.4279 324.882C68.1782 325.648 62.7269 336.492 62.4279 342.285C61.9833 350.898 61.604 359.555 60.8567 368.149C59.5266 383.446 69.9161 338.713 76.3266 324.761C96.5509 280.743 125.498 241.487 146.062 197.86C153.902 181.227 147.775 185.719 137.722 193.992C129.535 200.73 117.083 213.384 109.925 221.91C107.135 225.234 103.678 229.661 104.245 234.48C104.422 235.983 105.567 231.756 106.179 230.371C109.758 222.258 112.397 217.05 117.297 209.1C121.874 201.675 172.966 125.51 176.518 127.641C187.556 134.264 197.777 94.2197 207.82 112.534C210.011 116.529 219.286 139.97 224.136 131.509C231.267 119.067 236.702 105.326 241.54 91.8671C241.693 91.4416 245.5 73.3673 249.516 80.023C265.367 106.29 278.965 133.948 297.859 158.46C307.013 170.335 303.133 132.539 304.869 128.85C306.812 124.721 311.353 135.324 314.055 139.002C319.641 146.607 325.7 153.83 331.216 161.481C334.133 165.527 334.13 158.422 334.842 156.405C337.633 148.499 341.464 171.913 343.302 180.094C347.832 200.249 352.123 220.595 358.047 240.402C365.802 266.333 361.872 222.048 361.793 220.823C361.097 209.994 363.285 183.599 356.838 173.93C354.469 170.376 356.597 182.47 356.597 186.741C356.597 199.431 356.597 161.361 356.597 148.67C356.597 142.464 356.865 161.08 357.08 167.283C357.267 172.682 357.879 189.081 358.289 195.322C358.342 196.135 358.55 198.547 358.651 197.739C358.911 195.66 358.731 193.549 358.772 191.454C359.054 176.901 359.748 162.456 360.947 147.945C361.289 143.815 362.268 133.004 362.881 127.641C362.973 126.84 363.036 129.252 363.002 130.058C361.343 169.873 360.947 209.62 360.947 249.466C360.947 262.138 360.947 237.762 360.947 234.601C360.947 195.322 358.892 313.173 355.63 352.316C351.143 406.155 354.421 244.271 354.421 190.246C354.421 179.127 354.271 168.007 354.421 156.889C354.469 153.34 354.703 163.981 354.905 167.524C356.654 198.347 361.098 228.305 367.957 258.41C371.858 275.528 375.782 292.952 380.889 309.774C381.669 312.345 382.305 315.181 382.581 311.587C382.78 308.997 382.702 298.827 382.702 298.051C382.702 269.045 382.702 182.027 382.702 211.033C382.702 254.3 382.702 297.568 382.702 340.835C382.702 396.055 379.79 230.212 372.308 175.501C368.67 148.9 351.383 195.508 349.466 203.177C346.812 213.794 346.615 207.573 344.027 199.189C339.087 183.181 333.292 167.385 328.92 151.208C325.671 139.188 323.121 133.164 316.472 122.807C305.406 105.57 282.043 108.502 263.536 112.171C255.485 113.768 248.12 115.831 240.935 119.423C228.242 125.77 223.362 128.047 224.015 113.017C224.133 110.318 225.609 103.056 223.653 104.92C209.881 118.035 196.793 131.231 181.594 142.869C176.594 146.698 157.52 163.978 149.204 163.173C145.888 162.853 156.689 143.049 156.939 142.628C173.812 114.11 150.302 160.994 147.754 168.37C144.134 178.848 150.199 167.738 151.984 165.953C159.337 158.6 156.41 186.503 155.972 196.893C154.934 221.555 153.18 246.287 149.687 270.737C147.114 288.754 147.786 263.601 147.754 260.102C147.673 251.446 147.661 249.417 142.678 258.651C135.534 271.889 128.74 285.35 123.582 299.501C117.766 315.458 127.025 282.822 127.933 279.318C133.028 259.667 125.513 313.323 134.459 305.303C142.166 298.393 158.459 269.79 155.005 294.909C153.607 305.08 144.341 333.644 150.413 325.365C157.588 315.581 160.937 296.123 164.19 284.998C167.384 274.078 172.892 259.619 172.892 247.895C172.892 232.675 166.365 277.772 165.641 292.975C165.534 295.207 165.157 331.646 165.157 328.145C165.157 318.082 168.319 302.735 164.795 293.338C162.326 286.754 160.793 307.322 162.015 314.246C162.605 317.589 177.569 291.517 179.177 288.382C184.031 278.917 182.561 284.041 182.561 291.283C182.561 306.567 182.076 321.934 182.561 337.209C182.809 345.015 184.317 342.793 187.879 337.451C196.622 324.335 204.344 310.664 210.963 296.359C218.237 280.638 215.193 301.604 215.193 306.874C215.193 308.265 214.087 334.937 216.039 328.386C219.823 315.681 223.604 302.983 227.52 290.316C231.046 278.912 233.624 269.705 230.662 288.141C228.368 302.422 227.141 317.58 223.894 331.65C221.463 342.184 224.995 310.055 225.586 299.26C226.024 291.274 226.07 286.244 226.07 297.326C226.07 306.921 225.145 317.019 226.07 326.574C226.667 332.743 228.279 314.181 231.146 308.687C231.808 307.418 232.596 320.103 232.596 321.739" stroke="#4A0404" stroke-opacity="0.83" stroke-width="3" stroke-linecap="round"/>
<path d="M263.052 306.511C267.197 313.339 268.399 329.218 277.193 318.355C287.231 305.955 284.125 321.921 288.795 316.905C296.242 308.906 300.531 298.473 306.924 289.712C312.885 281.543 310.867 300.576 310.912 303.61C311.018 310.728 313.101 305.679 315.263 302.281C320.675 293.776 319.826 309.227 320.581 312.554C323.126 323.775 329.219 318.54 333.392 311.345C334.907 308.733 339.193 294.931 339.193 296.842C339.193 303.421 337.185 354.208 346.928 329.595C347.333 328.572 354.622 309.727 356.113 313.642C358.196 319.109 352.659 334.998 357.08 331.166C364.026 325.146 368.39 312.646 373.154 304.819C374.81 302.098 374 313.469 374 315.213" stroke="#4A0404" stroke-opacity="0.83" stroke-width="3" stroke-linecap="round"/>
<rect x="3.82593" y="3" width="1247" height="681" rx="23.16" stroke="black" stroke-width="6"/>
</svg>
