<svg width="1286" height="687" viewBox="0 0 1286 687" fill="none" xmlns="http://www.w3.org/2000/svg">
<path d="M338.326 168C338.326 220.135 290.48 262.5 231.326 262.5C172.172 262.5 124.326 220.135 124.326 168C124.326 115.865 172.172 73.5 231.326 73.5C290.48 73.5 338.326 115.865 338.326 168Z" fill="#F8F8F8" stroke="black"/>
<path d="M232.194 266.935C232.194 316.874 245.531 369.094 230.018 418.733C225.881 431.974 225.667 451.098 225.667 465.142C225.667 488.827 224.166 512.133 223.492 535.724C223.372 539.918 208.159 551.556 205.121 556.028C194.991 570.942 183.715 585.365 175.149 601.229C169.742 611.241 163.528 637.555 164.755 611.381C165.317 599.393 176.436 587.906 185.301 580.441C195.078 572.208 205.805 564.498 217.57 559.653C222.481 557.631 235.369 543.829 238.72 544.667C240.73 545.17 248.738 558.334 249.839 559.653C261.004 573.028 271.631 587.635 285.009 598.932C293.344 605.971 302.812 611.66 310.51 619.357" stroke="#020202" stroke-width="3" stroke-linecap="round"/>
<path d="M232.194 399.637C164.204 373.274 90.485 361.857 19 349.602" stroke="#020202" stroke-width="3" stroke-linecap="round"/>
<path d="M236.545 403.988C254.856 396.867 270.323 380.02 287.789 370.752C326.585 350.166 368.307 338.757 410.58 327.848" stroke="#020202" stroke-width="3" stroke-linecap="round"/>
<path d="M175.632 123.356C159.27 129.649 143.839 176.916 163.788 187.29C174.02 192.61 189.7 191.799 201.012 190.311C224.73 187.19 227.843 170.437 227.843 149.582C227.843 136.433 228.525 118.964 215.395 111.511C204.446 105.297 180.335 102.312 167.897 106.919C163.458 108.563 151.12 130.776 157.504 131.936C171.121 134.412 185.688 136.408 199.562 136.408" stroke="#020202" stroke-width="3" stroke-linecap="round"/>
<path d="M225.667 147.286C232.279 181.998 255.12 192.97 289.601 192.97C299.35 192.97 310.653 196.609 315.344 186.685C324.884 166.505 325.738 145.225 325.738 123.356C325.738 87.9838 298.92 88.5486 271.352 88.5486C236.856 88.5486 219.141 119.576 219.141 151.637" stroke="#020202" stroke-width="3" stroke-linecap="round"/>
<path d="M171.281 123.356C168.613 125.69 165.398 153.952 172.369 154.416C177.728 154.774 178.273 124.195 169.589 125.531C164.952 126.245 162.579 133.046 162.579 137.738C162.579 141.658 163.251 135.548 163.788 134.475C167.056 127.939 172.514 143.225 173.457 145.11" stroke="#020202" stroke-width="3" stroke-linecap="round"/>
<path d="M260.475 136.408C261.021 141.053 269.997 148.073 274.736 144.627C287.668 135.222 263.892 127.925 259.629 132.662C257.437 135.096 258.299 148.865 258.299 147.286C258.299 144.397 258.221 132.669 258.299 134.233C258.504 138.333 262.37 157.019 269.055 149.219C272.464 145.243 271.5 125.281 269.176 128.069C266.119 131.738 267.862 144.326 268.693 140.276C270.537 131.286 269.176 127.326 269.176 138.584" stroke="#020202" stroke-width="3" stroke-linecap="round"/>
<path d="M143 199.496C160.668 201.263 176.063 219.037 193.036 221.251C205.612 222.891 218.994 223.426 231.71 223.426C250.121 223.426 268.532 223.426 286.943 223.426C316.085 223.426 330.571 212.953 354.019 197.321" stroke="#020202" stroke-width="3" stroke-linecap="round"/>
<path d="M136.474 208.198C158.384 222.681 180.153 238.308 204.396 248.565C220.236 255.266 235.647 262.619 251.048 270.319C256.82 273.205 262.958 277.603 269.66 277.812C292.65 278.531 305.26 277.653 321.387 259.925C343.545 235.568 364.54 207.91 377.949 177.742" stroke="#020202" stroke-width="3" stroke-linecap="round"/>
<path d="M240.896 227.777C241.548 239.528 251.59 246.436 261.562 250.498C272.573 254.984 271.352 249.169 271.352 239.863C271.352 229.294 274.773 232.824 276.67 240.951C277.7 245.368 275.785 258.077 281.02 259.925C284.998 261.329 297.01 266.341 297.457 259.925C298.297 247.886 297.457 235.518 297.457 223.426" stroke="#020202" stroke-width="3" stroke-linecap="round"/>
<path d="M671.634 325.672C677.127 326.359 680.054 390.669 680.215 398.55C680.728 423.713 680.336 448.918 680.336 474.086C680.336 481.096 680.336 488.105 680.336 495.115C680.336 502.691 680.499 479.963 680.819 472.394C683.124 417.848 691.213 364.707 691.213 309.961C691.213 296.547 686.856 288.677 681.544 276.604C679.04 270.913 673.809 260.025 673.809 253.882C673.809 237.552 757.478 245.181 769.529 245.181C790.236 245.181 807.869 242.288 828.024 237.687C855.191 231.486 882.235 230.736 909.966 229.469C974.758 226.509 1041 232.931 1105.27 223.91C1118.27 222.085 1114.72 287.739 1114.94 295.458C1115.7 322.084 1118.51 347.898 1120.74 374.378C1122.39 393.947 1123.49 413.727 1124.01 433.357C1124.29 444.068 1127.48 463.387 1122.19 473.119C1112.41 491.132 1071.55 491.59 1055 493.665C1030.81 496.697 1005.87 496.884 981.877 501.037C932.569 509.571 885.298 523.638 834.913 523.638C803.289 523.638 771.664 523.638 740.039 523.638C725.269 523.638 711.355 519.287 696.772 519.287C691.617 519.287 672.783 512.761 674.776 512.761C692.271 512.761 709.568 514.936 726.987 514.936C778.49 514.936 830.352 520.866 881.685 519.287C888.976 519.063 889.894 516.357 885.311 511.069C875.04 499.218 868.006 482.928 860.052 469.493C853.29 458.074 839.468 438.965 841.319 424.534C842.445 415.748 881.079 419.216 887.366 419.216C906.099 419.216 924.832 419.216 943.565 419.216C958.638 419.216 962.238 464.606 964.231 477.228C965.908 487.847 967.494 498.488 967.494 509.256C967.494 517.753 966.527 509.108 965.802 505.751C960.4 480.704 951.232 455.282 950.091 429.61C949.473 415.71 941.61 414.483 930.028 414.986C913.296 415.714 896.769 418.609 879.993 419.096C874.544 419.253 857.579 416.023 853.888 421.392C850.914 425.717 843.494 420.728 843.494 426.951C843.494 444.272 844.436 461.063 845.549 478.316C846.641 495.254 849.951 512.41 851.712 529.439C851.792 530.209 852.196 542.357 852.196 535.24C852.196 519.931 852.196 504.623 852.196 489.314C852.196 477.344 850.882 464.505 853.888 452.815C856.412 442.999 861.06 465.317 861.139 465.626C865.385 482.135 870.355 497.901 871.775 514.936" stroke="#020202" stroke-width="3" stroke-linecap="round"/>
<path d="M610.721 275.637C618.335 268.658 628.03 263.201 636.585 257.75C690.899 223.145 747.283 191.549 800.348 155.021C838.252 128.929 872.405 96.2514 907.549 66.5525C916.036 59.3807 935.475 31.511 948.641 38.2716C966.021 47.1966 981.176 59.6804 996.501 71.6285C1017.66 88.1225 1040.47 102.841 1060.31 120.939C1085.01 143.461 1109.68 164.99 1135.61 186.081C1147.58 195.818 1160.19 204.146 1172.95 212.791C1176.69 215.322 1190.93 222.85 1178.63 223.305C1131.8 225.04 1084.59 220.6 1037.83 223.91C1009.03 225.949 979.703 232.089 951.058 235.996C923.321 239.778 893.798 236.052 865.853 236.6C815.007 237.597 762.469 241.03 712.121 247.356C698.45 249.074 683.172 250.329 669.7 254.003C665.914 255.036 663.083 257.936 659.065 258.233C652.547 258.716 627.484 263.624 624.983 268.627C624.079 270.435 629.005 269.091 631.026 269.111C636.907 269.168 642.79 269.194 648.671 269.111C696.062 268.437 743.714 265.334 790.921 261.255C854.822 255.733 918.446 240.83 982.723 240.83C1021.16 240.83 1059.59 240.83 1098.02 240.83" stroke="#020202" stroke-width="3" stroke-linecap="round"/>
<path d="M393.177 14.5834C377.304 14.5834 361.431 14.5834 345.559 14.5834C342.636 14.5834 327.085 12.4076 324.046 15.0668C320.388 18.2676 323.088 41.6345 324.529 46.4899C327.506 56.5159 335.935 63.3537 339.999 72.837C344.99 84.4822 366.95 73.2626 375.773 71.145" stroke="#020202" stroke-width="3" stroke-linecap="round"/>
<path d="M414.931 31.9868C433.169 52.9268 450.321 75.2541 467.142 97.2502" stroke="#020202" stroke-width="3" stroke-linecap="round"/>
<path d="M471.493 51.5659C449.056 75.4349 429.317 105.884 417.107 136.408" stroke="#020202" stroke-width="3" stroke-linecap="round"/>
<path d="M541.107 21.1096C538.634 43.37 529.838 67.7743 521.528 88.5485" stroke="#020202" stroke-width="3" stroke-linecap="round"/>
<path d="M541.107 31.9869C549.726 31.9869 559.469 30.5755 567.938 31.9869C578.575 33.7598 563.425 80.3333 560.686 88.5485" stroke="#020202" stroke-width="3" stroke-linecap="round"/>
<path d="M610.721 40.6887C617.16 50.1579 630.664 54.8273 637.914 41.7764C643.178 32.3022 612.368 28.2282 606.25 37.7881C600.169 47.2887 594.802 68.3695 602.503 78.6381C613.899 93.8333 642.404 85.6809 656.406 79.8467" stroke="#020202" stroke-width="3" stroke-linecap="round"/>
<path d="M691.213 31.987C691.213 54.5077 690.927 78.3343 688.554 100.876C687.947 106.639 690.3 121.658 685.774 118.038C682.368 115.313 684.687 99.8707 684.687 96.0418C684.687 79.4439 684.687 62.8461 684.687 46.2482C684.687 40.571 682.28 27.7994 686.016 23.6478C695.346 13.2807 708.034 24.8776 714.901 31.7453C740.535 57.3794 706.234 71.145 682.511 71.145" stroke="#020202" stroke-width="3" stroke-linecap="round"/>
<path d="M749.95 27.636C749.95 50.8892 752.045 74.6884 745.599 97.2503" stroke="#020202" stroke-width="3" stroke-linecap="round"/>
<path d="M743.424 125.531C739.295 126.047 741.248 139.948 741.248 123.356" stroke="#020202" stroke-width="3" stroke-linecap="round"/>
<path d="M760.827 517.112C754.969 504.558 740.014 496.49 735.689 483.513C731.951 472.299 734.103 451.865 745.357 445.805C758.281 438.846 773.314 438.228 786.933 434.445C797.431 431.528 782.582 385.916 780.527 380.542C775.965 368.61 768.333 354.589 784.878 349.723C802.112 344.654 800.121 339.655 809.412 325.431C810.344 324.005 823.739 302.721 826.574 305.126C833.24 310.782 831.765 333.847 832.133 341.142C832.266 343.761 830.249 364.097 833.584 366.522C837.539 369.399 850.123 362.557 855.459 363.863C880.782 370.065 880.903 413.803 886.761 432.632C890.868 445.83 897.341 468.357 884.828 478.437C875.068 486.299 866.415 493.996 855.822 500.917C844.866 508.074 833.039 511.848 821.498 519.166C803.471 530.598 791.037 533.319 776.418 516.507C766.808 505.455 754.935 529.893 749.95 536.691" stroke="#F00606" stroke-width="3" stroke-linecap="round"/>
<path d="M1037.11 232.128C1024.6 232.128 1012.67 233.652 1000.37 235.995C982.088 239.477 983.334 232.971 979.58 215.087C976.462 200.227 976.196 185.463 976.196 170.369C976.196 160.79 980.076 172.192 984.898 175.808C1008.5 193.513 1015.77 175.182 1023.81 152.724C1025.95 146.755 1025.98 121.618 1033.97 125.41C1050.19 133.116 1068.47 147.639 1085.45 133.266C1092.56 127.25 1110.55 91.0353 1115.91 111.753C1118.1 120.239 1124.3 133.773 1123.76 142.693C1122.78 158.903 1118.26 174.638 1117.72 191.036C1117.47 198.796 1119.63 205.172 1119.78 212.549C1120.24 235.15 1094.44 214.193 1081.83 222.822C1077 226.123 1073.48 232.953 1071.92 238.413C1070.69 242.702 1062.37 240.83 1058.86 240.83" stroke="#F00606" stroke-width="3" stroke-linecap="round"/>
<path d="M1026.23 501.883C1025.16 491.729 1022.97 480.593 1024.3 470.339C1025.15 463.769 1032.02 446.501 1040.25 446.893C1057.04 447.692 1077.98 466.055 1093.19 472.877C1109.74 480.307 1108.44 471.71 1110.59 455.957C1112.18 444.303 1108.93 423.232 1114.82 412.811C1116.81 409.291 1139.82 418.39 1143.46 419.095C1151.67 420.685 1160.8 423.618 1168.12 418.008C1171.28 415.588 1183.89 396.297 1185.52 404.713C1187.7 415.916 1190.6 427.045 1192.41 438.312C1194.9 453.795 1187.29 450.974 1174.77 455.232C1161.96 459.587 1160.95 473.73 1149.02 478.92C1108 496.777 1069.4 497.532 1026.23 497.532" stroke="#F00606" stroke-width="3" stroke-linecap="round"/>
<path d="M773.88 519.287C759.343 514.926 771.451 488.048 778.231 482.304C787.52 474.434 799.244 468.815 810.379 464.176C817.955 461.019 832.242 459.791 831.771 448.947C831.265 437.316 823.435 426.102 819.564 415.349C815.944 405.293 815.213 395.946 815.213 385.376C815.213 377.8 818.665 361.621 824.036 356.249C828.905 351.38 848.688 392.793 850.746 399.154C855.168 412.822 851.911 430.572 852.196 444.838C852.307 450.403 854.602 456.104 853.888 461.638C852.194 474.766 833.284 486.794 823.915 494.39C814.98 501.634 803.985 502.287 793.459 506.234" stroke="#F0D906" stroke-width="3" stroke-linecap="round"/>
<path d="M1039.28 495.357C1049.02 490.296 1086.91 462.424 1093.79 477.47C1095.26 480.683 1098.43 494.764 1103.94 492.819C1116.37 488.434 1121.4 472.533 1125.94 461.638C1132.09 446.877 1155.81 450.444 1168.84 447.014C1169.89 446.738 1171.13 463.12 1174.16 454.023" stroke="#F0D906" stroke-width="3" stroke-linecap="round"/>
<path d="M1015.35 216.9C1015.35 218.305 1015.43 228.192 1014.27 223.789C1011.65 213.846 1008.83 202.656 1008.83 192.366C1008.83 178.322 1032.92 164.481 1046.29 170.007C1049.97 171.525 1061.54 182.398 1064.54 181.73C1069.52 180.625 1073.93 168.12 1075.54 164.931C1081.04 154.074 1086.3 143.169 1093.07 133.024C1103.33 117.624 1093.06 178.928 1108.05 169.644C1118.68 163.068 1120.47 159.032 1119.29 174.841C1118.47 185.8 1117.6 194.17 1112.77 203.847C1104.64 220.109 1077.59 220.643 1061.4 222.217C1046.97 223.62 1035.15 222.683 1022.36 230.436C1011.01 237.319 1003.81 241.837 990.216 240.83C981.523 240.186 977.384 229.537 973.537 222.943C964.312 207.127 992.918 207.195 1002.3 206.023" stroke="#F0D906" stroke-width="3" stroke-linecap="round"/>
<path d="M1108.9 495.357C1108.9 484.236 1113.55 445.934 1131.86 462C1141.12 470.122 1137.72 479.655 1152.05 470.581C1156.25 467.916 1158.56 467.076 1163.28 467.076" stroke="#F19811" stroke-width="3" stroke-linecap="round"/>
<path d="M780.406 501.883C780.406 476.039 795.417 460.03 807.599 437.949C815.318 423.959 812.114 408.837 813.038 393.594C813.455 386.719 834.836 382.004 839.748 381.871C857.55 381.39 843.203 439.769 841.561 450.035C836.934 478.952 834.68 500.357 809.896 521.221C801.513 528.278 771.461 541.848 781.857 538.382C791.611 535.131 802.734 535.051 812.917 534.636C824.68 534.156 818.636 545.632 824.399 545.392C828.673 545.214 837.267 537.216 841.319 534.515" stroke="#F19811" stroke-width="3" stroke-linecap="round"/>
<path d="M1034.93 223.426C1024.25 219.754 1000.58 195.657 1002.79 182.818C1004.58 172.379 1020.56 163.749 1030.58 162.635C1049.91 160.487 1069.06 198.912 1079.17 211.22C1085.33 218.719 1096.48 196.349 1097.78 194.058C1102.92 185.01 1105.86 178.486 1108.78 168.678C1109.65 165.741 1109.77 157.52 1111.56 154.295C1112.66 152.305 1126.92 146.232 1129.69 144.385C1132.77 142.328 1133.55 185.661 1132.35 192.607C1131.17 199.341 1126.22 213.497 1118.81 214.845C1110.18 216.415 1097.39 242.46 1091.5 249.532" stroke="#F19811" stroke-width="3" stroke-linecap="round"/>
<path d="M344.947 273.809C349.136 266.129 363.628 261.046 371.053 256.406" stroke="#0F0F0E" stroke-width="3" stroke-linecap="round"/>
<path d="M386.281 256.406C394.121 257.347 393.141 264.883 400.542 265.108C408.483 265.348 410.155 260.819 412.386 253.505C417.294 237.417 428.422 218.986 427.614 202.02C427.356 196.589 419.197 195.642 415.045 195.493C408.934 195.275 409.63 199.331 408.035 204.678C404.502 216.526 394.295 222.278 394.983 234.651C395.159 237.821 400.389 242.506 403.684 240.694C409.519 237.485 409.812 227.049 412.386 221.599C414.816 216.454 420.788 209.894 421.088 204.195C421.322 199.756 418.912 217.798 418.912 220.632C418.912 228.626 415.722 247.682 419.396 255.439C422.038 261.016 436.096 258.581 440.667 258.581" stroke="#0F0F0E" stroke-width="3" stroke-linecap="round"/>
<path d="M205.719 84.5456C185.564 69.8874 157.859 144.107 157.859 159.236C157.859 160.765 158.712 164.994 159.309 163.587C165.794 148.316 171.796 133.077 179.13 118.144C180.205 115.956 190.285 95.8687 191.699 93.0056C193.584 89.1913 201.271 81.4032 197.017 81.4032C192.211 81.4032 169.458 121.997 167.769 124.429C155.321 142.354 142.619 160.078 129.457 177.485C125.303 182.98 120.514 188.482 117.976 195.01C117.227 196.937 121.832 193.199 123.173 191.626C145.006 166.014 166.788 140.358 188.92 115.002C194.081 109.089 199.143 103.083 204.51 97.3565C208.131 93.4933 213.825 87.5867 208.861 96.8731C188.21 135.51 161.221 171.478 135.621 206.854C115.995 233.975 95.7139 260.022 79.7847 289.521C78.2053 292.446 89.2371 268.216 90.9037 265.108C107.195 234.727 124.132 207.578 133.929 174.222C138.076 160.104 153.814 119.803 144.806 131.439C119.224 164.483 100.864 209.033 81.3559 245.408C56.6843 291.411 32.919 337.942 7.51157 383.549C-0.271029 397.518 0.476979 395.025 5.57784 384.515C23.5506 347.485 7.90095 381.2 26.6072 341.973C26.7376 341.7 42.9944 300.424 46.4279 300.882C52.1782 301.648 46.7269 312.492 46.4279 318.285C45.9833 326.898 45.604 335.555 44.8567 344.149C43.5266 359.446 53.9161 314.713 60.3266 300.761C80.5509 256.743 109.498 217.487 130.062 173.86C137.902 157.227 131.775 161.719 121.722 169.992C113.535 176.73 101.083 189.384 93.9251 197.91C91.1351 201.234 87.6779 205.661 88.2448 210.48C88.4217 211.983 89.5675 207.756 90.1785 206.371C93.7575 198.258 96.3974 193.05 101.297 185.1C105.874 177.675 156.966 101.51 160.518 103.641C171.556 110.264 181.777 70.2197 191.82 88.5339C194.011 92.5295 203.286 115.97 208.136 107.509C215.267 95.0669 220.702 81.3257 225.54 67.8671C225.693 67.4416 229.5 49.3673 233.516 56.023C249.367 82.2903 262.965 109.948 281.859 134.46C291.013 146.335 287.133 108.539 288.869 104.85C290.812 100.721 295.353 111.324 298.055 115.002C303.641 122.607 309.7 129.83 315.216 137.481C318.133 141.527 318.13 134.422 318.842 132.405C321.633 124.499 325.464 147.913 327.302 156.094C331.832 176.249 336.123 196.595 342.047 216.402C349.802 242.333 345.872 198.048 345.793 196.823C345.097 185.994 347.285 159.599 340.838 149.93C338.469 146.376 340.597 158.47 340.597 162.741C340.597 175.431 340.597 137.361 340.597 124.67C340.597 118.464 340.865 137.08 341.08 143.283C341.267 148.682 341.879 165.081 342.289 171.322C342.342 172.135 342.55 174.547 342.651 173.739C342.911 171.66 342.731 169.549 342.772 167.454C343.054 152.901 343.748 138.456 344.947 123.945C345.289 119.815 346.268 109.004 346.881 103.641C346.973 102.84 347.036 105.252 347.002 106.058C345.343 145.873 344.947 185.62 344.947 225.466C344.947 238.138 344.947 213.762 344.947 210.601C344.947 171.322 342.892 289.173 339.63 328.316C335.143 382.155 338.421 220.271 338.421 166.246C338.421 155.127 338.271 144.007 338.421 132.889C338.469 129.34 338.703 139.981 338.905 143.524C340.654 174.347 345.098 204.305 351.957 234.41C355.858 251.528 359.782 268.952 364.889 285.774C365.669 288.345 366.305 291.181 366.581 287.587C366.78 284.997 366.702 274.827 366.702 274.051C366.702 245.045 366.702 158.027 366.702 187.033C366.702 230.3 366.702 273.568 366.702 316.835C366.702 372.055 363.79 206.212 356.308 151.501C352.67 124.9 335.383 171.508 333.466 179.177C330.812 189.794 330.615 183.573 328.027 175.189C323.087 159.181 317.292 143.385 312.92 127.208C309.671 115.188 307.121 109.164 300.472 98.8068C289.406 81.5703 266.043 84.5019 247.536 88.1713C239.485 89.7675 232.12 91.8307 224.935 95.4228C212.242 101.77 207.362 104.047 208.015 89.0173C208.133 86.318 209.609 79.0565 207.653 80.9198C193.881 94.0353 180.793 107.231 165.594 118.869C160.594 122.698 141.52 139.978 133.204 139.173C129.888 138.853 140.689 119.049 140.939 118.628C157.812 90.1102 134.302 136.994 131.754 144.37C128.134 154.848 134.199 143.738 135.984 141.953C143.337 134.6 140.41 162.503 139.972 172.893C138.934 197.555 137.18 222.287 133.687 246.737C131.114 264.754 131.786 239.601 131.754 236.102C131.673 227.446 131.661 225.417 126.678 234.651C119.534 247.889 112.74 261.35 107.582 275.501C101.766 291.458 111.025 258.822 111.933 255.318C117.028 235.667 109.513 289.323 118.459 281.303C126.166 274.393 142.459 245.79 139.005 270.909C137.607 281.08 128.341 309.644 134.413 301.365C141.588 291.581 144.937 272.123 148.19 260.998C151.384 250.078 156.892 235.619 156.892 223.895C156.892 208.675 150.365 253.772 149.641 268.975C149.534 271.207 149.157 307.646 149.157 304.145C149.157 294.082 152.319 278.735 148.795 269.338C146.326 262.754 144.793 283.322 146.015 290.246C146.605 293.589 161.569 267.517 163.177 264.382C168.031 254.917 166.561 260.041 166.561 267.283C166.561 282.567 166.076 297.934 166.561 313.209C166.809 321.015 168.317 318.793 171.879 313.451C180.622 300.335 188.344 286.664 194.963 272.359C202.237 256.638 199.193 277.604 199.193 282.874C199.193 284.265 198.087 310.937 200.039 304.386C203.823 291.681 207.604 278.983 211.52 266.316C215.046 254.912 217.624 245.705 214.662 264.141C212.368 278.422 211.141 293.58 207.894 307.65C205.463 318.184 208.995 286.055 209.586 275.26C210.024 267.274 210.07 262.244 210.07 273.326C210.07 282.921 209.145 293.019 210.07 302.574C210.667 308.743 212.279 290.181 215.146 284.687C215.808 283.418 216.596 296.103 216.596 297.739" stroke="#4A0404" stroke-opacity="0.83" stroke-width="3" stroke-linecap="round"/>
<path d="M247.052 282.511C251.197 289.339 252.399 305.218 261.193 294.355C271.231 281.955 268.125 297.921 272.795 292.905C280.242 284.906 284.531 274.473 290.924 265.712C296.885 257.543 294.867 276.576 294.912 279.61C295.018 286.728 297.101 281.679 299.263 278.281C304.675 269.776 303.826 285.227 304.581 288.554C307.126 299.775 313.219 294.54 317.392 287.345C318.907 284.733 323.193 270.931 323.193 272.842C323.193 279.421 321.185 330.208 330.928 305.595C331.333 304.572 338.622 285.727 340.113 289.642C342.196 295.109 336.659 310.998 341.08 307.166C348.026 301.146 352.39 288.646 357.154 280.819C358.81 278.098 358 289.469 358 291.213" stroke="#4A0404" stroke-opacity="0.83" stroke-width="3" stroke-linecap="round"/>
<rect x="35.8259" y="3" width="1247" height="681" stroke="black" stroke-width="6"/>
</svg>
