<svg width="2000" height="800" viewBox="0 0 2000 800" fill="none" xmlns="http://www.w3.org/2000/svg">
<g clip-path="url(#clip0_628_1053)">
<rect width="2000" height="800" fill="#001D3D"/>
<mask id="mask0_628_1053" style="mask-type:alpha" maskUnits="userSpaceOnUse" x="330" y="-100" width="1340" height="1000">
<path d="M1670 -99.1897H330V899.19H1670V-99.1897Z" fill="white"/>
</mask>
<g mask="url(#mask0_628_1053)">
<path d="M1707.83 643.734H326.545V899.499H1707.83V643.734Z" stroke="white" stroke-width="0.5"/>
<path fill-rule="evenodd" clip-rule="evenodd" d="M1495.8 409.796L1495.86 409.78C1495.2 403.753 1494.93 397.527 1494.91 391.785L1497.08 432.996L1392.41 432.916L1396.2 377.78C1399.72 379.999 1403.73 382.436 1408.09 384.942L1396.52 384.662L1396.2 387.861C1407.61 392.9 1424.02 399.534 1441.27 404.483C1460.34 409.954 1480.43 413.368 1495.86 410.279L1495.8 409.796Z" fill="white" stroke="white" stroke-width="0.5"/>
<path fill-rule="evenodd" clip-rule="evenodd" d="M1495.8 409.796L1495.77 409.804L1495.8 409.796L1495.86 410.279C1480.43 413.368 1460.34 409.954 1441.27 404.483C1424.02 399.534 1407.61 392.9 1396.2 387.861L1396.52 384.662L1494.11 387.019L1494.91 397.673C1494.93 401.543 1495.18 405.725 1495.8 409.796ZM1482.51 411.797L1482.7 411.798L1482.29 411.793L1482.51 411.797ZM1482.31 411.793L1482.5 411.796L1482.08 411.789L1482.31 411.793ZM1482.1 411.789L1482.3 411.793L1481.88 411.785L1482.1 411.789ZM1481.89 411.786L1482.08 411.79L1481.69 411.78L1481.89 411.786ZM1481.69 411.781L1481.88 411.785L1481.49 411.775L1481.69 411.781ZM1481.48 411.775L1481.67 411.78L1481.29 411.768L1481.48 411.775ZM1481.28 411.769L1481.47 411.774L1481.09 411.762L1481.28 411.769ZM1481.07 411.762L1481.26 411.767L1480.89 411.755L1481.07 411.762ZM1480.87 411.754L1481.05 411.76L1480.69 411.747L1480.87 411.754ZM1480.65 411.746L1480.84 411.753L1480.49 411.738L1480.65 411.746ZM1480.46 411.736L1480.63 411.744L1480.29 411.729L1480.46 411.736ZM1480.24 411.726L1480.42 411.734L1480.1 411.72L1480.24 411.726ZM1480.03 411.716L1480.21 411.726L1479.9 411.708L1480.03 411.716ZM1479.82 411.705L1480 411.715L1479.69 411.697L1479.82 411.705ZM1479.63 411.694L1479.79 411.703L1479.49 411.686L1479.63 411.694ZM1479.41 411.681L1479.57 411.692L1479.29 411.674L1479.41 411.681ZM1479.21 411.669L1479.37 411.679L1479.08 411.66L1479.21 411.669ZM1478.99 411.656L1479.15 411.665L1478.89 411.648L1478.99 411.656ZM1478.79 411.64L1478.95 411.651L1478.68 411.634L1478.79 411.64ZM1478.57 411.626L1478.73 411.637L1478.48 411.619L1478.57 411.626ZM1478.37 411.611L1478.52 411.622L1478.27 411.603L1478.37 411.611ZM1478.16 411.594L1478.31 411.606L1478.07 411.587L1478.16 411.594ZM1477.95 411.578L1478.09 411.59L1477.87 411.571L1477.95 411.578ZM1477.74 411.561L1477.88 411.572L1477.66 411.554L1477.74 411.561ZM1477.54 411.543L1477.67 411.554L1477.46 411.537L1477.54 411.543ZM1477.32 411.524L1477.45 411.536L1477.25 411.518L1477.32 411.524ZM1477.11 411.505L1477.23 411.516L1477.05 411.5L1477.11 411.505ZM1476.9 411.485L1477.02 411.496L1476.85 411.48L1476.9 411.485ZM1476.7 411.465L1476.8 411.476L1476.64 411.46L1476.7 411.465ZM1476.48 411.445L1476.59 411.454L1476.43 411.439L1476.48 411.445ZM1476.28 411.422L1476.37 411.433L1476.22 411.418L1476.28 411.422ZM1476.06 411.4L1476.15 411.411L1476.02 411.396L1476.06 411.4ZM1495.26 410.262C1495.03 410.351 1494.81 410.438 1494.59 410.521C1494.36 410.605 1494.14 410.687 1493.92 410.768C1494.36 410.608 1494.81 410.439 1495.26 410.262Z" fill="#001D3D"/>
<path d="M1495.8 409.796L1495.77 409.804L1495.8 409.796ZM1495.8 409.796L1495.86 410.279C1480.43 413.368 1460.34 409.954 1441.27 404.483C1424.02 399.534 1407.61 392.9 1396.2 387.861L1396.52 384.662L1494.11 387.019L1494.91 397.673C1494.93 401.543 1495.18 405.725 1495.8 409.796ZM1482.51 411.797L1482.7 411.798L1482.29 411.793L1482.51 411.797ZM1482.31 411.793L1482.5 411.796L1482.08 411.789L1482.31 411.793ZM1482.1 411.789L1482.3 411.793L1481.88 411.785L1482.1 411.789ZM1481.89 411.786L1482.08 411.79L1481.69 411.78L1481.89 411.786ZM1481.69 411.781L1481.88 411.785L1481.49 411.775L1481.69 411.781ZM1481.48 411.775L1481.67 411.78L1481.29 411.768L1481.48 411.775ZM1481.28 411.769L1481.47 411.774L1481.09 411.762L1481.28 411.769ZM1481.07 411.762L1481.26 411.767L1480.89 411.755L1481.07 411.762ZM1480.87 411.754L1481.05 411.76L1480.69 411.747L1480.87 411.754ZM1480.65 411.746L1480.84 411.753L1480.49 411.738L1480.65 411.746ZM1480.46 411.736L1480.63 411.744L1480.29 411.729L1480.46 411.736ZM1480.24 411.726L1480.42 411.734L1480.1 411.72L1480.24 411.726ZM1480.03 411.716L1480.21 411.726L1479.9 411.708L1480.03 411.716ZM1479.82 411.705L1480 411.715L1479.69 411.697L1479.82 411.705ZM1479.63 411.694L1479.79 411.703L1479.49 411.686L1479.63 411.694ZM1479.41 411.681L1479.57 411.692L1479.29 411.674L1479.41 411.681ZM1479.21 411.669L1479.37 411.679L1479.08 411.66L1479.21 411.669ZM1478.99 411.656L1479.15 411.665L1478.89 411.648L1478.99 411.656ZM1478.79 411.64L1478.95 411.651L1478.68 411.634L1478.79 411.64ZM1478.57 411.626L1478.73 411.637L1478.48 411.619L1478.57 411.626ZM1478.37 411.611L1478.52 411.622L1478.27 411.603L1478.37 411.611ZM1478.16 411.594L1478.31 411.606L1478.07 411.587L1478.16 411.594ZM1477.95 411.578L1478.09 411.59L1477.87 411.571L1477.95 411.578ZM1477.74 411.561L1477.88 411.572L1477.66 411.554L1477.74 411.561ZM1477.54 411.543L1477.67 411.554L1477.46 411.537L1477.54 411.543ZM1477.32 411.524L1477.45 411.536L1477.25 411.518L1477.32 411.524ZM1477.11 411.505L1477.23 411.516L1477.05 411.5L1477.11 411.505ZM1476.9 411.485L1477.02 411.496L1476.85 411.48L1476.9 411.485ZM1476.7 411.465L1476.8 411.476L1476.64 411.46L1476.7 411.465ZM1476.48 411.445L1476.59 411.454L1476.43 411.439L1476.48 411.445ZM1476.28 411.422L1476.37 411.433L1476.22 411.418L1476.28 411.422ZM1476.06 411.4L1476.15 411.411L1476.02 411.396L1476.06 411.4ZM1495.26 410.262C1495.03 410.351 1494.81 410.438 1494.59 410.521C1494.36 410.605 1494.14 410.687 1493.92 410.768C1494.36 410.608 1494.81 410.439 1495.26 410.262Z" stroke="white" stroke-width="0.5"/>
<path fill-rule="evenodd" clip-rule="evenodd" d="M1474.58 225.528C1480.99 227.715 1487.31 230.562 1493.37 232.429L1366.23 379.102C1366.23 379.102 1367.49 383.308 1368.34 390.879C1366.19 395.384 1359.64 413.261 1354.76 431.367C1353.66 432.113 1352.71 432.927 1351.93 433.78C1346.89 429.574 1343.1 428.733 1345.2 411.068C1347.3 393.402 1373.39 261.754 1389.79 237.359C1392.35 233.544 1396.2 230.366 1400.92 227.741C1404.42 231.356 1409.81 233.88 1418.02 233.672C1425.12 229.832 1434.1 227.628 1440.04 226.499C1440.59 226.938 1441.17 227.346 1441.77 227.731L1441.87 227.794C1446.04 230.472 1451.17 232.043 1456.71 232.043C1460.57 232.043 1464.22 231.284 1467.49 229.915L1467.57 229.882C1470.19 228.791 1472.56 227.315 1474.58 225.528ZM1518.03 229.172C1522.01 233.31 1525.19 238.528 1526.92 244.93C1532.39 265.119 1532.39 392.14 1526.08 410.226C1519.77 428.313 1512.62 432.939 1512.62 432.939L1496.51 422.01L1494.91 391.785C1494.93 397.527 1495.2 403.753 1495.86 409.78L1495.8 409.796C1495.18 405.726 1494.93 401.543 1494.91 397.673L1494.11 387.019L1423.98 385.325H1395.69L1393.36 418.958C1372.96 410.446 1374.23 390.879 1375.91 383.308C1377.31 377.026 1468 270.095 1498.84 233.876C1505.82 235.265 1512.33 234.6 1518.03 229.172Z" fill="#001D3D" stroke="white" stroke-width="0.5"/>
<path fill-rule="evenodd" clip-rule="evenodd" d="M1493.37 232.429C1495.16 233.011 1496.93 233.49 1498.67 233.843L1498.84 233.876C1468 270.094 1377.31 377.026 1375.91 383.308C1374.28 390.642 1373.05 409.233 1391.52 418.129L1393.36 418.958C1391.47 442.613 1389.79 482.15 1389.79 482.15C1389.79 482.15 1358.66 485.514 1350.67 472.476C1346.9 466.33 1350.05 448.742 1354.76 431.367L1354.99 430.519C1359.84 412.706 1366.23 395.314 1368.34 390.879C1367.49 383.308 1366.23 379.102 1366.23 379.102L1493.37 232.429Z" fill="white" stroke="white" stroke-width="0.5"/>
<path fill-rule="evenodd" clip-rule="evenodd" d="M1466.7 223.284C1469.27 223.813 1471.83 224.579 1474.38 225.456L1474.58 225.527C1472.54 227.33 1470.14 228.813 1467.49 229.901V229.915L1464.99 230.819L1467.49 229.901L1466.7 223.284ZM1433.74 217.856C1436.98 217.346 1440.25 216.932 1443.5 216.612C1443.48 219.224 1443.27 221.652 1442.85 223.774C1440.28 222.467 1436.76 220.435 1433.74 217.856ZM1472.61 215.119C1471.25 218.316 1469.27 219.842 1466.42 220.893L1465.74 215.194L1472.61 215.119Z" fill="#001D3D" stroke="white" stroke-width="0.5"/>
<path fill-rule="evenodd" clip-rule="evenodd" d="M1462.49 187.736L1467.49 229.915L1464.99 230.82L1464.9 230.843L1462.61 231.419L1461.9 231.556L1460.05 231.83L1459.3 231.916L1456.71 232.043L1454.68 231.97L1454.03 231.904L1452.69 231.76L1451.97 231.635L1450.75 231.415L1450.04 231.244L1448.85 230.939L1448.22 230.74L1447 230.334L1446.49 230.13L1445.21 229.599L1444.83 229.421L1443.46 228.734L1443.26 228.62L1441.77 227.731C1442.55 225.799 1443.05 223.356 1443.31 220.581C1443.33 218.946 1443.29 217.025 1443.19 214.947L1443.27 215.018C1442.78 208.094 1441.6 198.644 1440.09 193.694C1448.06 194.455 1455.89 192.223 1462.49 187.736Z" fill="#001D3D" stroke="white" stroke-width="0.5"/>
<path fill-rule="evenodd" clip-rule="evenodd" d="M1429.12 190.683C1427.97 190.155 1426.86 189.545 1425.8 188.875L1425.65 188.78C1412.79 180.644 1405.9 163.851 1409.73 146.719C1411.52 138.626 1415.46 131.614 1420.71 126.274C1422.07 124.888 1423.51 123.613 1425.03 122.474L1442.83 129.679C1442.83 129.679 1437.79 119.183 1457.47 117.174L1457.55 117.201C1458.51 117.766 1473.84 127.397 1475.55 165.466L1475.57 165.902C1475.67 168.086 1475.71 170.361 1475.71 172.731C1472.54 178.909 1467.98 184.024 1462.61 187.651L1462.49 187.736C1456.71 191.662 1450 193.862 1443.07 193.84L1440.09 193.694L1439.96 193.684C1438.65 193.585 1437.34 193.377 1436.02 193.084C1433.77 192.584 1431.63 191.857 1429.61 190.903L1429.12 190.683Z" fill="#001D3D" stroke="white" stroke-width="0.5"/>
<path fill-rule="evenodd" clip-rule="evenodd" d="M1462.49 187.736L1462.61 187.651C1467.98 184.024 1461.81 178.068 1470.03 171.049C1470.03 171.049 1457.97 165.024 1452.83 150.023C1445.87 129.707 1458.3 117.643 1457.55 117.2L1457.5 117.17C1460.68 115.843 1463.79 115.26 1466.83 115.267L1467.11 115.27C1488.17 115.578 1502.67 140.23 1497.1 152.391C1503.41 154.284 1513.82 160.593 1509.4 168.479C1518.86 171.949 1518.23 193.715 1513.82 199.078C1524.54 198.447 1533.38 214.535 1518.06 229.149L1517.97 229.235C1512.28 234.606 1505.8 235.26 1498.84 233.876L1498.67 233.843C1496.93 233.49 1495.16 233.011 1493.37 232.429L1493.23 232.385C1487.22 230.501 1481.89 234.624 1475.53 232.468C1475.53 232.468 1453.93 226.525 1456.3 207.63C1457.36 199.262 1462.49 187.736 1462.49 187.736ZM1433.77 217.885C1436.79 220.449 1440.28 222.477 1442.85 223.774L1442.89 223.8C1444.97 224.885 1446.41 225.471 1446.41 225.471C1446.41 225.471 1444.83 225.65 1442.29 226.111L1440.21 226.464L1440.04 226.499C1434.1 227.628 1425.12 229.832 1418.02 233.672C1409.81 233.88 1404.42 231.356 1400.92 227.741L1400.87 227.698C1393.75 220.353 1394.46 208.552 1395.3 206.228C1389.62 202.758 1390.57 198.973 1393.72 195.187C1362.18 172.475 1401.93 155.44 1401.93 155.44C1388.68 135.251 1411.08 131.781 1420.71 126.256V126.274C1415.46 131.614 1411.52 138.626 1409.73 146.719C1405.89 163.918 1412.84 180.775 1425.8 188.875V188.893C1426.39 193.708 1425.29 199.719 1427.68 209.363C1428.47 212.567 1430.88 215.453 1433.74 217.856L1433.77 217.885ZM1429.61 190.903C1431.63 191.857 1433.77 192.583 1436.02 193.084C1437.34 193.377 1438.65 193.585 1439.96 193.684L1440.09 193.694C1441.84 199.43 1442.86 208.058 1443.19 214.946C1434.17 208.027 1430.81 197.223 1429.61 190.903ZM1425.03 122.474C1425.44 122.165 1425.03 122.474 1425.03 122.474L1416.33 118.953C1427.69 93.0861 1456.4 108.228 1457.5 117.17L1457.47 117.174C1437.79 119.183 1442.83 129.679 1442.83 129.679L1425.03 122.474Z" fill="white" stroke="white" stroke-width="0.5"/>
<path fill-rule="evenodd" clip-rule="evenodd" d="M1474.07 150.869C1474.07 150.869 1482.73 148.236 1484.84 153.283C1486.94 158.33 1480.42 166.532 1480.42 166.532L1474.07 150.869Z" fill="#001D3D" stroke="white" stroke-width="0.5"/>
<path fill-rule="evenodd" clip-rule="evenodd" d="M1505.46 428.08C1505.46 428.08 1502.08 441.974 1499.13 444.077C1496.19 446.18 1495.98 442.605 1495.98 442.605L1497.46 432.931V422.206L1505.46 428.08Z" fill="#001D3D" stroke="white" stroke-width="0.5"/>
<path fill-rule="evenodd" clip-rule="evenodd" d="M1512.62 432.939C1512.62 432.939 1509.44 449.545 1503.34 456.906C1498.72 453.12 1500.82 451.228 1500.82 451.228C1500.82 451.228 1506.73 432.694 1505.46 428.08C1511.12 429.566 1512.62 432.939 1512.62 432.939Z" fill="#001D3D" stroke="white" stroke-width="0.5"/>
<path fill-rule="evenodd" clip-rule="evenodd" d="M1347.17 429.586C1347.17 429.586 1343.52 436.965 1345.2 442.854C1346.89 448.742 1348.57 451.476 1348.57 451.476L1351.11 446.643L1350.04 438.647L1351.93 433.78L1347.17 429.586Z" fill="#001D3D" stroke="white" stroke-width="0.5"/>
<path d="M1383.91 358.714L1396.31 270.091" stroke="white" stroke-width="0.5"/>
<path fill-rule="evenodd" clip-rule="evenodd" d="M1452.45 556.318L1480.21 567.661L1497.08 432.996L1453.07 432.962L1452.45 556.318ZM1395.41 557.213C1392 546.312 1389.53 537.052 1388.95 531.57C1387.31 516.133 1389.93 469.355 1392.42 432.916L1436.32 432.95C1430.09 473.412 1422.62 526.432 1424.91 534.094C1425.65 536.557 1426.77 542.121 1428.07 549.487L1395.41 557.213Z" fill="#001D3D" stroke="white" stroke-width="0.5"/>
<path fill-rule="evenodd" clip-rule="evenodd" d="M1483.07 614.247L1479.92 642.953L1450.26 642.638L1444.27 614.562L1483.07 614.247Z" fill="#001D3D" stroke="white" stroke-width="0.5"/>
<path fill-rule="evenodd" clip-rule="evenodd" d="M1424.73 696.044C1427.29 685.817 1434.79 658.751 1445.22 646.94L1445.29 646.852C1446.87 645.041 1448.54 643.603 1450.26 642.638C1463.19 643.584 1479.91 642.953 1479.91 642.953C1479.91 642.953 1505.15 684.277 1502.63 703.204C1490.01 703.835 1423.76 700.05 1423.76 700.05C1423.76 700.05 1424.05 698.744 1424.62 696.517L1424.73 696.044Z" fill="#001D3D" stroke="white" stroke-width="0.5"/>
<path fill-rule="evenodd" clip-rule="evenodd" d="M1416.12 615.856C1409.53 598.468 1401.14 575.528 1395.41 557.213L1428.07 549.486C1430.83 564.658 1434.46 587.465 1437.39 606.48L1442.58 640.72L1428.28 613.515L1416.12 615.856ZM1452.16 614.499L1474.36 614.323L1480.21 567.661L1452.45 556.318L1452.16 614.499Z" fill="white" stroke="white" stroke-width="0.5"/>
<path fill-rule="evenodd" clip-rule="evenodd" d="M1428.28 613.515L1442.58 640.72L1409.35 645.06L1393.89 620.14L1428.28 613.515Z" fill="#001D3D" stroke="white" stroke-width="0.5"/>
<path fill-rule="evenodd" clip-rule="evenodd" d="M1404.55 655.578C1407.49 651.609 1409.35 647.666 1409.35 645.06L1442.58 640.72C1443.55 642.871 1444.43 644.94 1445.22 646.94C1434.64 658.94 1427.05 686.675 1424.62 696.517C1407.49 696.58 1380.79 696.58 1372.44 696.164C1368.84 685.634 1379.1 675.596 1387.86 669.893V669.956H1417.93V666.593H1393.3L1394.77 665.577C1395.32 665.148 1395.88 664.719 1396.42 664.284L1397.41 663.439H1416.25V660.915H1400.07L1401.08 659.861L1402.85 657.76H1415.04V655.578H1404.55Z" fill="#001D3D" stroke="white" stroke-width="0.5"/>
<path d="M1375.2 682.026H1415.3" stroke="white" stroke-width="0.5"/>
<path d="M1431.71 686.607H1492.28" stroke="white" stroke-width="0.5"/>
<path fill-rule="evenodd" clip-rule="evenodd" d="M1393.3 666.593H1417.93V669.956H1387.86V669.893L1391.37 667.773C1392.02 667.413 1392.66 667.022 1393.3 666.593Z" fill="white"/>
<path fill-rule="evenodd" clip-rule="evenodd" d="M1400.07 660.915H1416.25V663.439H1397.41C1398.32 662.638 1399.22 661.792 1400.07 660.915Z" fill="white"/>
<path fill-rule="evenodd" clip-rule="evenodd" d="M1404.55 655.578L1403.79 656.65L1402.85 657.761H1415.04V655.578H1404.55Z" fill="white"/>
<path d="M1480.4 667.224H1450.32V670.589H1480.4V667.224Z" fill="white"/>
<path d="M1478.72 661.546H1452.64V664.07H1478.72V661.546Z" fill="white"/>
<path d="M1477.51 656.208H1454.95V658.392H1477.51V656.208Z" fill="white"/>
<path fill-rule="evenodd" clip-rule="evenodd" d="M1088.7 490.921C1080.32 484.713 1070.1 473.755 1070.9 457.69C1071.48 445.981 1081.58 432.872 1092.8 421.797C1096.92 428.831 1100.92 434.563 1104.74 439.306C1106.61 434.007 1108.04 430.206 1108.04 430.206L1129.58 449.95C1129.58 449.95 1128.53 454.655 1126.68 459.517C1136.92 466.611 1142.88 469.489 1141.47 484.276C1138.78 512.545 1117.68 547.095 1150.44 564.146C1158.77 568.479 1166.17 568.411 1172.56 565.872L1172.72 565.813L1214.73 711.438H1097.16L1097.39 703.657L1097.76 703.509L1100.67 702.304L1103.5 701.14L1103.65 701.073L1103.83 700.992L1106.84 699.619L1109.66 698.34L1109.79 698.273L1109.95 698.199L1112.94 696.664L1115.63 695.284L1115.78 695.203L1115.86 695.156L1117.22 694.389L1118.48 693.669L1118.56 693.615L1118.66 693.554L1119.98 692.747L1121.17 692.006L1121.25 691.959L1121.34 691.905L1122.58 691.057L1123.71 690.297L1123.77 690.25L1123.83 690.203L1125.01 689.314L1126.03 688.54L1126.08 688.5L1126.14 688.459L1127.21 687.531L1128.14 686.743L1128.17 686.709L1128.21 686.676L1129.18 685.707L1129.97 684.912L1130 684.879L1130.03 684.852L1130.87 683.829L1131.53 683.041L1131.54 683.021L1131.56 683.001L1132.27 681.904L1132.75 681.15L1132.76 681.136L1132.77 681.116L1133.34 679.871L1133.63 679.225V679.218C1133.86 678.579 1134.03 677.933 1134.13 677.286L1135.3 676.102C1144.23 667.09 1148.06 659.161 1149.08 652.121C1150.56 641.944 1146.18 633.604 1142.82 626.483C1141.68 624.087 1140.66 621.826 1140.01 619.672L1138.6 609.576L1138.43 608.398L1138.35 607.88L1137.61 603.061L1136.08 592.978L1135.67 590.36L1135.34 588.233L1135.32 588.166C1129.3 549.381 1119.41 488.551 1116.29 469.46L1115.33 463.523C1115.33 463.523 1112.83 464.713 1109.36 466.911L1109.25 466.984L1108.93 467.196L1106.77 468.617L1106.37 468.908L1106.04 469.133L1108.63 466.321C1108.63 466.319 1106.03 469.157 1106.03 469.157C1103.36 471.022 1100.47 473.337 1097.8 476.027L1097.6 476.222C1093.53 480.316 1090.02 485.288 1088.7 490.921Z" fill="#001D3D" stroke="white" stroke-width="0.5"/>
<path fill-rule="evenodd" clip-rule="evenodd" d="M1116.29 469.46C1119.41 488.551 1129.3 549.381 1135.32 588.166L1136.09 592.978L1138.6 609.576L1140.01 619.672L1140.07 619.874C1140.72 621.96 1141.71 624.161 1142.82 626.483C1143.19 627.257 1143.56 628.052 1143.95 628.859C1144.31 629.62 1144.67 630.387 1145.03 631.175C1145.29 631.747 1145.54 632.326 1145.8 632.911C1146.63 634.843 1147.4 636.862 1148.01 638.969L1148.07 639.157L1148.29 639.972C1148.61 641.163 1148.86 642.381 1149.05 643.626L1149.08 643.902C1149.29 645.397 1149.4 646.938 1149.37 648.526C1149.36 649.078 1149.33 649.63 1149.29 650.182C1149.25 650.741 1149.19 651.313 1149.11 651.878L1149.08 652.12C1148.07 659.168 1144.24 667.096 1135.3 676.102L1134.13 677.286L1133.63 679.218L1133.34 679.871L1132.76 681.136L1132.27 681.904L1131.54 683.021L1130.87 683.829L1130 684.879L1129.18 685.707L1128.17 686.709L1127.21 687.531L1126.08 688.5L1125.01 689.314L1123.77 690.25L1122.58 691.057L1121.25 691.959L1119.98 692.747L1118.56 693.615L1117.22 694.389L1115.78 695.203L1112.94 696.664L1109.79 698.273L1106.84 699.619L1103.65 701.073L1100.67 702.304L1097.39 703.657C1085.53 708.348 1075.39 711.209 1075.39 711.209C1075.39 711.209 1054.4 694.975 1056.99 694.16C1066.83 628.725 1084.81 507.497 1088.69 490.943L1088.76 490.657C1090.13 485.133 1093.6 480.252 1097.6 476.222L1097.8 476.027C1100.47 473.337 1103.36 471.022 1106.03 469.157L1106.37 468.908L1108.93 467.196L1109.36 466.911L1109.88 466.585C1113.08 464.595 1115.33 463.523 1115.33 463.523L1116.29 469.46Z" fill="#001D3D" stroke="white" stroke-width="0.5"/>
<path fill-rule="evenodd" clip-rule="evenodd" d="M1060.33 698.677C1060.33 698.677 1035.43 702.055 1030.38 702.055C1025.33 702.055 1019.61 700.373 1015.91 707.103C1012.21 713.834 1069.73 706.72 1069.73 706.72L1060.33 698.677Z" fill="#001D3D" stroke="white" stroke-width="0.5"/>
<path fill-rule="evenodd" clip-rule="evenodd" d="M1064.53 702.271L1047.55 712.488L1053.94 718.545L1075.39 711.209L1064.53 702.271Z" fill="#001D3D" stroke="white" stroke-width="0.5"/>
<path fill-rule="evenodd" clip-rule="evenodd" d="M1382.17 682.644C1384.37 688.103 1385.06 693.958 1383.24 699.996C1379.4 712.71 1369.12 712.037 1369.12 712.037L1220.79 710.765L1220.77 710.617C1220.47 707.581 1215.89 658.811 1231.11 647.941C1239.08 642.247 1261.42 635.375 1261.42 635.375L1346.44 648.116C1346.44 648.116 1374 662.721 1382.08 682.408L1382.17 682.644Z" fill="white" stroke="white" stroke-width="0.5"/>
<path fill-rule="evenodd" clip-rule="evenodd" d="M1494.12 663.75C1512.63 658.892 1549.94 653.946 1562.35 655.486C1576.29 657.211 1598.49 660.831 1606.28 686.211C1613.95 711.196 1577.41 709.931 1571.3 709.818C1565.95 709.715 1492.41 715.092 1478.76 692.752L1504.52 694.656L1508.01 670.901L1494.12 663.75Z" fill="#001D3D" stroke="white" stroke-width="0.5"/>
<path fill-rule="evenodd" clip-rule="evenodd" d="M1201.8 316.967C1209.17 317.018 1215.95 318.901 1216.77 319.135L1216.77 319.136L1216.86 319.206L1217.84 346.662L1219.43 389.167C1218.07 390.607 1216.62 391.943 1215.09 393.174L1212.89 394.831C1211.52 395.805 1210.09 396.699 1208.61 397.488L1208.31 397.644C1202.35 400.881 1195.6 402.689 1188.46 402.689C1180.15 402.689 1172.38 400.246 1165.75 395.972L1163.89 394.744L1155.83 365.816C1155.83 365.816 1156.43 365.198 1157.47 364.089L1158.04 363.471L1158.49 362.98L1159.4 361.993C1159.62 361.742 1159.86 361.48 1160.1 361.207C1160.28 361.014 1160.45 360.815 1160.63 360.611C1160.96 360.249 1161.29 359.87 1161.63 359.478L1162.38 358.626L1162.93 357.984L1167.27 352.747C1170.77 348.384 1174.47 343.332 1177.5 338.236C1179.75 334.504 1181.61 330.745 1182.75 327.227C1183.18 325.927 1183.74 324.781 1184.44 323.785C1185.58 322.088 1187.06 320.783 1188.75 319.784C1189.46 319.373 1190.2 319.015 1190.97 318.714C1191.75 318.395 1192.58 318.129 1193.42 317.934C1194.96 317.521 1196.58 317.263 1198.21 317.1L1201.08 316.968C1201.2 316.966 1201.33 316.966 1201.45 316.966L1201.8 316.967Z" fill="#001D3D" stroke="white" stroke-width="0.5"/>
<path fill-rule="evenodd" clip-rule="evenodd" d="M1214.82 436.453C1204.77 441.742 1193.36 444.244 1181.8 444.737L1165.75 395.977C1172.38 400.248 1180.16 402.69 1188.46 402.69C1195.6 402.69 1202.35 400.881 1208.31 397.644L1202.11 405.796C1195.38 414.883 1200.43 428.681 1207.5 438.104C1207.83 438.542 1208.18 438.947 1208.57 439.314C1210.7 438.474 1212.79 437.523 1214.82 436.453Z" fill="#001D3D" stroke="white" stroke-width="0.5"/>
<path fill-rule="evenodd" clip-rule="evenodd" d="M1219.43 389.174L1220.88 427.115L1221.1 432.663L1221.04 432.704L1218.42 434.397L1217.63 434.876L1215.43 436.12L1214.82 436.453C1212.79 437.523 1210.7 438.474 1208.57 439.314C1208.18 438.947 1207.83 438.542 1207.5 438.104C1200.43 428.681 1195.38 414.883 1202.11 405.796L1208.31 397.644L1210.2 396.594L1210.47 396.417C1211.3 395.921 1212.11 395.389 1212.89 394.831L1219.43 389.174Z" fill="white" stroke="white" stroke-width="0.5"/>
<path fill-rule="evenodd" clip-rule="evenodd" d="M1312.51 642.3L1312.55 642.442L1311.88 642.94L1261.42 635.374C1261.42 635.374 1239.08 642.247 1231.11 647.941C1217.37 657.761 1219.77 698.495 1220.58 708.523L1220.79 710.765L1214.73 711.438L1172.72 565.812L1176.25 564.281C1194.02 556.004 1212.82 539.018 1212.82 539.018L1181.79 444.718C1191.01 444.33 1200.15 442.664 1208.57 439.314L1208.67 439.273C1213.04 437.546 1217.21 435.357 1221.1 432.663L1221.55 443.446L1221.61 445.206C1223.08 482.129 1224.59 516.855 1225.61 532.737C1229.03 532.127 1243.53 524.47 1257.98 511.452L1266.12 551.627L1312.51 642.3Z" fill="#001D3D" stroke="white" stroke-width="0.5"/>
<path fill-rule="evenodd" clip-rule="evenodd" d="M1257.64 511.754C1243.31 524.588 1229 532.132 1225.61 532.737C1224.47 515.067 1222.72 474.066 1221.1 432.663L1220.88 427.115L1219.43 389.174C1225.84 382.487 1225.84 382.484 1219.43 389.167L1217.84 346.662L1216.86 319.206C1220.85 322.762 1217.84 320.046 1216.86 319.168V319.159L1216.83 319.155C1211.5 314.38 1215 317.545 1216.77 319.136L1216.77 319.135C1215.93 318.893 1208.72 316.895 1201.08 316.968L1198.21 317.1C1196.58 317.238 1194.96 317.493 1193.42 317.934C1192.58 318.148 1191.76 318.409 1190.97 318.714C1190.2 319.02 1189.46 319.375 1188.75 319.784C1187.06 320.773 1185.57 322.078 1184.44 323.785C1183.74 324.781 1183.18 325.927 1182.75 327.227C1181.61 330.745 1179.74 334.505 1177.5 338.236C1173.15 345.535 1167.41 352.76 1162.93 357.984C1158.86 362.724 1155.83 365.816 1155.83 365.816L1163.89 394.744L1165.75 395.972L1212.82 539.018C1212.82 539.018 1194.02 556.004 1176.25 564.281L1174.18 565.175C1174.27 565.135 1174.36 565.094 1174.45 565.053L1172.72 565.812L1172.56 565.872C1166.17 568.411 1158.77 568.478 1150.44 564.146C1117.68 547.095 1138.78 512.545 1141.47 484.276C1143.17 466.39 1134.1 465.928 1119.71 454.351L1115.84 451.09C1115.08 450.38 1114.31 449.668 1113.54 448.957L1111.48 446.909L1111.21 446.633C1105.61 440.88 1099.5 433.168 1093.11 422.317L1092.8 421.797L1090.31 417.418C1060.69 363.572 1119.93 352.803 1119.93 352.803C1119.93 352.803 1172.43 281.458 1200.26 281.458C1222.71 281.458 1219.73 306.011 1217.74 315.487C1219.07 314.008 1222.08 312.923 1228.75 314.214C1242.66 316.907 1238.17 337.996 1239.08 351.457C1277.55 367.835 1251.19 400.367 1251.19 400.367L1252.19 401.116L1252.46 401.314C1258.23 405.72 1281.81 425.161 1286.25 451.171L1286.66 454.069C1287.95 465.059 1285.66 477.124 1277.22 489.66C1275.9 491.614 1274.52 493.513 1273.07 495.342L1274.11 493.994L1270.69 498.299L1270.17 498.945L1267.21 502.281L1265.49 504.133L1263.7 505.975L1263.23 506.451C1261.49 508.193 1259.73 509.858 1257.98 511.45L1257.64 511.754ZM1262.07 507.615L1263.7 505.976L1262.07 507.615Z" fill="white" stroke="white" stroke-width="0.5"/>
<path fill-rule="evenodd" clip-rule="evenodd" d="M1342.21 586.328C1348.16 587.237 1354.24 589.29 1360.13 592.305C1378.52 601.728 1406.8 627.304 1406.8 627.304L1476.36 649.287L1447.63 695.506L1382.19 682.651L1382.17 682.644C1374.22 662.836 1346.44 648.116 1346.44 648.116L1312.73 643.068L1312.55 642.442L1312.52 642.32L1345.77 627.681C1347.01 623.421 1345.38 607.415 1342.21 586.328Z" fill="white" stroke="white" stroke-width="0.5"/>
<path fill-rule="evenodd" clip-rule="evenodd" d="M1312.52 642.321L1266.12 551.627L1257.98 511.45C1259.9 509.724 1261.82 507.902 1263.7 505.976L1264.96 504.704L1265.49 504.131L1266.38 503.221L1267.21 502.281L1267.79 501.653L1267.21 502.281L1270.17 498.945L1270.69 498.299L1270.59 498.437C1271.18 497.715 1271.78 496.985 1272.37 496.244L1273.07 495.342C1274.52 493.513 1275.9 491.614 1277.22 489.66C1285.66 477.124 1287.95 465.059 1286.66 454.069L1286.25 451.171C1281.74 424.749 1257.47 405.105 1252.2 401.116C1258.6 396.379 1266.7 392.59 1276.21 394.802C1295.51 399.29 1308.87 430.663 1312.56 441.917C1319.98 464.463 1334.83 537.388 1342.05 585.204L1342.21 586.328C1345.38 607.415 1347.01 623.421 1345.78 627.681L1312.52 642.321Z" fill="#001D3D" stroke="white" stroke-width="0.5"/>
<path d="M1208.8 365.754C1215.5 365.754 1220.92 360.631 1220.92 354.312C1220.92 347.993 1215.5 342.87 1208.8 342.87C1202.11 342.87 1196.69 347.993 1196.69 354.312C1196.69 360.631 1202.11 365.754 1208.8 365.754Z" fill="#001D3D" stroke="white" stroke-width="0.5"/>
<path d="M1175.15 365.754C1181.84 365.754 1187.26 360.631 1187.26 354.312C1187.26 347.993 1181.84 342.87 1175.15 342.87C1168.46 342.87 1163.03 347.993 1163.03 354.312C1163.03 360.631 1168.46 365.754 1175.15 365.754Z" fill="#001D3D" stroke="white" stroke-width="0.5"/>
<path fill-rule="evenodd" clip-rule="evenodd" d="M1338.02 631.101L1362.95 642.273L1365.63 661.476L1346.44 648.116L1312.52 642.321L1338.02 631.101Z" fill="#001D3D" stroke="white" stroke-width="0.5"/>
<path fill-rule="evenodd" clip-rule="evenodd" d="M1060.28 672.212L1097.39 703.657L1115.78 695.203L1063.92 647.921L1060.28 672.212Z" fill="white" stroke="white" stroke-width="0.5"/>
<path fill-rule="evenodd" clip-rule="evenodd" d="M1296.25 610.538L1339.47 568.956L1342.05 585.204L1303.52 624.727L1296.25 610.538Z" fill="white" stroke="white" stroke-width="0.5"/>
<path fill-rule="evenodd" clip-rule="evenodd" d="M1503.45 668.442C1503.45 668.442 1556.93 660.446 1569.05 667.85C1581.17 675.254 1591.26 687.369 1587.9 697.802C1584.53 708.234 1498.03 696.604 1498.19 693.406L1504.51 693.938L1507.88 670.717L1503.45 668.442Z" fill="white" stroke="white" stroke-width="0.5"/>
<path fill-rule="evenodd" clip-rule="evenodd" d="M1525.56 676.189L1522.6 670.764L1518.23 672.111L1522.79 680.746L1518.6 687.638L1521.96 690.748L1525.27 685.451L1527.65 689.947L1532.7 689.274L1528.13 680.901L1532.67 673.659L1529.56 669.627L1525.56 676.189Z" fill="#001D3D"/>
<path fill-rule="evenodd" clip-rule="evenodd" d="M1542.73 677.535L1539.77 672.111L1535.39 673.457L1539.96 682.092L1535.76 688.984L1539.12 692.094L1542.44 686.797L1544.82 691.293L1549.86 690.62L1545.29 682.247L1549.83 675.005L1546.72 670.973L1542.73 677.535Z" fill="#001D3D"/>
<path fill-rule="evenodd" clip-rule="evenodd" d="M1451.39 689.469L1473.89 653.258L1507.88 670.717C1507.88 670.717 1512.67 676.391 1511.26 683.687C1509.7 691.757 1504.51 693.938 1504.51 693.938L1451.39 689.469Z" fill="#001D3D" stroke="white" stroke-width="0.5"/>
<path fill-rule="evenodd" clip-rule="evenodd" d="M1284.71 587.957L1182.55 560.719L1173.58 565.206L1176.72 576.421L1284.71 587.957Z" fill="white"/>
<path fill-rule="evenodd" clip-rule="evenodd" d="M1288.73 595.812L1184.35 602.004L1186.59 610.081L1288.73 595.812Z" fill="white"/>
<path fill-rule="evenodd" clip-rule="evenodd" d="M1291.78 601.795L1195.79 645.524L1200.28 659.437L1291.78 601.795Z" fill="white"/>
<path fill-rule="evenodd" clip-rule="evenodd" d="M812.087 707.101C815.827 710.433 818.147 715.084 818.147 720.226C818.147 730.382 809.098 738.627 797.953 738.627C786.807 738.627 777.758 730.382 777.758 720.226C777.758 715.084 780.078 710.433 783.819 707.101H812.087Z" fill="#001D3D"/>
<mask id="mask1_628_1053" style="mask-type:alpha" maskUnits="userSpaceOnUse" x="777" y="707" width="42" height="32">
<path d="M812.087 707.101C815.827 710.433 818.147 715.084 818.147 720.226C818.147 730.382 809.098 738.627 797.953 738.627C786.807 738.627 777.758 730.382 777.758 720.226C777.758 715.084 780.078 710.433 783.819 707.101H812.087Z" fill="white"/>
</mask>
<g mask="url(#mask1_628_1053)">
<path d="M801.991 729.649C807.704 729.649 812.335 725.43 812.335 720.226C812.335 715.022 807.704 710.804 801.991 710.804C796.279 710.804 791.648 715.022 791.648 720.226C791.648 725.43 796.279 729.649 801.991 729.649Z" fill="#001D3D" stroke="white" stroke-width="0.5"/>
</g>
<path fill-rule="evenodd" clip-rule="evenodd" d="M812.087 707.101C815.827 710.433 818.147 715.084 818.147 720.226C818.147 730.382 809.098 738.627 797.953 738.627C786.807 738.627 777.758 730.382 777.758 720.226C777.758 715.084 780.078 710.433 783.819 707.101H812.087Z" stroke="white" stroke-width="0.5"/>
<path d="M851.804 738.623C862.957 738.623 871.998 730.386 871.998 720.226C871.998 710.065 862.957 701.829 851.804 701.829C840.651 701.829 831.61 710.065 831.61 720.226C831.61 730.386 840.651 738.623 851.804 738.623Z" fill="#001D3D"/>
<mask id="mask2_628_1053" style="mask-type:alpha" maskUnits="userSpaceOnUse" x="831" y="701" width="41" height="38">
<path d="M851.804 738.623C862.957 738.623 871.998 730.386 871.998 720.226C871.998 710.065 862.957 701.829 851.804 701.829C840.651 701.829 831.61 710.065 831.61 720.226C831.61 730.386 840.651 738.623 851.804 738.623Z" fill="white"/>
</mask>
<g mask="url(#mask2_628_1053)">
<path d="M855.842 729.649C861.555 729.649 866.186 725.43 866.186 720.226C866.186 715.022 861.555 710.803 855.842 710.803C850.13 710.803 845.499 715.022 845.499 720.226C845.499 725.43 850.13 729.649 855.842 729.649Z" fill="#001D3D" stroke="white" stroke-width="0.5"/>
</g>
<path d="M851.804 738.623C862.957 738.623 871.998 730.386 871.998 720.226C871.998 710.065 862.957 701.829 851.804 701.829C840.651 701.829 831.61 710.065 831.61 720.226C831.61 730.386 840.651 738.623 851.804 738.623Z" stroke="white" stroke-width="0.5"/>
<path fill-rule="evenodd" clip-rule="evenodd" d="M750.382 703.65C741.732 697.31 726.508 684.098 744.158 680.631C748.943 679.689 756.023 680.066 764.345 681.311L764.702 681.358C779.819 683.613 798.959 688.627 815.94 693.642H1030.02V707.103H812.087C811.916 706.948 755.376 707.103 755.376 707.103C755.376 707.103 753.338 705.818 750.585 703.798L750.382 703.65Z" fill="#001D3D" stroke="white" stroke-width="0.5"/>
<path fill-rule="evenodd" clip-rule="evenodd" d="M1053.44 473.653C1059.25 479.524 1063.93 489.244 1066.42 504.48C1077.87 574.475 1077.19 579.86 1077.19 579.86L1066.91 589.195C1066.91 589.195 1050.22 582.593 1035.09 599.776C1026.77 610.054 1025.97 626.328 1025.97 626.328L1009.73 641.062L1009.69 641.035C994.135 620.513 969.972 588.866 963.433 581.435C959.516 576.986 956.165 573.419 951.643 570.794L951.426 570.673L994.397 486.631C994.397 486.631 1040.84 480.474 1045.78 478.679C1047.92 477.901 1051.07 476.702 1053.44 473.653Z" fill="#001D3D" stroke="white" stroke-width="0.5"/>
<path fill-rule="evenodd" clip-rule="evenodd" d="M1025.98 626.281C1026.03 625.319 1027.02 609.737 1035.09 599.776C1050.22 582.593 1066.91 589.195 1066.91 589.195L1080.03 660.197C1065.6 640.914 1043.31 652.551 1034.24 663.744L1025.97 626.328L1025.98 626.281Z" fill="#001D3D" stroke="white" stroke-width="0.5"/>
<path fill-rule="evenodd" clip-rule="evenodd" d="M920.894 346.169C918.913 348.625 917.89 350.19 917.89 350.19L917.852 348.744C917.75 342.265 918.052 315.909 929.439 308.842C942.453 300.765 975.37 293.895 992.793 316.175C993.368 316.911 993.903 317.644 994.399 318.38C972.641 312.738 954.8 318.884 941.84 327.243L923.887 342.672L923.145 343.482L920.989 346.051L920.894 346.169Z" stroke="white" stroke-width="0.5"/>
<path fill-rule="evenodd" clip-rule="evenodd" d="M924.896 341.565C928.436 337.732 933.277 333.145 939.309 328.937C952.432 319.758 971.188 312.361 994.399 318.38L997.316 319.162C1010.67 323.2 1025.62 332.175 1017.24 339.803C1013.28 343.412 992.793 359.097 992.793 359.097L991.25 358.914L991.089 358.358C991.058 358.251 991.025 358.144 990.992 358.035C990.764 357.288 991.25 358.914 991.25 358.914C991.25 358.914 981.047 344.963 962.535 341.261C944.048 337.564 923.601 344.764 921.006 346.047C922.047 344.756 923.347 343.231 924.896 341.565Z" fill="white" stroke="white" stroke-width="0.5"/>
<path fill-rule="evenodd" clip-rule="evenodd" d="M1034.74 663.165L1034.35 663.61L1034.24 663.744C1029.48 669.607 1026.72 687.975 1025.19 704.115L1011 698.993C1011 698.993 1037.93 685.531 1023.34 659.06L1034.74 663.165Z" stroke="white" stroke-width="0.5"/>
<path fill-rule="evenodd" clip-rule="evenodd" d="M1068.17 713.8L1024.08 717.805C1024.35 713.726 1024.71 709.021 1025.19 704.115L1025.25 703.354C1026.8 687.402 1029.56 669.519 1034.24 663.744L1034.35 663.609L1034.74 663.165L1034.85 663.037C1044.26 652.073 1065.9 641.324 1080.03 660.197L1080.31 660.561C1082.64 663.697 1084.93 666.995 1087.11 670.367C1086.65 670.636 1086.65 670.636 1087.11 670.367C1095.86 683.653 1103.36 697.929 1107.86 707.029C1099.47 699.282 1088.8 690.822 1082.36 690.707C1070.46 690.492 1068.17 713.8 1068.17 713.8Z" fill="white" stroke="white" stroke-width="0.5"/>
<path fill-rule="evenodd" clip-rule="evenodd" d="M1112.2 727.759C1111.87 729.011 1111.52 729.732 1111.52 729.732L1023.34 731.529C1023.34 731.529 1023.52 725.882 1024.08 717.805L1068.17 713.8L1068.18 713.739C1068.32 712.373 1070.83 690.499 1082.36 690.707L1083.61 690.822C1084.83 691.017 1086.16 691.454 1087.57 692.087C1088.85 692.652 1090.2 693.372 1091.59 694.227C1096.89 697.411 1102.79 702.351 1107.86 707.029L1111.08 713.578C1113.83 719.393 1113.04 724.791 1112.24 727.632L1112.2 727.759Z" fill="#001D3D" stroke="white" stroke-width="0.5"/>
<path fill-rule="evenodd" clip-rule="evenodd" d="M978.571 400.365C974.26 404.032 969.15 406.782 963.538 408.312L963.46 408.334C960.065 409.319 956.477 409.824 952.772 409.824C945.395 409.824 938.482 407.823 932.564 404.299L932.495 404.258C920.674 397.331 912.752 384.487 912.752 369.808C912.752 362.678 914.621 355.983 917.918 350.193L918.094 349.903C918.486 349.329 919.465 347.942 921.006 346.047C923.601 344.764 944.048 337.564 962.536 341.261C981.047 344.963 991.25 358.914 991.25 358.914L991.297 359.076L991.514 359.942L993.083 360.692L978.571 400.365Z" stroke="white" stroke-width="0.5"/>
<path fill-rule="evenodd" clip-rule="evenodd" d="M993.951 358.319C1003.15 353.636 1010.83 350.473 1014.25 349.611C1015.03 349.415 1015.75 349.326 1016.43 349.323H1016.58C1021.99 349.401 1024.18 354.996 1024.18 354.996C1024.18 354.996 1048.41 425.444 1054.69 449.225C1058.22 462.597 1056.51 469.727 1053.44 473.722L1053.37 473.815C1051 476.863 1047.85 478.062 1045.72 478.84C1040.78 480.635 994.33 486.792 994.33 486.792L994.32 486.739C994.124 485.659 991.019 468.184 992.726 457.751C994.487 446.982 1010.26 444.738 1010.26 444.738L1000.1 385.957L982.886 404.439L978.503 400.551L993.951 358.319ZM980.485 399.266C980.044 399.695 979.599 400.117 979.145 400.531C979.599 400.117 980.044 399.695 980.485 399.266Z" fill="#001D3D" stroke="white" stroke-width="0.5"/>
<path fill-rule="evenodd" clip-rule="evenodd" d="M1102.52 662.028C1082.45 680.403 1117.84 696.522 1117.84 696.522L1112.07 714.466L1111.58 713.241C1111.58 713.241 1096.37 683.317 1087.61 670.031C1092.2 667.284 1097.33 664.323 1102.52 662.028Z" fill="white" stroke="white" stroke-width="0.5"/>
<path fill-rule="evenodd" clip-rule="evenodd" d="M1102.52 662.028C1113.02 657.343 1123.7 655.358 1130.29 663.266C1143.75 679.42 1137.92 718.902 1124.45 726.084C1121.98 727.403 1117.83 727.753 1112.71 727.423C1113.46 724.818 1114.26 719.891 1112.07 714.467L1117.84 696.523C1117.84 696.523 1082.45 680.403 1102.52 662.028Z" fill="#001D3D" stroke="white" stroke-width="0.5"/>
<path fill-rule="evenodd" clip-rule="evenodd" d="M1083.66 665.232L1056.41 661.806L1057.42 669.546L1087.11 670.367L1083.66 665.232Z" fill="#001D3D" stroke="white" stroke-width="0.5"/>
<path fill-rule="evenodd" clip-rule="evenodd" d="M1060.45 680.147L1092.19 678.397L1096.3 684.609L1063.65 687.046L1060.45 680.147Z" fill="#001D3D" stroke="white" stroke-width="0.5"/>
<path d="M1039.64 710.881C1046.08 710.881 1051.31 703.649 1051.31 694.728C1051.31 685.806 1046.08 678.574 1039.64 678.574C1033.19 678.574 1027.97 685.806 1027.97 694.728C1027.97 703.649 1033.19 710.881 1039.64 710.881Z" fill="#001D3D" stroke="white" stroke-width="0.5"/>
<path fill-rule="evenodd" clip-rule="evenodd" d="M848.046 701.005C841.674 698.313 832.106 692.437 829.478 681.049C828.196 675.496 833.492 661.873 842.291 645.847L842.737 645.04L846.255 638.874L848.351 635.381L850.317 632.137L852.568 628.583L854.664 625.305L857.048 621.738L859.253 618.46L861.747 614.927L864.038 611.696L866.62 608.23L868.976 605.08L871.624 601.721L874.023 598.699L876.716 595.495L879.133 592.628L881.853 589.619L884.263 586.961L886.992 584.181L889.367 581.778L892.091 579.268L894.438 577.114L895.707 576.05L896.882 575.068L898.173 574.058L899.325 573.163L900.604 572.241L901.73 571.433L902.996 570.605L904.089 569.898L905.343 569.172L906.397 568.566L907.643 567.947L908.649 567.445L909.896 566.932L910.84 566.546L912.108 566.146L912.963 565.878L914.325 565.595L915.014 565.453L916.986 565.28L923.378 565.234L929.036 565.396L934.029 565.766C941.836 566.553 947.158 568.196 951.426 570.672L951.643 570.794C956.165 573.419 959.516 576.986 963.433 581.435C969.972 588.865 994.135 620.513 1009.69 641.035L1012.56 644.811L1023.34 659.06L1024.59 661.503C1036.27 686.366 1011 698.993 1011 698.993L853.935 703.031C853.935 703.031 851.519 702.506 848.196 701.066L848.046 701.005Z" fill="#001D3D" stroke="white" stroke-width="0.5"/>
<path fill-rule="evenodd" clip-rule="evenodd" d="M999.621 425.855C1003.03 428.273 1005.91 430.613 1008.27 432.671L1010.33 444.577C1010.33 444.577 994.554 446.82 992.793 457.589C991.087 468.022 994.192 485.497 994.387 486.578L994.397 486.631L951.426 570.672C947.158 568.196 941.836 566.553 934.029 565.766L929.036 565.396L923.378 565.234L916.986 565.28C916.342 565.294 915.684 565.353 915.014 565.453L915.006 565.454L914.325 565.595L912.98 565.873L912.948 565.882L912.108 566.146L910.867 566.535L910.815 566.553L909.896 566.932L908.686 567.428L908.616 567.459L907.644 567.947L906.443 568.539L906.354 568.586L905.343 569.172L904.145 569.865L904.035 569.932L902.996 570.605L901.797 571.386L901.666 571.473L900.604 572.241L899.404 573.096L899.251 573.21L898.173 574.058L896.971 574.994L896.797 575.135L895.707 576.05L894.505 577.053L894.309 577.221L892.091 579.268L889.491 581.65L889.367 581.778L889.253 581.879L886.992 584.181L884.408 586.799L884.263 586.961L884.127 587.102L881.853 589.619L879.299 592.433L879.133 592.628L878.977 592.803L876.716 595.495L874.207 598.463L874.023 598.699L873.849 598.901L871.624 601.721L869.176 604.81L868.976 605.08L868.784 605.322L866.62 608.23L864.252 611.393L864.038 611.696L863.832 611.972L861.747 614.927L859.475 618.13L859.253 618.46L859.033 618.77L857.048 621.738L854.892 624.949L854.664 625.305L854.436 625.642L852.569 628.583L850.545 631.753L850.317 632.137L850.083 632.5L848.351 635.381L846.479 638.477L846.255 638.874L846.02 639.265L844.44 642.051L842.737 645.04L842.291 645.847C833.492 661.873 828.196 675.496 829.478 681.049C832.127 692.524 841.826 698.407 848.196 701.066L848.199 701.099L813.996 690.472L818.034 593.55L837.556 572.012L810.63 497.973C810.63 497.973 839.725 456.903 862.207 429.966C853.355 460.658 871.886 486.631 871.886 486.631L912.752 538.357L917.84 480.729C917.84 480.729 926.535 477.111 929.9 472.616C933.735 473.282 937.874 473.63 942.341 473.63C944.95 473.63 947.429 473.497 949.779 473.21L958.666 500.105C958.666 500.105 986.073 463.509 996.529 435.49C997.755 432.203 998.783 428.991 999.621 425.855Z" fill="#001D3D" stroke="white" stroke-width="0.5"/>
<path fill-rule="evenodd" clip-rule="evenodd" d="M930.997 404.364L932.564 404.299C938.481 407.824 945.395 409.824 952.772 409.824C956.477 409.824 960.065 409.319 963.46 408.334L964.965 408.791C963.021 409.632 961.786 409.824 961.786 409.824L939.985 443.567L949.779 473.21C947.429 473.497 944.95 473.631 942.341 473.631C937.874 473.631 933.735 473.282 929.9 472.616L929.97 472.521C930.693 471.541 931.153 470.516 931.208 469.48C931.703 460.21 920.808 425.106 920.808 425.106L920.858 405.094L921.431 405.039L930.997 404.364Z" stroke="white" stroke-width="0.5"/>
<path fill-rule="evenodd" clip-rule="evenodd" d="M929.9 472.616C926.535 477.111 917.84 480.729 917.84 480.729L912.752 538.357L871.886 486.631C871.886 486.631 853.355 460.658 862.207 429.966C862.685 429.388 863.162 428.816 863.635 428.253L863.432 428.486L862.207 429.966C865.9 416.967 874.525 403.132 891.519 390.059C892.186 386.574 888.041 374.129 895.782 362.175C903.523 350.22 921.006 346.047 921.006 346.047L923.802 343.052C926.591 337.889 929.702 336.732 929.702 336.732L923.802 343.052C921.236 347.802 918.941 355.945 919.592 369.699C920.278 384.166 932.495 404.258 932.495 404.258L930.997 404.364L926.506 404.55L921.432 405.039L920.858 405.079L920.808 425.106C920.808 425.106 931.703 460.21 931.208 469.48C931.153 470.516 930.693 471.541 929.97 472.521L929.9 472.616ZM939.985 443.567L961.786 409.824C961.786 409.824 963.021 409.632 964.966 408.791L965.117 408.725C968.322 407.318 973.351 404.187 977.992 397.412L978.57 400.389L982.954 404.278L1000.17 385.795L1003.1 402.752C1002.91 409.801 1001.89 417.545 999.621 425.855L998.554 425.076C997.368 424.281 996.386 422.945 995.074 422.488L994.49 422.35C996.314 423.521 998.029 424.69 999.621 425.855C998.783 428.991 997.756 432.203 996.529 435.491C986.073 463.509 958.666 500.105 958.666 500.105L939.985 443.567ZM991.592 421.05C991.371 420.836 991.148 420.621 990.925 420.408C990.702 420.194 990.477 419.981 990.252 419.766C990.703 420.194 991.15 420.621 991.592 421.05ZM989.445 419.428L989.793 419.627L989.445 419.428ZM986.86 417.997L987.109 418.132L986.86 417.997ZM880.798 417.214L880.583 417.314L881.139 417.057L880.798 417.214ZM881.363 416.953L881.152 417.051L881.696 416.802L881.363 416.953ZM881.928 416.697L881.72 416.791L882.255 416.549L881.928 416.697ZM882.489 416.444L882.286 416.535L882.815 416.299L882.489 416.444ZM883.051 416.193L882.849 416.283L883.376 416.05L883.051 416.193ZM883.612 415.945L883.408 416.035L883.938 415.803L883.612 415.945ZM884.17 415.701L883.965 415.791L884.501 415.559L884.17 415.701ZM919.985 405.201C915.972 405.703 911.851 406.432 907.627 407.416C903.404 408.4 899.079 409.639 894.655 411.159C903.504 408.118 911.957 406.205 919.985 405.201Z" fill="white" stroke="white" stroke-width="0.5"/>
<path fill-rule="evenodd" clip-rule="evenodd" d="M750.585 703.798L741.857 718.067L665.792 718.741L736.472 684.414L815.648 511.772L837.556 572.012L818.034 593.55L764.345 681.311C756.023 680.066 748.943 679.689 744.158 680.632C726.37 684.125 741.973 697.519 750.585 703.798Z" fill="#001D3D" stroke="white" stroke-width="0.5"/>
<path fill-rule="evenodd" clip-rule="evenodd" d="M899.968 701.853C899.968 701.853 927.155 700.15 944.697 649.885C949.449 649.765 928.481 701.12 928.481 701.12L899.968 701.853Z" fill="white" stroke="white" stroke-width="0.5"/>
<path fill-rule="evenodd" clip-rule="evenodd" d="M1028.3 613.5C1028.3 613.5 1002.13 588.825 998.987 571.325C995.846 553.826 996.743 594.661 1004.82 605.874C1012.9 617.094 1025.97 626.328 1025.97 626.328L1028.3 613.5Z" fill="white" stroke="white" stroke-width="0.5"/>
<path fill-rule="evenodd" clip-rule="evenodd" d="M581.535 643.371L579.126 683.324V671.209L547.714 669.526L551.238 636.155L581.535 643.371Z" fill="#001D3D" stroke="white" stroke-width="0.5"/>
<path fill-rule="evenodd" clip-rule="evenodd" d="M666.944 639.588L671.627 676.445L691.821 677.791L694.13 651.319L666.944 639.588Z" fill="#001D3D" stroke="white" stroke-width="0.5"/>
<path fill-rule="evenodd" clip-rule="evenodd" d="M661.388 720.396L671.627 676.445L691.821 677.791C691.821 677.791 721.38 695.257 742.046 708.032C730.206 703.152 721.102 720.194 721.102 720.194L661.388 720.396Z" fill="white" stroke="white" stroke-width="0.5"/>
<path fill-rule="evenodd" clip-rule="evenodd" d="M661.388 720.396L721.102 720.194C721.102 720.194 730.206 703.152 742.046 708.032C750.653 713.302 757.715 717.785 760.481 719.858C769.905 726.925 764.52 736.684 764.52 736.684L658.5 732.794L661.388 720.396Z" fill="#001D3D" stroke="white" stroke-width="0.5"/>
<path fill-rule="evenodd" clip-rule="evenodd" d="M547.714 669.526L579.126 671.209V683.324C579.126 683.324 578.567 691.737 583.616 700.15C587.402 706.464 589.688 721.291 590.595 728.311L591.046 732.121C591.046 732.121 580.25 701.947 555.356 706.659C545.399 708.544 540.871 720.12 540.871 720.12L523.586 723.957L519.667 732.794L547.714 669.526Z" fill="white" stroke="white" stroke-width="0.5"/>
<path fill-rule="evenodd" clip-rule="evenodd" d="M519.667 732.794L523.586 723.957L540.871 720.12C540.871 720.12 545.399 708.543 555.356 706.659C577.138 702.533 588.126 725.121 590.533 730.835L591.046 732.121L519.667 732.794Z" fill="#001D3D" stroke="white" stroke-width="0.5"/>
<path fill-rule="evenodd" clip-rule="evenodd" d="M651.827 633.073L697.6 652.814L706.326 410.671L644.535 389.843L651.827 633.073Z" fill="#001D3D" stroke="white" stroke-width="0.5"/>
<path fill-rule="evenodd" clip-rule="evenodd" d="M575.159 433.475L566.7 428.564L567.318 460.951L570.861 465.084L575.159 433.475Z" fill="#001D3D" stroke="white" stroke-width="0.5"/>
<path fill-rule="evenodd" clip-rule="evenodd" d="M583.872 369.395L644.535 389.843L604.483 636.155L591.046 645.632L547.714 635.314L583.872 369.395Z" fill="#001D3D" stroke="white" stroke-width="0.5"/>
<path fill-rule="evenodd" clip-rule="evenodd" d="M665.899 179.106C697.169 186.411 713.73 204.713 713.73 204.713L706.326 410.671L581.655 369.395L591.668 275.834L575.339 191.557C606.385 177.148 632.6 174.381 653.572 176.914L653.61 178.004L653.572 178.29L653.644 178.999L653.648 179.032C653.986 181.857 656.402 184.04 659.323 184.04C662.295 184.04 664.743 181.78 665.013 178.885L665.715 179.063L665.899 179.106Z" fill="#001D3D" stroke="white" stroke-width="0.5"/>
<path fill-rule="evenodd" clip-rule="evenodd" d="M657.94 394.362L665.29 438.845L707.281 423.182L706.326 410.671L657.94 394.362Z" fill="#001D3D" stroke="white" stroke-width="0.5"/>
<path fill-rule="evenodd" clip-rule="evenodd" d="M644.535 389.843L641.73 455.941L579.126 394.362L581.655 369.395L644.535 389.843Z" fill="#001D3D" stroke="white" stroke-width="0.5"/>
<path fill-rule="evenodd" clip-rule="evenodd" d="M575.339 191.888L591.046 276.675L575.181 433.315L564.681 427.218L565.354 201.965C565.354 201.965 566.19 190.614 575.339 191.888Z" fill="#001D3D" stroke="white" stroke-width="0.5"/>
<path fill-rule="evenodd" clip-rule="evenodd" d="M751.199 343.493L765.629 461.28L704.074 480.159L708.581 347.944L751.199 343.493Z" fill="white" stroke="white" stroke-width="0.5"/>
<path fill-rule="evenodd" clip-rule="evenodd" d="M694.417 190.215L709.716 316.369L713.73 204.713C713.73 204.713 699.707 192.74 694.417 190.215Z" fill="white" stroke="white" stroke-width="0.5"/>
<path fill-rule="evenodd" clip-rule="evenodd" d="M740.891 428.3L751.199 450.736L709.871 448.043L708.581 426.953L740.891 428.3Z" fill="#001D3D" stroke="white" stroke-width="0.5"/>
<path fill-rule="evenodd" clip-rule="evenodd" d="M735.977 449.743V476.121L728.762 480.159L727.623 449.2L735.977 449.743Z" fill="#001D3D" stroke="white" stroke-width="0.5"/>
<path fill-rule="evenodd" clip-rule="evenodd" d="M718.857 448.628L720.058 478.443H728.699L727.623 449.2L718.857 448.628Z" fill="#001D3D" stroke="white" stroke-width="0.5"/>
<path fill-rule="evenodd" clip-rule="evenodd" d="M709.871 448.043L708.581 467.91L719.457 463.536L718.88 449.2L709.871 448.043Z" fill="#001D3D" stroke="white" stroke-width="0.5"/>
<path fill-rule="evenodd" clip-rule="evenodd" d="M744.143 450.276L739.175 471.948H735.977V449.744L744.143 450.276Z" fill="#001D3D" stroke="white" stroke-width="0.5"/>
<path fill-rule="evenodd" clip-rule="evenodd" d="M713.73 204.713C713.73 204.713 719.351 203.496 721.37 206.188C723.39 208.88 754.018 314.215 750.988 336.09C747.959 357.964 740.891 428.3 740.891 428.3L708.581 426.954L706.326 410.671L713.73 204.713Z" fill="#001D3D" stroke="white" stroke-width="0.5"/>
<path fill-rule="evenodd" clip-rule="evenodd" d="M638.574 180.387L652.261 168.496L656.3 201.925L644.535 207.086L638.574 180.387Z" fill="#001D3D" stroke="white" stroke-width="0.5"/>
<path fill-rule="evenodd" clip-rule="evenodd" d="M675.373 168.496L678.289 191.788L667.295 204.438L664.731 178.796L675.373 168.496Z" fill="#001D3D" stroke="white" stroke-width="0.5"/>
<path fill-rule="evenodd" clip-rule="evenodd" d="M653.572 176.914V176.908C654.435 173.611 658.52 162.634 660.795 156.635C665.275 158.998 670.257 160.618 675.554 161.332L676.214 161.765L665.718 179.052L665.715 179.063L665.013 178.885C664.743 181.78 662.295 184.04 659.323 184.04C656.39 184.04 653.967 181.84 653.644 178.999L653.61 178.004L653.751 176.933L653.572 176.914Z" stroke="white" stroke-width="0.5"/>
<path fill-rule="evenodd" clip-rule="evenodd" d="M729.224 191.942L681.823 168.496L679.918 161.72L681.823 161.765C705.694 161.765 725.073 143.67 725.073 121.381L729.224 191.942ZM710.599 69.5849C707.673 77.0647 691.528 96.2538 691.528 96.2538C691.528 96.2538 627.971 90.9312 647.437 137.984C654.625 155.358 661.237 161.765 661.237 161.765L652.769 172.698L632.74 168.496C632.74 168.496 631.619 127.888 631.17 119.138C630.721 110.388 636.555 113.529 638.574 103.882C640.594 94.2346 649.793 59.6841 668.416 58.338C687.04 56.9918 705.439 65.4072 710.376 66.6961L710.437 66.6853C711.682 66.4612 731.706 63.0279 735.619 72.8089C739.658 82.9049 739.658 103.77 737.975 106.462C736.292 109.154 713.73 110.164 713.73 110.164L710.599 69.5849ZM725.295 121.77C725.173 121.852 725.025 121.952 724.855 122.07C724.948 122.005 725.033 121.947 725.111 121.895L725.21 121.828C725.238 121.809 725.267 121.789 725.295 121.77ZM725.331 121.75L725.21 121.826L725.419 121.698L725.331 121.75Z" fill="white" stroke="white" stroke-width="0.5"/>
<path fill-rule="evenodd" clip-rule="evenodd" d="M675.43 161.315C670.181 160.59 665.238 158.982 660.795 156.634L660.718 156.594C647.5 149.704 638.574 136.508 638.574 121.381C638.574 99.0927 671.416 65.9213 695.286 65.9213C718.409 65.9213 723.855 97.9781 725.016 119.305L725.072 121.381L725.016 123.458C723.855 144.785 704.946 161.765 681.823 161.765L679.918 161.72L679.648 161.709L675.554 161.332L675.43 161.315Z" stroke="white" stroke-width="0.5"/>
</g>
</g>
<defs>
<clipPath id="clip0_628_1053">
<rect width="2000" height="800" fill="white"/>
</clipPath>
</defs>
</svg>
