<?xml version="1.0" encoding="UTF-8"?>
<svg width="1376px" height="600px" viewBox="0 0 1376 600" version="1.1" xmlns="http://www.w3.org/2000/svg" xmlns:xlink="http://www.w3.org/1999/xlink">
    <title>Artboard</title>
    <defs>
        <rect id="path-1" x="-1.12881161e-14" y="9.02950157e-16" width="1012" height="754"></rect>
        <path d="M25.9254241,0 C28.7504448,2.51616296 30.5022932,6.02862478 30.5022932,9.91215711 C30.5022932,17.5826418 23.6687628,23.8095097 15.2511466,23.8095097 C6.83403879,23.8095097 0,17.5826418 0,9.91215711 C0,6.02862478 1.75184837,2.51616296 4.57737747,0 L25.9254241,0 Z" id="path-3"></path>
        <ellipse id="path-5" cx="15.2511466" cy="13.8937944" rx="15.2511466" ry="13.8937944"></ellipse>
    </defs>
    <g id="Artboard" stroke="none" stroke-width="1" fill="none" fill-rule="evenodd">
        <g id="comp_v02" transform="translate(182.000000, -77.000000)">
            <rect id="Rectangle" x="0" y="0" width="1012" height="754"></rect>
            <g id="Clipped">
                <mask id="mask-2" fill="white">
                    <use xlink:href="#path-1"></use>
                </mask>
                <g id="Rectangle"></g>
                <g id="Group" mask="url(#mask-2)">
                    <g transform="translate(-2.609639, 118.858858)">
                        <g id="Layer3" transform="translate(0.000000, 442.214838)" stroke="#000000" stroke-width="0.5">
                            <rect id="Rectangle" x="1.99603602e-14" y="0" width="1043.18237" height="193.159985"></rect>
                        </g>
                        <g id="Layer4" transform="translate(768.867459, 35.019775)">
                            <g id="Group" transform="translate(0.000000, 0.000000)">
                                <path d="M114.179555,230.519637 L114.227208,230.507725 C113.726855,225.955494 113.526714,221.253651 113.512419,216.917262 L115.151669,248.040533 L36.0959816,247.980497 L38.964669,206.34002 C41.6236849,208.016255 44.6496259,209.856873 47.9424215,211.748951 L39.202932,211.537873 L38.964669,213.953595 C47.5754964,217.759668 59.9747066,222.769314 73.0029313,226.507251 L73.0029313,226.507251 C87.4035514,230.638756 102.571378,233.216956 114.227208,230.884616 L114.179555,230.519637 Z" id="Path" stroke="#000000" stroke-width="0.5" fill="#000000"></path>
                                <path d="M114.179555,230.519637 L114.155729,230.525831 L114.179555,230.519637 C114.179555,230.519637 114.227208,230.884616 114.227208,230.884616 C102.571378,233.216956 87.4035514,230.638756 73.0029313,226.507251 L73.0029313,226.507251 C59.9747066,222.769314 47.5754964,217.759668 38.964669,213.953595 L39.202932,211.537873 L112.907231,213.317979 L113.512419,221.363716 C113.526714,224.286407 113.71256,227.445428 114.179555,230.519637 Z M104.14815,232.030608 L104.289854,232.03162 L103.976082,232.027572 L104.14815,232.030608 Z M103.995662,232.027958 L104.137365,232.029982 L103.823593,232.024922 L103.995662,232.027958 Z M103.833052,232.024831 L103.984877,232.027867 L103.671105,232.021795 L103.833052,232.024831 Z M103.680563,232.02224 L103.822267,232.025276 L103.528738,232.018192 L103.680563,232.02224 Z M103.528075,232.018428 L103.669779,232.021465 L103.37625,232.01438 L103.528075,232.018428 Z M103.368143,232.01414 L103.509847,232.018188 L103.22644,232.00908 L103.368143,232.01414 Z M103.215655,232.009375 L103.357358,232.013424 L103.073951,232.004315 L103.215655,232.009375 Z M103.055723,232.004134 L103.197427,232.008182 L102.924141,231.999074 L103.055723,232.004134 Z M102.903235,231.998149 L103.044938,232.003209 L102.771653,231.993088 L102.903235,231.998149 Z M102.743303,231.992222 L102.885006,231.997283 L102.621843,231.98615 L102.743303,231.992222 Z M102.593493,231.98454 L102.725075,231.990612 L102.472033,231.979479 L102.593493,231.98454 Z M102.433561,231.977393 L102.565143,231.983465 L102.322222,231.972332 L102.433561,231.977393 Z M102.273629,231.969769 L102.405211,231.976853 L102.172412,231.963697 L102.273629,231.969769 Z M102.116375,231.961669 L102.247957,231.968753 L102.015159,231.955597 L102.116375,231.961669 Z M101.966565,231.953092 L102.088025,231.960177 L101.865349,231.94702 L101.966565,231.953092 Z M101.806633,231.943027 L101.928094,231.951124 L101.715538,231.937967 L101.806633,231.943027 Z M101.64938,231.933766 L101.77084,231.941862 L101.558285,231.927693 L101.64938,231.933766 Z M101.489448,231.924028 L101.610908,231.931112 L101.408475,231.917955 L101.489448,231.924028 Z M101.332194,231.912533 L101.453654,231.920629 L101.251221,231.907473 L101.332194,231.912533 Z M101.172263,231.901574 L101.293723,231.909671 L101.101411,231.896514 L101.172263,231.901574 Z M101.017687,231.890407 L101.129026,231.898503 L100.946835,231.884334 L101.017687,231.890407 Z M100.860433,231.877483 L100.971772,231.886591 L100.789582,231.872422 L100.860433,231.877483 Z M100.70318,231.865094 L100.804397,231.874203 L100.64245,231.860034 L100.70318,231.865094 Z M100.545926,231.852497 L100.647143,231.860594 L100.485196,231.847437 L100.545926,231.852497 Z M100.388673,231.839156 L100.489889,231.847253 L100.327943,231.834096 L100.388673,231.839156 Z M100.223976,231.824326 L100.325192,231.833435 L100.173367,231.820278 L100.223976,231.824326 Z M100.0694,231.8103 L100.160495,231.818396 L100.018792,231.806252 L100.0694,231.8103 Z M99.9094682,231.795529 L100.000563,231.803626 L99.8689815,231.791481 L99.9094682,231.795529 Z M99.7548928,231.780282 L99.8358663,231.788378 L99.7144061,231.776234 L99.7548928,231.780282 Z M99.5928739,231.764826 L99.6738474,231.771911 L99.5523872,231.760778 L99.5928739,231.764826 Z M99.4382985,231.747614 L99.5091503,231.75571 L99.3978118,231.744578 L99.4382985,231.747614 Z M99.2736014,231.730937 L99.3444532,231.739034 L99.2432364,231.727901 L99.2736014,231.730937 Z M113.771675,230.87182 C113.60079,230.938615 113.436477,231.004399 113.265591,231.067147 C113.094706,231.130906 112.930393,231.192642 112.759507,231.253365 C113.094706,231.13293 113.436477,231.005411 113.771675,230.87182 Z" id="Shape" stroke="#000000" stroke-width="0.5" fill="#FFFFFF"></path>
                                <path d="M98.1587464,91.3559247 C102.995487,93.0078594 107.770279,95.1577094 112.349695,96.5675955 L16.3296772,207.338709 C16.3296772,207.338709 17.2827295,210.514883 17.9212745,216.232569 C16.3010856,219.635546 11.349979,233.135955 7.66643194,246.810754 C6.83251119,247.37347 6.11772198,247.988597 5.53159482,248.63279 C1.71938568,245.456616 -1.13977117,244.820999 0.447060881,231.479732 C2.03389294,218.138465 21.7334837,118.714576 34.1231634,100.290762 C36.0578595,97.4095247 38.9599037,95.0100025 42.5243193,93.0269184 C45.1690394,95.7575899 49.2433379,97.6634853 55.4381777,97.5067254 C60.8038621,94.6064292 67.5848291,92.9421061 72.0689401,92.0892179 C72.4835178,92.4203672 72.9219219,92.7286458 73.379387,93.0197713 L73.4508659,93.0674187 C76.6007037,95.0895736 80.4748612,96.2759935 84.663526,96.2759935 C87.5751008,96.2759935 90.3341871,95.7027954 92.8025926,94.6688472 L92.8645409,94.6440706 C94.8421244,93.8202473 96.6338627,92.705775 98.1587464,91.3559247 Z M130.972337,94.1075611 C133.979217,97.2332294 136.376143,101.173668 137.68659,106.008448 C141.818072,121.255611 141.818072,217.185517 137.05281,230.844592 C132.287549,244.503668 126.883742,247.99765 126.883742,247.99765 L114.71803,239.743694 L113.512419,216.917262 C113.526714,221.253651 113.726855,225.955494 114.227208,230.507725 C114.227208,230.507725 114.179555,230.519637 114.179555,230.519637 C113.71256,227.445428 113.526714,224.286407 113.512419,221.363716 L112.907231,213.317979 L59.9413498,212.038647 L38.5739175,212.038647 L36.8203013,237.43899 C21.4142111,231.010405 22.3672634,216.232569 23.6395882,210.514883 C24.692711,205.77111 93.1838135,125.01356 116.481177,97.6606264 C121.751556,98.7098218 126.66454,98.2076184 130.972337,94.1075611 Z" id="Shape" stroke="#000000" stroke-width="0.5" fill="#FFFFFF"></path>
                                <path d="M112.349695,96.5675955 C113.698264,97.0073808 115.037302,97.3690244 116.352515,97.6353733 L116.481177,97.6606264 C93.1838135,125.01356 24.692711,205.77111 23.6395882,210.514883 C22.4053855,216.053892 21.4761595,230.094146 35.4240797,236.812427 L36.8203013,237.43899 C35.3907229,255.303424 34.1231634,285.16261 34.1231634,285.16261 C34.1231634,285.16261 10.6113635,287.703644 4.57854254,277.856836 C1.7289162,273.215028 4.11154692,259.932367 7.66643194,246.810754 L7.83798135,246.169897 C11.5024674,232.717135 16.3249119,219.58218 17.9212745,216.232569 C17.2827295,210.514883 16.3296772,207.338709 16.3296772,207.338709 L112.349695,96.5675955 Z" id="Path" stroke="#000000" stroke-width="0.5" fill="#000000"></path>
                                <path d="M92.2069349,89.6611072 C94.1463963,90.0608688 96.0763271,90.6388315 98.0014928,91.3016066 L98.1539811,91.3549717 C96.6148017,92.7167339 94.8040023,93.8369239 92.8025926,94.6588413 L92.8025926,94.6688472 L90.9107838,95.3521107 L92.8025926,94.6588413 L92.2069349,89.6611072 Z M67.3132092,85.5615264 C69.7625536,85.177012 72.230959,84.8639687 74.6803034,84.6223964 C74.6660076,86.5949981 74.5087539,88.4284694 74.1894814,90.0313274 C72.25002,89.0440736 69.5910042,87.5098279 67.3132092,85.5615264 Z M96.6719848,83.4945829 C95.6426884,85.9093523 94.1463963,87.0619425 91.9924981,87.8552714 L91.4826151,83.5512833 L96.6719848,83.4945829 Z" id="Shape" stroke="#000000" stroke-width="0.5" fill="#FFFFFF"></path>
                                <path d="M89.0237402,62.8146655 L92.8025926,94.6688472 L90.9107838,95.3521107 L90.8440701,95.3702167 L89.1190455,95.8047608 L88.5805709,95.9081557 L87.1843493,96.1154218 L86.6172832,96.1802222 L84.663526,96.2759935 L83.1291119,96.221199 L82.6382899,96.1711692 L81.6280545,96.0620567 L81.0800494,95.9677149 L80.160354,95.801902 L79.6266447,95.6727776 L78.7260103,95.4426407 L78.2494842,95.292075 L77.3297887,94.9857023 L76.9390373,94.8313248 L75.9716892,94.4306103 L75.6857735,94.2962447 L74.6517118,93.7768882 L74.4992234,93.6911229 L73.379387,93.0197713 C73.9655141,91.5608084 74.3467351,89.7154252 74.5373455,87.6198933 C74.5564066,86.3848732 74.5230497,84.9344868 74.4468055,83.3645055 L74.5135192,83.4183471 C74.1370636,78.1895232 73.2507249,71.0524217 72.1118274,67.314008 C78.1303526,67.8891119 84.0392768,66.2033474 89.0237402,62.8146655 Z" id="Path" stroke="#000000" stroke-width="0.5" fill="#FFFFFF"></path>
                                <path d="M63.8202726,65.0397983 C62.952995,64.6414662 62.1190742,64.180716 61.3185103,63.6747008 L61.204144,63.6027533 C51.487776,57.4586232 46.2888758,44.7758427 49.1766242,31.8376722 C50.5347237,25.7254658 53.5082468,20.4299356 57.4729443,16.3965846 C58.4974756,15.3497716 59.5839552,14.3872945 60.7371484,13.5272592 L74.1799509,18.9681139 C74.1799509,18.9681139 70.372507,11.0414952 85.2353574,9.52440253 L85.2925405,9.54441444 C86.0216255,9.97133499 97.6012108,17.2451845 98.8878314,45.9956157 L98.9021272,46.3248591 C98.9783714,47.9744115 99.0117282,49.6920997 99.0117282,51.4826883 C96.6148017,56.1478437 93.1742829,60.0110935 89.1190455,62.7503416 L89.0237402,62.8146655 C84.663526,65.7797622 79.5932879,67.4412265 74.3610308,67.4246742 L72.1118274,67.314008 L72.011757,67.3068608 C71.0205826,67.2320545 70.0294082,67.0748181 69.0382338,66.8537342 C67.3370355,66.475414 65.7168466,65.9269926 64.191963,65.2065642 L63.8202726,65.0397983 Z" id="Path" stroke="#000000" stroke-width="0.5" fill="#FFFFFF"></path>
                                <path d="M89.0237402,62.8146655 L89.1190455,62.7503416 C93.1742829,60.0110935 88.5138573,55.512704 94.7229929,50.2119326 C94.7229929,50.2119326 85.6118131,45.662084 81.7328903,34.3324892 C76.4720416,18.9895552 85.8643719,9.87889907 85.2925405,9.54441444 L85.2591837,9.52106722 C87.6561102,8.51904275 90.0101494,8.07878092 92.3022401,8.08444366 L92.5119116,8.0864045 C108.423119,8.31940021 119.368925,26.9366623 115.161199,36.1211719 C119.926461,37.5505934 127.789142,42.3153318 124.453459,48.2712547 C131.601351,50.8918608 131.124825,67.3302081 127.789142,71.3802356 C135.890086,70.9037618 142.561452,83.0538446 130.996163,94.090408 L130.924684,94.1552084 C126.626418,98.2119067 121.732495,98.70601 116.481177,97.6606264 L116.352515,97.6353733 C115.037302,97.3690244 113.698264,97.0073808 112.349695,96.5675955 L112.240094,96.5342423 C107.703565,95.1119679 103.676919,98.2252479 98.8735356,96.5971368 C98.8735356,96.5971368 82.5572805,92.1092298 84.353784,77.8388385 C85.154348,71.5188895 89.0237402,62.8146655 89.0237402,62.8146655 Z M67.3370355,85.5839206 C69.6148305,87.5203103 72.2547853,89.0516972 74.1894814,90.0313274 L74.2228383,90.0508628 C75.7953745,90.8703978 76.8818541,91.3125655 76.8818541,91.3125655 C76.8818541,91.3125655 75.6857735,91.4483606 73.7701384,91.7961865 L72.2023674,92.0630118 L72.0689401,92.0892179 C67.5848291,92.9421061 60.8038621,94.6064292 55.4381777,97.5067254 C49.2433379,97.6634853 45.1690394,95.7575899 42.5243193,93.0269184 L42.4909624,92.9945182 C37.1109823,87.4478863 37.6446916,78.5349667 38.2832366,76.7801136 C33.9945013,74.1595075 34.7092905,71.3006645 37.0919212,68.4418215 C13.2656141,51.2887635 43.2867611,38.42397 43.2867611,38.42397 C33.2797121,23.1768073 50.1963902,20.5562012 57.4729443,16.3832434 L57.4729443,16.3965846 C53.5082468,20.4299356 50.5347237,25.7254658 49.1766242,31.8376722 C46.2793453,44.8268254 51.5258981,57.5577297 61.3185103,63.6747008 L61.3185103,63.6880421 C61.7616796,67.3244904 60.9325241,71.8643331 62.733793,79.1477121 C63.3342159,81.5677227 65.1545458,83.747114 67.3132092,85.5615264 L67.3370355,85.5839206 Z M64.191963,65.2065642 C65.7168466,65.9269926 67.3370355,66.475414 69.0382338,66.8537342 C70.0294082,67.0748181 71.0205826,67.2320545 72.011757,67.3068608 L72.1118274,67.314008 C73.4318049,71.646108 74.1990119,78.1618877 74.4468055,83.3645055 C67.637247,78.139017 65.1021279,69.9794026 64.191963,65.2065642 Z M60.7371484,13.5272592 C61.0421252,13.293787 60.7371484,13.5272592 60.7371484,13.5272592 L54.1658529,10.8680587 C62.7433235,-8.66736844 84.425263,2.76800357 85.2591837,9.52106722 L85.2353574,9.52440253 C70.372507,11.0414952 74.1799509,18.9681139 74.1799509,18.9681139 L60.7371484,13.5272592 Z" id="Shape" stroke="#000000" stroke-width="0.5" fill="#000000"></path>
                                <path d="M97.7727602,34.9719171 C97.7727602,34.9719171 104.310699,32.9831153 105.902296,36.7949059 C107.489128,40.6066966 102.566613,46.8008565 102.566613,46.8008565 L97.7727602,34.9719171 Z" id="Path" stroke="#000000" stroke-width="0.5" fill="#FFFFFF"></path>
                                <path d="M121.475171,244.328325 C121.475171,244.328325 118.925756,254.821232 116.700379,256.40932 C114.479767,257.997883 114.317748,255.297706 114.317748,255.297706 L115.432819,247.991933 L115.432819,239.891878 L121.475171,244.328325 Z" id="Path" stroke="#000000" stroke-width="0.5" fill="#FFFFFF"></path>
                                <path d="M126.883742,247.99765 C126.883742,247.99765 124.486816,260.538918 119.878808,266.097938 C116.385871,263.239095 117.972703,261.809674 117.972703,261.809674 C117.972703,261.809674 122.437753,247.812302 121.475171,244.328325 C125.754375,245.450421 126.883742,247.99765 126.883742,247.99765 Z" id="Path" stroke="#000000" stroke-width="0.5" fill="#FFFFFF"></path>
                                <path d="M1.93382245,245.465192 C1.93382245,245.465192 -0.820498658,251.03803 0.447060881,255.485437 C1.71938568,259.932367 2.99171048,261.996928 2.99171048,261.996928 L4.91211084,258.347615 L4.10201639,252.308786 L5.53159482,248.63279 L1.93382245,245.465192 Z" id="Path" stroke="#000000" stroke-width="0.5" fill="#FFFFFF"></path>
                                <line x1="29.6771745" y1="191.941457" x2="39.0456784" y2="125.010701" id="Path" stroke="#000000" stroke-width="0.5"></line>
                                <path d="M81.4469746,341.176397 L102.40936,349.74292 L115.151669,248.040533 L81.9092049,248.01528 L81.4469746,341.176397 Z M38.3690113,341.852513 C35.7862396,333.619998 33.9230224,326.626316 33.4846183,322.486234 C32.2504156,310.827396 34.2279991,275.49972 36.1102774,247.980497 L69.2622011,248.005751 C64.5541228,278.563923 58.9120533,318.605831 60.6466085,324.39213 C61.204144,326.252284 62.0523606,330.454783 63.0340044,336.017138 L38.3690113,341.852513 Z" id="Shape" stroke="#000000" stroke-width="0.5" fill="#FFFFFF"></path>
                                <polygon id="Path" stroke="#000000" stroke-width="0.5" fill="#FFFFFF" points="104.568023 384.925748 102.185392 406.605307 79.7886636 406.36707 75.2616652 385.163985"></polygon>
                                <path d="M60.5084159,446.70058 C62.4383468,438.97694 68.1090078,418.536212 75.9812197,409.616622 L76.0384029,409.549916 C77.2297182,408.182436 78.4877472,407.096075 79.7886636,406.36707 C89.5574495,407.081781 102.185392,406.605307 102.185392,406.605307 C102.185392,406.605307 121.246438,437.814343 119.340333,452.108559 C109.809811,452.585032 59.7745656,449.726189 59.7745656,449.726189 C59.7745656,449.726189 59.9937676,448.739888 60.4226412,447.057936 L60.5084159,446.70058 Z" id="Path" stroke="#000000" stroke-width="0.5" fill="#FFFFFF"></path>
                                <path d="M54.003834,386.140756 C49.0289011,373.009137 42.6911034,355.684549 38.3690113,341.852513 L63.0340044,336.017138 C65.1164237,347.474905 67.856449,364.699434 70.0722956,379.060355 L73.9893404,404.91859 L63.1912581,384.373038 L54.003834,386.140756 Z M81.2277725,385.116337 L97.9919622,384.982925 L102.40936,349.74292 L81.4469746,341.176397 L81.2277725,385.116337 Z" id="Shape" stroke="#000000" stroke-width="0.5" fill="#000000"></path>
                                <polygon id="Path" stroke="#000000" stroke-width="0.5" fill="#FFFFFF" points="63.1912581 384.373038 73.9893404 404.91859 48.8954738 408.19673 37.2205833 389.376014"></polygon>
                                <path d="M45.2691098,416.139549 C47.4849564,413.142528 48.8954738,410.164567 48.8954738,408.19673 L73.9893404,404.91859 C74.7231907,406.543366 75.385562,408.1062 75.9812197,409.616622 C67.9898763,418.679154 62.2572668,439.624944 60.4226412,447.057936 C47.4849564,447.105583 27.3231353,447.105583 21.0186945,446.791111 C18.2977302,438.838762 26.0508105,431.258064 32.6602281,426.95074 L32.6602281,426.998387 L55.3762293,426.998387 L55.3762293,424.458782 L36.7726487,424.458782 L37.8829546,423.691659 C38.2975324,423.367657 38.7168754,423.043655 39.1314531,422.714888 L39.8748339,422.076413 L54.1039045,422.076413 L54.1039045,420.170517 L41.8857742,420.170517 L42.6482161,419.374806 L43.9872545,417.788148 L53.1937396,417.788148 L53.1937396,416.139549 L45.2691098,416.139549 Z" id="Path" stroke="#000000" stroke-width="0.5" fill="#FFFFFF"></path>
                                <g transform="translate(23.105879, 416.139549)">
                                    <line x1="0" y1="19.9747492" x2="30.2832364" y2="19.9747492" id="Path" stroke="#000000" stroke-width="0.5"></line>
                                    <line x1="42.6729161" y1="23.4339492" x2="88.4194257" y2="23.4339492" id="Path" stroke="#000000" stroke-width="0.5"></line>
                                    <path d="M13.6667698,8.31923314 L32.2703504,8.31923314 L32.2703504,10.8588387 L9.55434916,10.8588387 L9.55434916,10.8111913 L12.2085998,9.21023921 C12.6994217,8.93864912 13.1854784,8.64323535 13.6667698,8.31923314 Z" id="Path" fill="#000000"></path>
                                    <path d="M18.7798953,4.03096863 L30.9980256,4.03096863 L30.9980256,5.93686397 L16.768955,5.93686397 C17.4599179,5.3317422 18.136585,4.69326726 18.7798953,4.03096863 Z" id="Path" fill="#000000"></path>
                                    <polygon id="Path" fill="#000000" points="22.1632309 0 21.5913995 0.810005518 20.8813756 1.64859947 30.0878606 1.64859947 30.0878606 0"></polygon>
                                    <rect id="Rectangle" fill="#000000" x="56.7304373" y="8.79570697" width="22.7145716" height="2.54103496"></rect>
                                    <rect id="Rectangle" fill="#000000" x="58.4792882" y="4.50744247" width="19.696255" height="1.90589534"></rect>
                                    <rect id="Rectangle" fill="#000000" x="60.2233739" y="0.476473834" width="17.0415279" height="1.64907594"></rect>
                                </g>
                            </g>
                        </g>
                        <g id="Group" transform="translate(520.495446, 168.615411)">
                            <path d="M55.0996098,158.191419 C48.770384,153.503223 41.0533038,145.226826 41.6582659,133.094346 C42.1005492,124.251685 49.7261225,114.351219 58.2006763,105.987392 C61.3119102,111.2998 64.3316372,115.628617 67.2141039,119.210209 C68.6273768,115.208748 69.7051245,112.337781 69.7051245,112.337781 L85.9730142,127.248715 C85.9730142,127.248715 85.1850383,130.80235 83.7870166,134.474423 C91.5193479,139.832071 96.0184361,142.005629 94.9559396,153.172818 C92.9224534,174.522079 76.9900889,200.615452 101.732532,213.492615 C108.021089,216.764643 113.608092,216.713811 118.437622,214.796444 L118.554547,214.751204 L150.282016,324.730908 L61.4898402,324.730908 L61.6626866,318.854778 L61.9422909,318.742949 L64.1435397,317.833063 L66.2787003,316.953677 L66.390542,316.902846 L66.532886,316.841848 L68.8053069,315.804884 L70.9353837,314.839084 L71.0268906,314.788252 L71.1488998,314.732337 L73.4060694,313.573377 L75.4446394,312.53133 L75.5513974,312.470332 L75.612402,312.43475 L76.6393125,311.85527 L77.5899673,311.311372 L77.6560556,311.270707 L77.7323114,311.224959 L78.7236359,310.61498 L79.6285373,310.055832 L79.6844581,310.02025 L79.7505464,309.979585 L80.6910338,309.339107 L81.5400143,308.76471 L81.5857677,308.729128 L81.6366049,308.693546 L82.5211714,308.022569 L83.2989799,307.438006 L83.3345659,307.407507 L83.3752356,307.377008 L84.1886301,306.675533 L84.8850991,306.080803 L84.9105177,306.055388 L84.94102,306.029972 L85.673075,305.297997 L86.2729535,304.698184 L86.2932883,304.672769 L86.3136232,304.652436 L86.9541713,303.879796 L87.4472917,303.285067 L87.4574592,303.269817 L87.4727103,303.254568 L88.0065005,302.426013 L88.372528,301.856699 L88.3776117,301.846533 L88.3877791,301.831284 L88.8148112,300.8909 L89.0384947,300.402916 L89.0384947,300.397833 C89.211341,299.914933 89.3384339,299.42695 89.4096059,298.938967 L89.4096059,298.938967 L90.2941724,298.044331 C97.040263,291.237983 99.9328971,285.250024 100.700538,279.933041 C101.824039,272.247307 98.5145405,265.949275 95.9726827,260.571294 C95.1135348,258.76169 94.34081,257.053749 93.8527733,255.427139 C93.8527733,255.427139 92.7902768,247.802403 92.7902768,247.802403 L92.6581002,246.91285 L92.6021793,246.521447 L92.0429706,242.881906 L90.8889672,235.267336 L90.5737768,233.289988 L90.3297585,231.68371 L90.3145073,231.632879 C85.7645819,202.341692 78.2966038,156.40164 75.9428435,141.983263 L75.2107885,137.49941 C75.2107885,137.49941 73.3298137,138.398621 70.7066165,140.058272 L70.6201933,140.113678 L70.3812587,140.273289 L68.749386,141.346852 L68.4494468,141.566444 L68.195261,141.73673 L70.1575752,139.612479 C70.1524915,139.611462 68.1901773,141.754521 68.1901773,141.754521 C66.177026,143.163064 63.9910283,144.911162 61.9727932,146.9429 L61.8253655,147.090312 C58.7497176,150.181888 56.1011018,153.937325 55.0996098,158.191419 Z" id="Path" stroke="#000000" stroke-width="0.5" fill="#FFFFFF"></path>
                            <path d="M75.9428435,141.983263 C78.2966038,156.40164 85.7645819,202.341692 90.3145073,231.632879 L90.8889672,235.267336 L92.7902768,247.802403 L93.8527733,255.427139 L93.8985268,255.579634 C94.3865635,257.155412 95.1389534,258.817605 95.9726827,260.571294 C96.2522871,261.155857 96.5369751,261.75567 96.8267469,262.365649 C97.1012675,262.940046 97.3707045,263.519526 97.6452251,264.114255 C97.8384063,264.546323 98.0315875,264.983475 98.2247687,265.42571 C98.8500657,266.884576 99.434693,268.409523 99.8973111,270.000551 L99.9379808,270.14288 L100.105743,270.757942 C100.344678,271.657661 100.537859,272.577712 100.680203,273.518096 L100.705622,273.726506 C100.863217,274.854967 100.944556,276.01901 100.924222,277.218635 C100.914054,277.635454 100.893719,278.052273 100.863217,278.469092 C100.832715,278.890994 100.786961,279.323062 100.725957,279.750048 L100.700538,279.933041 C99.9379808,285.255107 97.0453467,291.243067 90.2941724,298.044331 L89.4096059,298.938967 L89.0384947,300.397833 L88.8148112,300.8909 L88.3776117,301.846533 L88.0065005,302.426013 L87.4574592,303.269817 L86.9541713,303.879796 L86.2932883,304.672769 L85.673075,305.297997 L84.9105177,306.055388 L84.1886301,306.675533 L83.3345659,307.407507 L82.5211714,308.022569 L81.5857677,308.729128 L80.6910338,309.339107 L79.6844581,310.02025 L78.7236359,310.61498 L77.6560556,311.270707 L76.6393125,311.85527 L75.5513974,312.470332 L73.4060694,313.573377 L71.0268906,314.788252 L68.8053069,315.804884 L66.390542,316.902846 L64.1435397,317.833063 L61.6626866,318.854778 C52.7051798,322.397739 45.0491042,324.558081 45.0491042,324.558081 C45.0491042,324.558081 29.1980792,312.297505 31.1553097,311.682443 C38.582618,262.263986 52.166306,170.709711 55.0945261,158.208194 L55.1453633,157.99216 C56.1824412,153.820412 58.8005547,150.133598 61.8253655,147.090312 L61.9727932,146.9429 C63.9910283,144.911162 66.177026,143.163064 68.1901773,141.754521 L68.4494468,141.566444 L70.3812587,140.273289 L70.7066165,140.058272 L71.0980626,139.812247 C73.5179112,138.309665 75.2107885,137.49941 75.2107885,137.49941 L75.9428435,141.983263 Z" id="Path" stroke="#000000" stroke-width="0.5" fill="#FFFFFF"></path>
                            <path d="M33.6768326,315.093242 C33.6768326,315.093242 14.8721688,317.644987 11.0593822,317.644987 C7.2465955,317.644987 2.9254373,316.374197 0.129393755,321.457355 C-2.66664979,326.540512 40.7787832,321.167615 40.7787832,321.167615 L33.6768326,315.093242 Z" id="Path" stroke="#000000" stroke-width="0.5" fill="#FFFFFF"></path>
                            <polygon id="Path" stroke="#000000" stroke-width="0.5" fill="#FFFFFF" points="36.849071 317.807648 24.0228568 325.523881 28.8523865 330.098722 45.0491042 324.558081"></polygon>
                            <path d="M276.73944,302.98516 C278.401815,307.107601 278.920354,311.529948 277.542667,316.08954 C274.644949,325.691625 266.882115,325.183309 266.882115,325.183309 L154.85736,324.222592 L154.847192,324.110763 C154.618425,321.818259 151.161499,284.9857 162.650696,276.7764 C168.674899,272.476049 185.542667,267.286145 185.542667,267.286145 L249.755078,276.908562 C249.755078,276.908562 270.567809,287.939014 276.668268,302.80725 L276.73944,302.98516 Z" id="Shape" stroke="#000000" stroke-width="0.5" fill="#000000"></path>
                            <g transform="translate(399.122888, 302.871007) rotate(6.129408) translate(-399.122888, -302.871007) translate(350.664109, 281.713995)" fill="#FFFFFF" id="Path" stroke="#000000" stroke-width="0.5">
                                <path d="M9.153335,10.9840842 C22.6970778,6.08333059 50.3859161,-0.232841496 59.8638752,0.00660900377 C70.507288,0.272665115 87.5367485,1.33688956 95.5193081,19.4287051 C103.379468,37.2385012 75.7438471,38.9359392 71.1299277,39.2924544 C67.0960742,39.6010795 12.144134,48.8385477 -1.4259391e-14,33.4019721 L19.5625927,32.9496767 L20.2171626,15.2409819 L9.153335,10.9840842 Z"></path>
                            </g>
                            <path d="M140.516198,26.817214 C146.08795,26.855846 151.207252,28.2776051 151.822382,28.454499 L151.827465,28.4550073 L151.88847,28.5078722 L152.635776,49.2435965 L153.835533,81.3442444 C152.808622,82.4320401 151.71054,83.4405385 150.556536,84.3707563 L148.894161,85.6217214 C147.862167,86.3572543 146.779336,87.0328059 145.660918,87.628552 L145.437235,87.7464812 C140.933063,90.1909717 135.834096,91.5568161 130.440274,91.5568161 C124.166969,91.5568161 118.300361,89.7116299 113.292902,86.4833166 L111.889796,85.5561487 L105.799505,63.7092461 C105.799505,63.7092461 106.257039,63.2421039 107.039931,62.4049079 L107.472047,61.9377657 L107.812656,61.5672035 L108.493874,60.8220126 C108.661637,60.6324109 108.84465,60.4341677 109.027664,60.2282998 C109.159841,60.0824132 109.292017,59.9319518 109.429278,59.7779321 C109.673296,59.5044582 109.922398,59.2187848 110.181668,58.9224367 L110.74596,58.2789089 L111.162825,57.7939757 L114.441821,53.8392792 C117.08027,50.5443765 119.881397,46.7289585 122.163985,42.8799916 C123.861946,40.0618891 125.270135,37.2224374 126.134367,34.5654709 C126.454641,33.5839132 126.881673,32.7187598 127.405296,31.9659442 C128.269527,30.6849885 129.387945,29.698856 130.663957,28.9445154 C131.197748,28.6339345 131.756956,28.3640188 132.3365,28.1362933 C132.931295,27.89586 133.551508,27.694567 134.192056,27.5471554 C135.356227,27.2355578 136.576319,27.0403646 137.806578,26.9173522 L139.977324,26.8177223 C140.068831,26.8161973 140.160338,26.8161973 140.251845,26.8161973 L140.516198,26.817214 Z" id="Path" stroke="#000000" stroke-width="0.5" fill="#FFFFFF"></path>
                            <path d="M150.353188,117.055459 C142.7632,121.049804 134.141219,122.939722 125.412479,123.312318 L113.292902,86.4873831 C118.300361,89.7126465 124.172053,91.5568161 130.440274,91.5568161 C135.834096,91.5568161 140.933063,90.1909717 145.437235,87.7464812 C145.437235,87.7464812 140.755133,93.9032016 140.755133,93.9032016 C135.671417,100.765464 139.484204,111.185937 144.822105,118.302358 C145.071207,118.633271 145.335561,118.939277 145.630416,119.216309 C147.241954,118.581931 148.817906,117.864189 150.353188,117.055459 Z" id="Path" stroke="#000000" stroke-width="0.5" fill="#FFFFFF"></path>
                            <path d="M153.835533,81.3493275 L154.928532,110.003595 L155.096294,114.193133 L155.045457,114.224649 L153.072976,115.503063 L152.473097,115.864475 L150.815806,116.804351 L150.353188,117.055459 C148.817906,117.864189 147.241954,118.581931 145.630416,119.216309 C145.335561,118.939277 145.071207,118.633271 144.822105,118.302358 C139.484204,111.185937 135.671417,100.765464 140.755133,93.9032016 L145.437235,87.7464812 C145.437235,87.7464812 146.865759,86.9535087 146.865759,86.9535087 L147.069108,86.8193133 C147.694405,86.4451929 148.30445,86.0431152 148.894161,85.6217214 L153.835533,81.3493275 Z" id="Path" stroke="#000000" stroke-width="0.5" fill="#000000"></path>
                            <path d="M224.128068,272.516714 L224.15857,272.623461 L223.655282,272.999614 L185.542667,267.286145 C185.542667,267.286145 168.674899,272.476049 162.650696,276.7764 C152.274832,284.192727 154.089719,314.955996 154.704848,322.529901 L154.85736,324.222592 L150.282016,324.730908 L118.554547,214.751204 L121.223498,213.594278 C134.639423,207.343519 148.843324,194.515663 148.843324,194.515663 L125.407396,123.298085 C132.372086,123.004787 139.270688,121.746705 145.630416,119.216309 L145.706672,119.18581 C149.006003,117.880964 152.157907,116.228429 155.096294,114.193641 L155.43182,122.33686 L155.482657,123.666105 C156.585823,151.551291 157.729659,177.777333 158.502384,189.771552 C161.079828,189.311526 172.035235,183.528418 182.944888,173.696575 L189.0911,204.037942 L224.128068,272.516714 Z" id="Path" stroke="#000000" stroke-width="0.5" fill="#FFFFFF"></path>
                            <path d="M182.690702,173.925317 C171.867472,183.617373 161.059493,189.315084 158.502384,189.771552 C157.638152,176.426738 156.32147,145.462176 155.096294,114.193641 L154.928532,110.003595 L153.835533,81.3493275 C158.67523,76.2992106 158.67523,76.2971773 153.835533,81.3442444 L152.635776,49.2435965 L151.88847,28.5078722 C154.908197,31.1933043 152.630692,29.1422502 151.88847,28.4794065 L151.88847,28.4727984 L151.873219,28.4697485 C147.841832,24.8637565 150.485364,27.2533489 151.827465,28.4550073 L151.822382,28.454499 C151.186917,28.2715053 145.747341,26.7628242 139.977324,26.8177223 L137.806578,26.9173522 C136.576319,27.0220652 135.351143,27.2142086 134.192056,27.5471554 C133.556592,27.7093081 132.936378,27.9065346 132.3365,28.1362933 C131.756956,28.367577 131.197748,28.6359677 130.663957,28.9445154 C129.382861,29.6917395 128.264444,30.6773638 127.405296,31.9659442 C126.881673,32.7187598 126.454641,33.5839132 126.134367,34.5654709 C125.270135,37.2224374 123.861946,40.0618891 122.163985,42.8799916 C118.879905,48.3926759 114.543496,53.8489372 111.162825,57.7939757 C108.087177,61.3740435 105.799505,63.7092461 105.799505,63.7092461 L111.889796,85.5561487 L113.292902,86.4833166 L148.843324,194.515663 C148.843324,194.515663 134.639423,207.343519 121.223498,213.594278 L119.662797,214.269829 C119.728885,214.23933 119.794974,214.208323 119.861062,214.177316 L118.554547,214.751204 L118.437622,214.796444 C113.608092,216.713811 108.021089,216.764643 101.732532,213.492615 C76.9900889,200.615452 92.9224534,174.522079 94.9559396,153.172818 C96.2421196,139.664835 89.3892711,139.316131 78.525371,130.572591 L75.6022346,128.11031 C75.022691,127.573528 74.4431474,127.036239 73.8636038,126.499457 L72.3079869,124.952652 L72.1046383,124.743735 C67.8749869,120.39916 63.2589732,114.574878 58.4294435,106.379812 L58.2006763,105.987392 L56.3197015,102.679781 C33.9513532,62.0145214 78.6880499,53.8814694 78.6880499,53.8814694 C78.6880499,53.8814694 118.341031,0 139.352027,0 C156.311302,0 154.059216,18.5428502 152.55952,25.6994276 C153.561012,24.5821496 155.833433,23.763253 160.871395,24.7382026 C171.379435,26.7714656 167.988597,42.6985229 168.669815,52.8648379 C197.728333,65.2341933 177.820503,89.8026184 177.820503,89.8026184 L178.577976,90.3683739 L178.776241,90.518327 C183.132986,93.8452536 200.946325,108.527954 204.296493,128.171308 L204.6066,130.360115 C205.57759,138.659895 203.85421,147.771455 197.474147,157.239344 C196.482823,158.714985 195.440661,160.148943 194.342578,161.530037 L195.12547,160.512389 L192.548027,163.763577 L192.156581,164.25156 L189.919746,166.770773 L188.618315,168.169149 L187.266046,169.560409 L186.910186,169.919789 C185.598588,171.23531 184.271738,172.493391 182.944888,173.695558 L182.690702,173.925317 Z M186.035787,170.799175 L187.266046,169.560918 L186.035787,170.799175 Z" id="Shape" stroke="#000000" stroke-width="0.5" fill="#000000"></path>
                            <path d="M246.562504,230.245177 C251.056509,230.931403 255.64202,232.481766 260.090271,234.759021 C273.984066,241.875441 295.335671,261.19144 295.335671,261.19144 L347.870787,277.793032 L326.178573,312.699074 L276.749607,302.990244 L276.73944,302.98516 C270.735572,288.025428 249.755078,276.908562 249.755078,276.908562 L224.29583,273.096194 L224.15857,272.623461 L224.133151,272.531964 L249.25179,261.476096 C250.187193,258.258458 248.956934,246.170709 246.562504,230.245177 Z" id="Path" stroke="#000000" stroke-width="0.5" fill="#000000"></path>
                            <path d="M224.133151,272.531964 L189.0911,204.037942 L182.944888,173.695558 C184.398831,172.391728 185.84769,171.016226 187.266046,169.560918 L188.216701,168.600709 L188.618315,168.168133 L189.289365,167.480381 L189.919746,166.770773 L190.356945,166.296514 L189.919746,166.770773 L192.156581,164.25156 L192.548027,163.763577 L192.466687,163.867273 C192.919138,163.322358 193.371589,162.770836 193.813872,162.211689 L194.342578,161.530037 C195.440661,160.148943 196.482823,158.714985 197.474147,157.239344 C203.85421,147.771455 205.57759,138.659895 204.6066,130.360115 L204.296493,128.171308 C200.890404,108.216865 182.563609,93.3811613 178.577976,90.3683739 C183.417674,86.7913559 189.533383,83.9295383 196.716673,85.6003721 C211.291686,88.9893132 221.377777,112.683435 224.168737,121.182475 C229.770992,138.209527 240.985668,193.284522 246.435411,229.396289 L246.562504,230.245177 C248.956934,246.170709 250.187193,258.258458 249.25179,261.476096 L224.133151,272.531964 Z" id="Path" stroke="#000000" stroke-width="0.5" fill="#FFFFFF"></path>
                            <g transform="translate(136.657658, 46.379593)" fill="#FFFFFF" id="Oval" stroke="#000000" stroke-width="0.5">
                                <ellipse cx="9.15068796" cy="8.64136773" rx="9.15068796" ry="8.64136773"></ellipse>
                            </g>
                            <g transform="translate(111.239080, 46.379593)" fill="#FFFFFF" id="Oval" stroke="#000000" stroke-width="0.5">
                                <ellipse cx="9.15068796" cy="8.64136773" rx="9.15068796" ry="8.64136773"></ellipse>
                            </g>
                            <polygon id="Path" stroke="#000000" stroke-width="0.5" fill="#FFFFFF" points="243.395349 264.05834 262.225432 272.496382 264.248751 286.99863 249.755078 276.908562 224.133151 272.531964"></polygon>
                            <polygon id="Path" stroke="#000000" stroke-width="0.5" fill="#000000" points="33.6412465 295.106266 61.6626866 318.854778 75.5513974 312.470332 36.3915367 276.761151"></polygon>
                            <polygon id="Path" stroke="#000000" stroke-width="0.5" fill="#000000" points="211.850895 248.529294 244.488348 217.125547 246.435411 229.396289 217.336224 259.24459"></polygon>
                            <path d="M368.332742,292.259698 C368.332742,292.259698 408.722862,286.220907 417.87355,291.81238 C427.024238,297.403853 434.649812,306.553537 432.107954,314.432431 C429.566096,322.311325 364.235268,313.527629 364.362175,311.113129 L369.135969,311.514699 L371.677827,293.977805 L368.332742,292.259698 Z" id="Path" stroke="#000000" stroke-width="0.5" fill="#000000"></path>
                            <polygon id="Path" fill="#FFFFFF" points="385.032748 298.110412 382.795913 294.013387 379.491498 295.030019 382.938257 301.55171 379.771102 306.756863 382.307876 309.105282 384.814148 305.104837 386.6087 308.500386 390.421486 307.992071 386.969644 301.668623 390.396068 296.199145 388.047391 293.154334"></polygon>
                            <g transform="translate(392.454973, 294.170965)" fill="#FFFFFF" id="Path">
                                <polygon points="5.54124993 4.95607855 3.3044151 0.859053616 0 1.87568511 3.44675913 8.39737617 0.279604354 13.6025294 2.81637841 15.9509482 5.32265016 11.9505033 7.11720175 15.3460525 10.9299884 14.8377367 7.47814555 8.5142888 10.9045698 3.04481134 8.55589324 0"></polygon>
                            </g>
                            <path d="M329.015286,308.139482 L346.005064,280.792095 L371.677827,293.977805 C371.677827,293.977805 375.297433,298.262907 374.229852,303.77305 C373.055514,309.867756 369.135969,311.514699 369.135969,311.514699 L329.015286,308.139482 Z" id="Path" stroke="#000000" stroke-width="0.5" fill="#FFFFFF"></path>
                            <polygon id="Path" fill="#000000" points="203.132322 231.475301 125.981855 210.904779 119.205263 214.293212 121.579358 222.762769"></polygon>
                            <polygon id="Path" fill="#000000" points="206.167301 237.407346 127.339208 242.083851 129.032085 248.18364"></polygon>
                            <polygon id="Path" fill="#000000" points="208.475307 241.926273 135.981524 274.951547 139.372362 285.458433"></polygon>
                        </g>
                        <g id="Layer1" transform="translate(256.208086, 183.467576)">
                            <g id="Group" transform="translate(53.025941, 286.214756)">
                                <g transform="translate(31.533533, 20.388740)">
                                    <path d="M25.9254241,0 C28.7504448,2.51616296 30.5022932,6.02862478 30.5022932,9.91215711 C30.5022932,17.5826418 23.6687628,23.8095097 15.2511466,23.8095097 C6.83403879,23.8095097 0,17.5826418 0,9.91215711 C0,6.02862478 1.75184837,2.51616296 4.57737747,0 L25.9254241,0 Z" id="Path" fill="#FFFFFF"></path>
                                    <g id="Clipped">
                                        <mask id="mask-4" fill="white">
                                            <use xlink:href="#path-3"></use>
                                        </mask>
                                        <g id="Path"></g>
                                        <g id="Group" mask="url(#mask-4)" fill="#FFFFFF" stroke="#000000" stroke-width="0.5">
                                            <g transform="translate(10.489605, 2.796356)" id="Oval">
                                                <ellipse cx="7.81156103" cy="7.11633201" rx="7.81156103" ry="7.11633201"></ellipse>
                                            </g>
                                        </g>
                                    </g>
                                    <path d="M25.9254241,0 C28.7504448,2.51616296 30.5022932,6.02862478 30.5022932,9.91215711 C30.5022932,17.5826418 23.6687628,23.8095097 15.2511466,23.8095097 C6.83403879,23.8095097 0,17.5826418 0,9.91215711 C0,6.02862478 1.75184837,2.51616296 4.57737747,0 L25.9254241,0 Z" id="Path" stroke="#000000" stroke-width="0.5"></path>
                                </g>
                                <g transform="translate(72.203257, 16.407103)">
                                    <ellipse id="Oval" fill="#FFFFFF" cx="15.2511466" cy="13.8937944" rx="15.2511466" ry="13.8937944"></ellipse>
                                    <g id="Clipped">
                                        <mask id="mask-6" fill="white">
                                            <use xlink:href="#path-5"></use>
                                        </mask>
                                        <g id="Oval"></g>
                                        <g id="Group" mask="url(#mask-6)" fill="#FFFFFF" stroke="#000000" stroke-width="0.5">
                                            <g transform="translate(10.489605, 6.777994)" id="Oval">
                                                <ellipse cx="7.81156103" cy="7.11633201" rx="7.81156103" ry="7.11633201"></ellipse>
                                            </g>
                                        </g>
                                    </g>
                                    <ellipse id="Oval" stroke="#000000" stroke-width="0.5" cx="15.2511466" cy="13.8937944" rx="15.2511466" ry="13.8937944"></ellipse>
                                </g>
                                <path d="M10.8585704,17.7827731 C4.3254876,12.9944388 -7.17184345,3.01620064 6.15765868,0.398374533 C9.77167205,-0.313267516 15.1182157,-0.0286106962 21.4037216,0.91177344 L21.6726501,0.947355542 C33.0896585,2.6502133 47.5446952,6.43716563 60.3693844,10.224118 L222.046281,10.224118 L222.046281,20.3904329 L57.4589572,20.3904329 C57.3298309,20.2735203 14.630179,20.3904329 14.630179,20.3904329 C14.630179,20.3904329 13.0903216,19.4195499 11.0115903,17.8946026 L10.8585704,17.7827731 Z" id="Path" stroke="#000000" stroke-width="0.5" fill="#FFFFFF"></path>
                            </g>
                            <path d="M292.758468,130.298413 C297.150798,134.731943 300.683981,142.072531 302.564956,153.579274 C311.207272,206.441571 310.6989,210.508097 310.6989,210.508097 L302.930983,217.558436 C302.930983,217.558436 290.328452,212.571859 278.905343,225.54916 C272.616787,233.311141 272.016909,245.602216 272.016909,245.602216 L259.749903,256.729248 L259.719401,256.708915 C247.97246,241.210368 229.723954,217.309361 224.785125,211.697556 C221.827419,208.337588 219.296237,205.643515 215.880997,203.661084 L215.717301,203.569587 L248.170216,140.099249 C248.170216,140.099249 283.246836,135.449177 286.978284,134.093498 C288.589822,133.506394 290.969,132.600575 292.758468,130.298413 Z" id="Path" stroke="#000000" stroke-width="0.5" fill="#FFFFFF"></path>
                            <path d="M272.021993,245.566634 C272.062662,244.839742 272.809969,233.072233 278.905343,225.54916 C290.328452,212.571859 302.930983,217.558436 302.930983,217.558436 L312.844228,271.180664 C301.944742,256.617418 285.11256,265.406198 278.259712,273.859488 L272.016909,245.602216 L272.021993,245.566634 Z" id="Path" stroke="#000000" stroke-width="0.5" fill="#FFFFFF"></path>
                            <path d="M192.658584,34.0193436 C191.162447,35.8741878 190.39023,37.0560219 190.39023,37.0560219 L190.361762,35.9641597 C190.284489,31.0711123 190.51224,11.1659759 199.112361,5.82866052 C208.940708,-0.271128469 233.800077,-5.45950732 246.958767,11.3672689 C247.392916,11.922858 247.797071,12.4764139 248.171741,13.0325113 C231.739647,8.77130039 218.265259,13.4127315 208.477582,19.7255048 L194.919313,31.378135 L194.359087,31.9901472 L192.730773,33.9303884 L192.658584,34.0193436 Z" id="Path" stroke="#000000" stroke-width="0.5"></path>
                            <path d="M195.681362,30.5424639 C198.354888,27.6470974 202.011096,24.1829256 206.566613,21.0054438 C216.477317,14.0730337 230.642073,8.48664357 248.171741,13.0325113 L250.374515,13.6226659 C260.45654,16.6725604 271.747472,23.4504426 265.42333,29.211185 C262.429021,31.9372823 246.958767,43.7830726 246.958767,43.7830726 L245.793071,43.6443024 L245.672078,43.2249419 C245.648185,43.1436113 245.623783,43.0627891 245.598364,42.9809503 C245.426026,42.4167198 245.793071,43.6443024 245.793071,43.6443024 C245.793071,43.6443024 238.087683,33.1084418 224.107465,30.3127052 C210.145041,27.5205268 194.703255,32.9579804 192.743482,33.9268302 C193.529425,32.9523889 194.51109,31.8005454 195.681362,30.5424639 Z" id="Path" stroke="#000000" stroke-width="0.5" fill="#000000"></path>
                            <path d="M278.64099,273.422337 L278.341051,273.757825 L278.259712,273.859488 C274.665525,278.286919 272.581201,292.158855 271.422114,304.348267 L260.710726,300.479984 C260.710726,300.479984 281.045588,290.313669 270.029176,270.321611 L278.64099,273.422337 Z" id="Path" stroke="#000000" stroke-width="0.5"></path>
                            <path d="M303.881638,311.662931 L270.588385,314.687409 C270.791733,311.607016 271.06117,308.053889 271.422114,304.348267 L271.472951,303.77387 C272.642206,291.726787 274.726529,278.220838 278.259712,273.859488 L278.341051,273.757825 L278.64099,273.422337 L278.72233,273.325757 C285.829364,265.045293 302.173509,256.927491 312.844228,271.180664 L313.052661,271.455155 C314.81671,273.823906 316.54009,276.314654 318.187213,278.861315 C317.841521,279.064642 317.841521,279.064642 318.187213,278.861315 C324.801127,288.895468 330.464386,299.676845 333.860308,306.549274 C327.520915,300.69856 319.46831,294.309031 314.59811,294.222617 C305.615185,294.059956 303.881638,311.662931 303.881638,311.662931 Z" id="Path" stroke="#000000" stroke-width="0.5" fill="#000000"></path>
                            <path d="M337.139305,322.205399 C336.885119,323.150867 336.62585,323.694764 336.62585,323.694764 L270.029176,325.051968 C270.029176,325.051968 270.166436,320.787198 270.588385,314.687409 L303.881638,311.662931 L303.891805,311.617182 C303.998563,310.585301 305.894789,294.065039 314.59811,294.222617 L315.548765,294.309031 C316.463834,294.456443 317.470409,294.786848 318.532906,295.264665 C319.503896,295.69165 320.525722,296.235548 321.572968,296.881109 C325.578936,299.285442 330.032271,303.01648 333.860308,306.549274 L336.290324,311.495187 C338.369564,315.887035 337.769686,319.963727 337.164723,322.108819 L337.139305,322.205399 Z" id="Path" stroke="#000000" stroke-width="0.5" fill="#FFFFFF"></path>
                            <path d="M236.217892,74.9489278 C232.961773,77.7187403 229.103233,79.7952101 224.864939,80.9511201 L224.805459,80.9673862 C222.241742,81.7115605 219.532121,82.0927973 216.734044,82.0927973 C211.1628,82.0927973 205.941316,80.5820829 201.472222,77.9200333 L201.41986,77.8895344 C192.492855,72.6579487 186.50983,62.9577592 186.50983,51.8719011 C186.50983,46.4873123 187.92107,41.4305873 190.411074,37.0580552 L190.544267,36.8394794 C190.840139,36.4058861 191.579311,35.3582473 192.743482,33.9268302 C194.703255,32.9579804 210.145041,27.5205268 224.107465,30.3127052 C238.087683,33.1084418 245.793071,43.6443024 245.793071,43.6443024 L245.829165,43.7668064 L245.992861,44.4210088 L247.177366,44.9872726 L236.217892,74.9489278 Z" id="Path" stroke="#000000" stroke-width="0.5"></path>
                            <path d="M247.833166,43.1949512 C254.783113,39.6580902 260.578549,37.2695145 263.161076,36.6188704 C263.750787,36.4704422 264.299829,36.4033445 264.813284,36.4013112 L264.920042,36.4013112 C269.007349,36.4597676 270.659557,40.6853964 270.659557,40.6853964 C270.659557,40.6853964 288.960933,93.8892809 293.704039,111.849601 C296.37299,121.94831 295.076643,127.332899 292.763552,130.349753 L292.707631,130.420409 C290.918163,132.722571 288.538984,133.627881 286.927447,134.215494 C283.195999,135.571172 248.119379,140.220736 248.119379,140.220736 L248.111753,140.181088 C247.964326,139.365241 245.619208,126.167331 246.907929,118.288437 C248.237829,110.155385 260.151517,108.46066 260.151517,108.46066 L252.475615,64.0679208 L239.477062,78.0262713 L236.166547,75.0897312 L247.833166,43.1949512 Z M237.663701,74.1192284 C237.330751,74.4430865 236.993996,74.7618843 236.651533,75.0746098 C236.993996,74.7618843 237.330751,74.4430865 237.663701,74.1192284 Z" id="Shape" stroke="#000000" stroke-width="0.5" fill="#FFFFFF"></path>
                            <g id="Group" transform="translate(318.568492, 272.563283)" fill="#000000" stroke="#000000" stroke-width="0.5">
                                <path d="M11.2604299,0 C-3.89920981,13.8770199 22.8258827,26.0511821 22.8258827,26.0511821 L18.4742222,39.60288 L18.103111,38.6777453 C18.103111,38.6777453 6.61391391,16.0780271 0,6.04387426 C3.46201028,3.969946 7.34088523,1.7333567 11.2604299,0 Z" id="Path"></path>
                            </g>
                            <path d="M329.828922,272.563283 C337.754434,269.025406 345.822291,267.525874 350.799248,273.498584 C360.96668,285.698162 356.559098,315.515964 346.391667,320.939693 C344.525944,321.935992 341.389291,322.200316 337.520584,321.951241 C338.08996,319.98406 338.694922,316.263188 337.042714,312.166163 L341.394375,298.614465 C341.394375,298.614465 314.669282,286.440303 329.828922,272.563283 Z" id="Path" stroke="#000000" stroke-width="0.5" fill="#FFFFFF"></path>
                            <polygon id="Path" stroke="#000000" stroke-width="0.5" fill="#FFFFFF" points="315.584351 274.982866 295.005471 272.395539 295.768028 278.24117 318.187213 278.861315"></polygon>
                            <polygon id="Path" stroke="#000000" stroke-width="0.5" fill="#FFFFFF" points="298.0557 286.247143 322.025419 284.925522 325.131569 289.617277 300.470465 291.45738"></polygon>
                            <g id="Group" transform="translate(273.525247, 285.059362)" fill="#FFFFFF" stroke="#000000" stroke-width="0.5">
                                <ellipse id="Oval" cx="8.81160413" cy="12.199578" rx="8.81160413" ry="12.199578"></ellipse>
                            </g>
                            <path d="M137.642106,301.999848 C132.83037,299.966585 125.604376,295.528989 123.619186,286.928286 C122.651246,282.734681 126.650605,272.446371 133.296038,260.343373 L133.633088,259.733394 L136.289838,255.077222 L137.872907,252.439063 L139.357352,249.988981 L141.057855,247.305074 L142.640416,244.829576 L144.441068,242.135503 L146.105984,239.660005 L147.989501,236.991347 L149.719998,234.551432 L151.669603,231.933605 L153.449412,229.554688 L155.448837,227.018192 L157.260673,224.735854 L159.294668,222.316272 L161.12023,220.150846 L163.174051,217.878675 L164.994021,215.870828 L167.054959,213.771484 L168.849003,211.956797 L170.906382,210.060779 L172.678566,208.434168 L173.636846,207.63103 L174.524463,206.888889 L175.499519,206.126415 L176.369851,205.450355 L177.335757,204.753962 L178.185755,204.143983 L179.142001,203.518755 L179.967088,202.985024 L180.914693,202.436043 L181.710803,201.978558 L182.651799,201.510908 L183.411306,201.132213 L184.35281,200.744876 L185.066055,200.453103 L186.023827,200.151163 L186.669459,199.948854 L187.697895,199.734853 L188.217959,199.627598 L189.707487,199.496961 L194.534984,199.462395 L198.807847,199.5849 L202.578947,199.863965 C208.474532,200.458694 212.494226,201.698985 215.717301,203.569587 L215.880997,203.661084 C219.296237,205.643515 221.827419,208.337588 224.785125,211.697556 C229.723954,217.309361 247.97246,241.210368 259.719401,256.708915 L261.890148,259.560566 L270.029176,270.321611 L270.974747,272.166797 C279.78991,290.943981 260.710726,300.479984 260.710726,300.479984 L142.089849,303.529879 C142.089849,303.529879 140.265304,303.133392 137.755473,302.045597 L137.642106,301.999848 Z" id="Path" stroke="#000000" stroke-width="0.5" fill="#FFFFFF"></path>
                            <path d="M252.115688,94.1998618 C254.686523,96.0262403 256.867437,97.7936541 258.646737,99.3475754 L260.202354,108.339173 C260.202354,108.339173 248.288667,110.033389 246.958767,118.166441 C245.670045,126.045843 248.015163,139.243245 248.16259,140.059092 L248.170216,140.099249 L215.717301,203.569587 C212.494226,201.698985 208.474532,200.458694 202.578947,199.863965 L198.807847,199.5849 L194.534984,199.462395 L189.707487,199.496961 C189.220976,199.507636 188.723788,199.551859 188.217959,199.627598 L188.212367,199.628106 L187.697895,199.734853 L186.682168,199.944787 L186.657766,199.951395 L186.023827,200.151163 L185.085882,200.44497 L185.047245,200.458694 L184.35281,200.744876 L183.438758,201.118996 L183.385887,201.142887 L182.651799,201.510908 L181.745372,201.958226 L181.677759,201.993808 L180.914693,202.436043 L180.009792,202.959608 L179.926927,203.010439 L179.142001,203.518755 L178.236083,204.108401 L178.137459,204.174482 L177.335757,204.753962 L176.428822,205.399523 L176.31393,205.485937 L175.499519,206.126415 L174.591568,206.832974 L174.460408,206.93972 L173.636846,207.63103 L172.728894,208.38842 L172.581467,208.515499 L170.906382,210.060779 L168.942543,211.860217 L168.849003,211.956797 L168.762579,212.033044 L167.054959,213.771484 L165.103829,215.748832 L164.994021,215.870828 L164.891838,215.977574 L163.174051,217.878675 L161.245289,220.003435 L161.12023,220.150846 L161.002288,220.283009 L159.294668,222.316272 L157.399458,224.557944 L157.260673,224.735854 L157.129005,224.888349 L155.448837,227.018192 L153.600398,229.351361 L153.449412,229.554688 L153.304526,229.737681 L151.669603,231.933605 L149.881152,234.322689 L149.719998,234.551432 L149.563928,234.759841 L147.989501,236.991347 L146.273747,239.41093 L146.105984,239.660005 L145.940255,239.89383 L144.441068,242.135503 L142.812245,244.560169 L142.640416,244.829576 L142.468078,245.083734 L141.057855,247.305074 L139.52969,249.699241 L139.357352,249.988981 L139.180439,250.263471 L137.872907,252.439063 L136.459126,254.777315 L136.289838,255.077222 L136.111908,255.372045 L134.919268,257.476472 L133.633088,259.733394 L133.296038,260.343373 C126.650605,272.446371 122.651246,282.734681 123.619186,286.928286 C125.620136,295.59507 132.944753,300.03775 137.755473,302.045597 L137.758015,302.071013 L111.92664,294.044707 L114.976869,220.847239 L129.719644,204.581135 L109.384782,148.665386 C109.384782,148.665386 131.358126,117.647959 148.336719,97.3046544 C141.651633,120.483853 155.646593,140.099249 155.646593,140.099249 L186.50983,179.164331 L190.352611,135.641828 C190.352611,135.641828 196.918738,132.909631 199.460087,129.515098 C202.356788,130.017823 205.482257,130.28113 208.856319,130.28113 C210.826767,130.28113 212.698591,130.180484 214.473824,129.963433 L221.185346,150.275222 C221.185346,150.275222 241.883693,122.637078 249.780229,101.47691 C250.706482,98.9942959 251.482765,96.5681049 252.115688,94.1998618 Z" id="Path" stroke="#000000" stroke-width="0.5" fill="#FFFFFF"></path>
                            <path d="M200.288733,77.9693399 L201.472222,77.9200333 C205.941316,80.5820829 211.1628,82.0927973 216.734044,82.0927973 C219.532121,82.0927973 222.241742,81.7115605 224.805459,80.9673862 L225.942687,81.3125326 C224.474001,81.9479273 223.541648,82.0927973 223.541648,82.0927973 L207.077018,107.576699 L214.473824,129.963433 C212.698591,130.180484 210.826767,130.28113 208.856319,130.28113 C205.482257,130.28113 202.356788,130.017823 199.460087,129.515098 L199.513466,129.443426 C200.058949,128.70281 200.406675,127.929153 200.448362,127.146855 C200.822015,120.145314 192.594021,93.6341064 192.594021,93.6341064 L192.631641,78.5208625 L193.064773,78.4791806 L200.288733,77.9693399 Z" id="Path" stroke="#000000" stroke-width="0.5"></path>
                            <path d="M199.460087,129.515098 C196.918738,132.909631 190.352611,135.641828 190.352611,135.641828 L186.50983,179.164331 L155.646593,140.099249 C155.646593,140.099249 141.651633,120.483853 148.336719,97.3046544 C148.698171,96.8680112 149.058098,96.4364511 149.415483,96.0109908 L149.262463,96.1868681 L148.336719,97.3046544 C151.126154,87.4875523 157.639918,77.0386138 170.474266,67.165597 C170.978063,64.5340464 167.847511,55.1352882 173.693784,46.1070922 C179.540056,37.0783878 192.743482,33.9268302 192.743482,33.9268302 L194.855258,31.6648251 C196.961441,27.765535 199.310626,26.8922485 199.310626,26.8922485 L194.855258,31.6648251 C192.916837,35.2525177 191.183798,41.4021216 191.675902,51.7895539 C192.193424,62.7152926 201.41986,77.8895344 201.41986,77.8895344 L200.288733,77.9693399 L196.896878,78.1101434 L193.064773,78.4791806 L192.631641,78.5096796 L192.594021,93.6341064 C192.594021,93.6341064 200.822015,120.145314 200.448362,127.146855 C200.406675,127.929153 200.058949,128.70281 199.513466,129.443426 L199.460087,129.515098 Z M207.077018,107.576699 L223.541648,82.0927973 C223.541648,82.0927973 224.474001,81.9479273 225.942687,81.3125326 L226.05707,81.2627177 C228.477936,80.2003378 232.275979,77.8356529 235.780693,72.7194549 L236.217384,74.9677354 L239.5279,77.9042755 L252.526452,63.9459251 L254.742443,76.7519237 C254.600099,82.0755146 253.832458,87.9236872 252.115688,94.1998618 L251.30941,93.6117405 C250.414168,93.0114196 249.671946,92.0019045 248.681129,91.6572664 L248.240371,91.5530617 C249.618058,92.4370228 250.912881,93.3204756 252.115688,94.1998618 C251.482765,96.5681049 250.706482,98.9942959 249.780229,101.47691 C241.883693,122.637078 221.185346,150.275222 221.185346,150.275222 L207.077018,107.576699 Z M246.051832,90.5710917 C245.884805,90.4091627 245.716528,90.2472336 245.54825,90.0863166 C245.379347,89.9243875 245.209818,89.7634705 245.039664,89.6015415 C245.379973,89.9243875 245.717779,90.2472336 246.051832,90.5710917 Z M244.429959,89.3457872 L244.693122,89.4965837 L244.429959,89.3457872 Z M242.477643,88.2657583 L242.665906,88.366964 L242.477643,88.2657583 Z M162.377645,87.673754 L162.214686,87.7496582 L162.634736,87.5553434 L162.377645,87.673754 Z M162.803913,87.4770404 L162.645002,87.5509205 L163.055943,87.362678 L162.803913,87.4770404 Z M163.230684,87.2833721 L163.073798,87.354216 L163.477653,87.1720458 L163.230684,87.2833721 Z M163.65467,87.0922453 L163.500821,87.1610652 L163.900627,86.9829432 L163.65467,87.0922453 Z M164.07916,86.9031519 L163.926323,86.9709597 L164.324105,86.7948618 L164.07916,86.9031519 Z M164.502634,86.7158398 L164.348784,86.7836476 L164.748591,86.6085618 L164.502634,86.7158398 Z M164.924335,86.5313212 L164.769473,86.599129 L165.17434,86.4240432 L164.924335,86.5313212 Z M191.972283,78.6011764 C188.941371,78.98038 185.829121,79.5313942 182.639598,80.2745519 C179.450075,81.0177095 176.183279,81.9530105 172.842261,83.1012957 C179.525822,80.8047252 185.909444,79.3600918 191.972283,78.6011764 Z" id="Shape" stroke="#000000" stroke-width="0.5" fill="#000000"></path>
                            <path d="M64.0375311,304.109359 L57.4459855,314.885653 L0,315.393968 L53.3790131,289.469865 L113.174692,159.086367 L129.719644,204.581135 L114.976869,220.847239 L74.4296624,287.12653 C68.1441565,286.186145 62.7976129,285.901489 59.1835995,286.613131 C45.7493728,289.251289 57.5334254,299.366773 64.0375311,304.109359 Z" id="Path" stroke="#000000" stroke-width="0.5" fill="#FFFFFF"></path>
                            <path d="M176.854838,302.640326 C176.854838,302.640326 197.387456,301.354287 210.635619,263.393106 C214.224214,263.30177 198.38844,302.086262 198.38844,302.086262 L176.854838,302.640326 Z" id="Path" stroke="#000000" stroke-width="0.5" fill="#000000"></path>
                            <path d="M273.775874,235.913718 C273.775874,235.913718 254.010388,217.278862 251.636802,204.062653 C249.264232,190.846443 249.941891,221.68596 256.043875,230.1545 C262.144333,238.628124 272.016909,245.602216 272.016909,245.602216 L273.775874,235.913718 Z" id="Path" stroke="#000000" stroke-width="0.5" fill="#000000"></path>
                        </g>
                        <g id="Group" transform="translate(145.850797, 0.000000)">
                            <g transform="translate(0.000000, 235.027369)" id="Path" stroke="#000000" stroke-width="0.5">
                                <polygon fill="#FFFFFF" points="46.7244295 206.912976 44.9044593 237.086598 44.9044593 227.936915 21.1818091 226.666126 23.8431342 201.463831"></polygon>
                                <polygon fill="#FFFFFF" points="111.227121 204.056241 114.763353 231.891611 130.0145 232.908243 131.758722 212.916185"></polygon>
                                <path d="M107.031022,265.08463 L114.763353,231.891611 L130.0145,232.908243 C130.0145,232.908243 152.338111,246.099037 167.946135,255.74687 C159.003879,252.06158 152.128662,264.932135 152.128662,264.932135 L107.031022,265.08463 Z" fill="#000000"></path>
                                <path d="M107.031022,265.08463 L152.128662,264.932135 C152.128662,264.932135 159.003879,252.06158 167.946135,255.74687 C174.446173,259.726982 179.778991,263.112365 181.868398,264.677977 C188.9856,270.015293 184.918627,277.385871 184.918627,277.385871 L104.850108,274.447806 L107.031022,265.08463 Z" fill="#FFFFFF"></path>
                                <path d="M21.1818091,226.666126 L44.9044593,227.936915 L44.9044593,237.086598 C44.9044593,237.086598 44.4825109,243.440545 48.2952976,249.794492 C51.1548876,254.562494 52.8813173,265.76069 53.5660938,271.062423 L53.9067028,273.93949 C53.9067028,273.93949 45.7534398,251.151695 26.9533514,254.709905 C19.433011,256.13319 16.0137039,264.87622 16.0137039,264.87622 L2.95973918,267.77362 L0,274.447806 L21.1818091,226.666126 Z" fill="#000000"></path>
                                <path d="M0,274.447806 L2.95973918,267.77362 L16.0137039,264.87622 C16.0137039,264.87622 19.433011,256.13319 26.9533514,254.709905 C43.4032381,251.59393 51.7018953,268.653006 53.519832,272.968607 L53.9067028,273.93949 L0,274.447806 Z" fill="#FFFFFF"></path>
                                <polygon fill="#FFFFFF" points="99.8101122 199.135745 134.379378 214.044645 140.96889 31.1729716 94.3029231 15.4426325"></polygon>
                                <g transform="translate(35.520429, 44.686037)" fill="#FFFFFF">
                                    <polygon points="6.38819694 3.70918002 0 0 0.466685086 24.4591372 3.14224457 27.5807042"></polygon>
                                </g>
                                <polygon fill="#FFFFFF" points="48.4889871 0 94.3029231 15.4426325 64.0548157 201.463831 53.9067028 208.620916 21.1818091 200.828436"></polygon>
                            </g>
                            <g transform="translate(33.995619, 89.030024)" id="Path" stroke="#000000" stroke-width="0.5">
                                <path d="M76.4420003,2.28682456 C100.057892,7.80357538 112.565358,21.6256972 112.565358,21.6256972 L106.973271,177.170316 L12.8187921,145.997345 L20.3808189,75.3378975 L8.04925015,11.6896493 C31.4953462,0.808134041 51.2938763,-1.281552 67.1327004,0.631240161 L67.1611693,1.45471167 L67.1327004,1.67023755 L67.1865878,2.20600235 L67.1896381,2.23090982 C67.445349,4.36431102 69.2693861,6.012779 71.4757186,6.012779 C73.720179,6.012779 75.5691264,4.30636303 75.7729834,2.11958867 L76.3032149,2.25429235 L76.4420003,2.28682456 Z" fill="#FFFFFF"></path>
                                <polygon fill="#FFFFFF" points="70.4315235 164.852809 75.9819241 198.447397 107.69465 186.61889 106.973271 177.170316"></polygon>
                                <polygon fill="#FFFFFF" points="60.307304 161.439977 58.1889197 211.359125 10.9088401 164.852809 12.8187921 145.997345"></polygon>
                                <g transform="translate(0.000000, 11.864472)" fill="#FFFFFF">
                                    <path d="M8.0490468,0.0752687886 L19.9113886,64.1088203 L7.92957949,182.406603 L0,177.802279 L0.508371553,7.68577218 C0.508371553,7.68577218 1.13926065,-0.886464609 8.0490468,0.0752687886 Z"></path>
                                </g>
                                <polygon fill="#000000" points="140.862844 126.43583 151.760805 215.391086 105.272768 229.649343 108.676315 129.797322"></polygon>
                                <path d="M97.9796696,10.676576 L109.53343,105.951213 L112.565358,21.6256972 C112.565358,21.6256972 101.974453,12.5832684 97.9796696,10.676576 Z" fill="#000000"></path>
                                <g transform="translate(106.973271, 21.418288)" fill="#FFFFFF">
                                    <polygon points="26.1048793 169.065326 33.8895729 186.009523 2.67759297 183.97626 1.7030447 168.048694"></polygon>
                                    <polygon points="22.3937669 185.260266 22.3937669 205.18116 16.9445322 208.231054 16.0843676 184.849546"></polygon>
                                    <polygon points="9.46384484 184.417986 10.3707797 206.934849 16.8972537 206.934849 16.0843676 184.849546"></polygon>
                                    <polygon points="2.67759297 183.97626 1.7030447 198.979708 9.91731226 195.676672 9.48112947 184.849546"></polygon>
                                    <polygon points="28.5608222 185.662343 24.8085318 202.029602 22.3937669 202.029602 22.3937669 185.260266"></polygon>
                                    <path d="M5.59208709,0.207408868 C5.59208709,0.207408868 9.83698956,-0.712134322 11.3621042,1.32112867 C12.8872189,3.35439167 36.0181246,82.9058064 33.7304526,99.4260682 C31.4427806,115.94633 26.1048793,169.065326 26.1048793,169.065326 L1.7030447,168.048694 L0,155.752028 L5.59208709,0.207408868 Z"></path>
                                </g>
                            </g>
                            <g transform="translate(84.190669, 0.000000)" stroke="#000000" stroke-width="0.5">
                                <polygon id="Path" fill="#FFFFFF" points="5.61062382 92.2841738 15.9473426 83.3037594 18.9975719 108.550278 10.1122539 112.447535"></polygon>
                                <polygon id="Path" fill="#FFFFFF" points="33.4017715 83.3037594 35.6045455 100.894534 27.3013129 110.448329 25.3649256 91.0825153"></polygon>
                                <path d="M16.9376504,89.6612645 L16.9376504,89.6566896 C17.5893827,87.1669591 20.6741813,78.8763292 22.3924772,74.345711 C25.7756899,76.1309159 29.5386561,77.3544319 33.5390318,77.8932466 L34.037236,78.2206019 L26.1107067,91.2756753 L26.1081649,91.2843167 L25.5779333,91.149613 C25.3740763,93.3363874 23.525129,95.0428033 21.2806686,95.0428033 C19.0656937,95.0428033 17.2360645,93.3816275 16.9915378,91.2360267 L16.9661192,90.484736 L17.0723689,89.6754973 L16.9376504,89.6612645 Z" id="Path"></path>
                                <path d="M74.0714958,101.01043 L38.2734961,83.3037594 L36.8342963,78.1865448 L38.2734961,78.2206019 C56.3008598,78.2206019 70.9363684,64.554533 70.9363684,47.721657 L74.0714958,101.01043 Z M60.0053633,8.6037102 C57.7954721,14.2526231 45.6026888,28.7447051 45.6026888,28.7447051 C45.6026888,28.7447051 -2.39673651,24.7249442 12.3043521,60.2602816 C17.7327435,73.3819443 22.7259689,78.2206019 22.7259689,78.2206019 L16.3306548,86.4771746 L1.20456757,83.3037594 C1.20456757,83.3037594 0.357620563,52.6355453 0.0185367373,46.0274406 C-0.320547089,39.4193359 4.08550916,41.7916455 5.61062382,34.5054475 C7.13573848,27.2197579 14.0836525,1.12638553 28.1482599,0.109754033 C42.2133757,-0.906877465 56.1086953,5.44859435 59.8370923,6.422019 L59.8828457,6.41388595 C60.8233331,6.24461681 75.9458617,3.65169817 78.9010255,11.0385426 C81.9512549,18.6632789 81.9512549,34.4210671 80.680326,36.4543301 C79.4093971,38.4875931 62.3703077,39.2500667 62.3703077,39.2500667 L60.0053633,8.6037102 Z M71.1041432,48.0152134 C71.012036,48.0769488 70.9006975,48.1528531 70.7721522,48.2419141 C70.8419918,48.1923233 70.9067705,48.1488049 70.9654763,48.1093347 L71.0403767,48.0587318 C71.0616322,48.044563 71.0828877,48.0293822 71.1041432,48.0152134 Z M71.131274,48.000001 L71.0401789,48.0576883 L71.1980771,47.9605308 L71.131274,48.000001 Z" id="Shape" fill="#000000"></path>
                                <path d="M33.4449831,77.8805387 C29.4807017,77.3330826 25.7482378,76.1187163 22.3924772,74.345711 L22.3340144,74.315212 C12.352139,69.1115837 5.61062382,59.1460534 5.61062382,47.721657 C5.61062382,30.888781 30.4140719,5.83694758 48.4409272,5.83694758 C65.9039984,5.83694758 70.0167243,30.0470101 70.8936652,46.1535029 L70.9363684,47.721657 L70.8936652,49.2903194 C70.0167243,65.3968122 55.7365674,78.2206019 38.2734961,78.2206019 L36.8342963,78.1865448 L36.6309476,78.1779034 L33.5390318,77.8932466 L33.4449831,77.8805387 Z" id="Path" fill-opacity="0" fill="#000000"></path>
                            </g>
                        </g>
                    </g>
                </g>
            </g>
        </g>
    </g>
</svg>