<?xml version="1.0" encoding="UTF-8" standalone="no"?>
<!DOCTYPE svg PUBLIC "-//W3C//DTD SVG 1.1//EN" "http://www.w3.org/Graphics/SVG/1.1/DTD/svg11.dtd">
<svg width="100%" height="100%" viewBox="0 0 1111 1484" version="1.1" xmlns="http://www.w3.org/2000/svg" xmlns:xlink="http://www.w3.org/1999/xlink" xml:space="preserve" xmlns:serif="http://www.serif.com/" style="fill-rule:evenodd;clip-rule:evenodd;stroke-linecap:round;stroke-linejoin:round;stroke-miterlimit:1.5;">
    <g transform="matrix(1,0,0,1,-5220,0)">
        <g id="Girl_01" transform="matrix(0.557937,0,0,1,5217.66,-9.45171)">
            <rect x="4.201" y="9.452" width="1990.67" height="1483.33" style="fill:none;"/>
            <g id="Layer2" transform="matrix(1.79232,0,0,1,-1580.21,0.451715)">
                <g>
                    <path d="M1131.1,885.75C1118.65,876.527 1103.47,860.245 1104.66,836.377C1105.53,818.981 1120.53,799.504 1137.2,783.05C1143.32,793.501 1149.26,802.017 1154.93,809.063C1157.71,801.191 1159.83,795.543 1159.83,795.543L1191.83,824.877C1191.83,824.877 1190.28,831.868 1187.53,839.092C1202.74,849.632 1211.59,853.908 1209.5,875.877C1205.5,917.877 1174.16,969.21 1222.83,994.543C1235.2,1000.98 1246.19,1000.88 1255.69,997.108L1255.92,997.019L1318.33,1213.38L1143.67,1213.38L1144.01,1201.82L1144.56,1201.6L1148.89,1199.81L1153.09,1198.08L1153.31,1197.98L1153.59,1197.86L1158.06,1195.82L1162.25,1193.92L1162.43,1193.82L1162.67,1193.71L1167.11,1191.43L1171.12,1189.38L1171.33,1189.26L1171.45,1189.19L1173.47,1188.05L1175.34,1186.98L1175.47,1186.9L1175.62,1186.81L1177.57,1185.61L1179.35,1184.51L1179.46,1184.44L1179.59,1184.36L1181.44,1183.1L1183.11,1181.97L1183.2,1181.9L1183.3,1181.83L1185.04,1180.51L1186.57,1179.36L1186.64,1179.3L1186.72,1179.24L1188.32,1177.86L1189.69,1176.69L1189.74,1176.64L1189.8,1176.59L1191.24,1175.15L1192.42,1173.97L1192.46,1173.92L1192.5,1173.88L1193.76,1172.36L1194.73,1171.19L1194.75,1171.16L1194.78,1171.13L1195.83,1169.5L1196.55,1168.38L1196.56,1168.36L1196.58,1168.33L1197.42,1166.48L1197.86,1165.52L1197.86,1165.51C1198.2,1164.56 1198.45,1163.6 1198.59,1162.64L1198.59,1162.64L1200.33,1160.88C1213.6,1147.49 1219.29,1135.71 1220.8,1125.25C1223.01,1110.13 1216.5,1097.74 1211.5,1087.16C1209.81,1083.6 1208.29,1080.24 1207.33,1077.04C1207.33,1077.04 1205.24,1062.04 1205.24,1062.04L1204.98,1060.29L1204.87,1059.52L1203.77,1052.36L1201.5,1037.38L1200.88,1033.49L1200.4,1030.33L1200.37,1030.23C1191.42,972.606 1176.73,882.229 1172.1,853.864L1170.66,845.043C1170.66,845.043 1166.96,846.812 1161.8,850.077L1161.63,850.186L1161.16,850.5L1157.95,852.612L1157.36,853.044L1156.86,853.379L1160.72,849.2C1160.71,849.198 1156.85,853.414 1156.85,853.414C1152.89,856.185 1148.59,859.624 1144.62,863.621L1144.33,863.911C1138.28,869.993 1133.07,877.381 1131.1,885.75Z" style="fill:white;stroke:black;stroke-width:2.9px;"/>
                    <path d="M1172.1,853.864C1176.73,882.229 1191.42,972.606 1200.37,1030.23L1201.5,1037.38L1205.24,1062.04L1207.33,1077.04L1207.42,1077.34C1208.38,1080.44 1209.86,1083.71 1211.5,1087.16C1212.05,1088.31 1212.61,1089.49 1213.18,1090.69C1213.72,1091.82 1214.25,1092.96 1214.79,1094.13C1215.17,1094.98 1215.55,1095.84 1215.93,1096.71C1217.16,1099.58 1218.31,1102.58 1219.22,1105.71L1219.3,1105.99L1219.63,1107.2C1220.1,1108.97 1220.48,1110.78 1220.76,1112.63L1220.81,1113.04C1221.12,1115.26 1221.28,1117.55 1221.24,1119.91C1221.22,1120.73 1221.18,1121.55 1221.12,1122.37C1221.06,1123.2 1220.97,1124.05 1220.85,1124.89L1220.8,1125.25C1219.3,1135.72 1213.61,1147.5 1200.33,1160.88L1198.59,1162.64L1197.86,1165.51L1197.42,1166.48L1196.56,1168.36L1195.83,1169.5L1194.75,1171.16L1193.76,1172.36L1192.46,1173.92L1191.24,1175.15L1189.74,1176.64L1188.32,1177.86L1186.64,1179.3L1185.04,1180.51L1183.2,1181.9L1181.44,1183.1L1179.46,1184.44L1177.57,1185.61L1175.47,1186.9L1173.47,1188.05L1171.33,1189.26L1167.11,1191.43L1162.43,1193.82L1158.06,1195.82L1153.31,1197.98L1148.89,1199.81L1144.01,1201.82C1126.39,1208.79 1111.33,1213.04 1111.33,1213.04C1111.33,1213.04 1080.15,1188.92 1084,1187.71C1098.61,1090.49 1125.33,910.377 1131.09,885.783L1131.19,885.358C1133.23,877.151 1138.38,869.898 1144.33,863.911L1144.62,863.621C1148.59,859.624 1152.89,856.185 1156.85,853.414L1157.36,853.044L1161.16,850.5L1161.8,850.077L1162.57,849.593C1167.33,846.637 1170.66,845.043 1170.66,845.043L1172.1,853.864Z" style="fill:white;stroke:black;stroke-width:2.9px;"/>
                    <path d="M1088.96,1194.42C1088.96,1194.42 1051.97,1199.44 1044.47,1199.44C1036.97,1199.44 1028.47,1196.94 1022.97,1206.94C1017.47,1216.94 1102.93,1206.37 1102.93,1206.37L1088.96,1194.42Z" style="fill:white;stroke:black;stroke-width:2.9px;"/>
                    <path d="M1095.2,1199.76L1069.97,1214.94L1079.47,1223.94L1111.33,1213.04L1095.2,1199.76Z" style="fill:white;stroke:black;stroke-width:2.9px;"/>
                    <path d="M1567.08,1170.6C1570.35,1178.71 1571.37,1187.41 1568.66,1196.38C1562.96,1215.27 1547.69,1214.27 1547.69,1214.27L1327.33,1212.38L1327.31,1212.16C1326.86,1207.65 1320.06,1135.19 1342.66,1119.04C1354.51,1110.58 1387.69,1100.37 1387.69,1100.37L1514,1119.3C1514,1119.3 1554.94,1141 1566.94,1170.25L1567.08,1170.6ZM1551.48,1163.49L1551.53,1163.51L1551.43,1163.47L1551.48,1163.49Z" style="stroke:black;stroke-width:2.9px;"/>
                    <g transform="matrix(1.04083,0.111773,-0.111773,1.04083,42.9001,-235.313)">
                        <path d="M1745.87,1136.01C1771.32,1126.8 1823.35,1114.93 1841.16,1115.38C1861.16,1115.88 1893.16,1117.88 1908.16,1151.88C1922.93,1185.35 1871,1188.54 1862.33,1189.21C1854.75,1189.79 1751.49,1207.15 1728.67,1178.14L1765.43,1177.29L1766.66,1144.01L1745.87,1136.01Z" style="fill:white;stroke:black;stroke-width:2.9px;"/>
                    </g>
                    <path d="M1299.12,627.3C1310.08,627.376 1320.15,630.173 1321.36,630.521L1321.37,630.522L1321.49,630.626L1322.96,671.419L1325.32,734.57C1323.3,736.71 1321.14,738.694 1318.87,740.524L1315.6,742.985C1313.57,744.432 1311.44,745.761 1309.24,746.933L1308.8,747.165C1299.94,751.974 1289.91,754.661 1279.3,754.661C1266.96,754.661 1255.42,751.031 1245.57,744.68L1242.81,742.856L1230.83,699.877C1230.83,699.877 1231.73,698.958 1233.27,697.311L1234.12,696.392L1234.79,695.663L1236.13,694.197C1236.46,693.824 1236.82,693.434 1237.18,693.029C1237.44,692.742 1237.7,692.446 1237.97,692.143C1238.45,691.605 1238.94,691.043 1239.45,690.46L1240.56,689.194L1241.38,688.24L1247.83,680.46C1253.02,673.978 1258.53,666.472 1263.02,658.9C1266.36,653.356 1269.13,647.77 1270.83,642.543C1271.46,640.612 1272.3,638.91 1273.33,637.429C1275.03,634.909 1277.23,632.969 1279.74,631.485C1280.79,630.874 1281.89,630.343 1283.03,629.895C1284.2,629.422 1285.42,629.026 1286.68,628.736C1288.97,628.123 1291.37,627.739 1293.79,627.497L1298.06,627.301C1298.24,627.299 1298.42,627.298 1298.6,627.298L1299.12,627.3Z" style="fill:white;stroke:black;stroke-width:2.9px;"/>
                    <path d="M1318.47,804.824C1303.54,812.682 1286.58,816.4 1269.41,817.133L1245.57,744.688C1255.42,751.033 1266.97,754.661 1279.3,754.661C1289.91,754.661 1299.94,751.974 1308.8,747.165C1308.8,747.165 1299.59,759.277 1299.59,759.277C1289.59,772.777 1297.09,793.277 1307.59,807.277C1308.08,807.928 1308.6,808.53 1309.18,809.075C1312.35,807.827 1315.45,806.415 1318.47,804.824Z" style="fill:white;stroke:black;stroke-width:2.9px;"/>
                    <path d="M1325.32,734.58L1327.47,790.951L1327.8,799.193L1327.7,799.255L1323.82,801.77L1322.64,802.481L1319.38,804.33L1318.47,804.824C1315.45,806.415 1312.35,807.827 1309.18,809.075C1308.6,808.53 1308.08,807.928 1307.59,807.277C1297.09,793.277 1289.59,772.777 1299.59,759.277L1308.8,747.165C1308.8,747.165 1311.61,745.605 1311.61,745.605L1312.01,745.341C1313.24,744.605 1314.44,743.814 1315.6,742.985L1325.32,734.58Z" style="stroke:black;stroke-width:2.9px;"/>
                    <path d="M1463.59,1110.66L1463.65,1110.87L1462.66,1111.61L1387.69,1100.37C1387.69,1100.37 1354.51,1110.58 1342.66,1119.04C1322.25,1133.63 1325.82,1194.15 1327.03,1209.05L1327.33,1212.38L1318.33,1213.38L1255.92,997.019L1261.17,994.743C1287.56,982.446 1315.5,957.21 1315.5,957.21L1269.4,817.105C1283.1,816.528 1296.67,814.053 1309.18,809.075L1309.33,809.015C1315.82,806.448 1322.02,803.197 1327.8,799.194L1328.46,815.214L1328.56,817.829C1330.73,872.687 1332.98,924.281 1334.5,947.877C1339.57,946.972 1361.12,935.595 1382.58,916.253L1394.67,975.943L1463.59,1110.66Z" style="fill:white;stroke:black;stroke-width:2.9px;"/>
                    <path d="M1382.08,916.703C1360.79,935.77 1339.53,946.979 1334.5,947.877C1332.8,921.624 1330.21,860.708 1327.8,799.194L1327.47,790.951L1325.32,734.58C1334.84,724.645 1334.84,724.641 1325.32,734.57L1322.96,671.419L1321.49,630.626C1327.43,635.909 1322.95,631.874 1321.49,630.57L1321.49,630.557L1321.46,630.551C1313.53,623.457 1318.73,628.158 1321.37,630.522L1321.36,630.521C1320.11,630.161 1309.41,627.193 1298.06,627.301L1293.79,627.497C1291.37,627.703 1288.96,628.081 1286.68,628.736C1285.43,629.055 1284.21,629.443 1283.03,629.895C1281.89,630.35 1280.79,630.878 1279.74,631.485C1277.22,632.955 1275.02,634.894 1273.33,637.429C1272.3,638.91 1271.46,640.612 1270.83,642.543C1269.13,647.77 1266.36,653.356 1263.02,658.9C1256.56,669.745 1248.03,680.479 1241.38,688.24C1235.33,695.283 1230.83,699.877 1230.83,699.877L1242.81,742.856L1245.57,744.68L1315.5,957.21C1315.5,957.21 1287.56,982.446 1261.17,994.743L1258.1,996.072C1258.23,996.012 1258.36,995.951 1258.49,995.89L1255.92,997.019L1255.69,997.108C1246.19,1000.88 1235.2,1000.98 1222.83,994.543C1174.16,969.21 1205.5,917.877 1209.5,875.877C1212.03,849.303 1198.55,848.617 1177.18,831.416L1171.43,826.572C1170.29,825.516 1169.15,824.459 1168.01,823.403L1164.95,820.36L1164.55,819.949C1156.23,811.402 1147.15,799.944 1137.65,783.822L1137.2,783.05L1133.5,776.543C1089.5,696.543 1177.5,680.543 1177.5,680.543C1177.5,680.543 1255.5,574.543 1296.83,574.543C1330.19,574.543 1325.76,611.022 1322.81,625.101C1324.78,622.903 1329.25,621.292 1339.16,623.21C1359.83,627.21 1353.16,658.543 1354.5,678.543C1411.66,702.877 1372.5,751.21 1372.5,751.21L1373.99,752.323L1374.38,752.618C1382.95,759.163 1417.99,788.048 1424.58,826.692L1425.19,830.998C1427.1,847.326 1423.71,865.251 1411.16,883.877C1409.21,886.78 1407.16,889.601 1405,892.318L1406.54,890.316L1401.47,896.712L1400.7,897.672L1396.3,902.628L1393.74,905.379L1391.08,908.116L1390.38,908.823C1387.8,911.411 1385.19,913.886 1382.58,916.251L1382.08,916.703ZM1388.66,910.553L1391.08,908.117L1388.66,910.553Z" style="stroke:black;stroke-width:2.9px;"/>
                    <path d="M1507.72,1027.5C1516.56,1028.85 1525.58,1031.9 1534.33,1036.38C1561.66,1050.38 1603.66,1088.38 1603.66,1088.38L1707,1121.04L1664.33,1189.71L1567.1,1170.61L1567.08,1170.6C1555.27,1141.17 1514,1119.3 1514,1119.3L1463.92,1111.8L1463.65,1110.87L1463.6,1110.69L1513.01,1088.94C1514.85,1082.61 1512.43,1058.83 1507.72,1027.5Z" style="stroke:black;stroke-width:2.9px;"/>
                    <path d="M1463.6,1110.69L1394.67,975.943L1382.58,916.251C1385.44,913.686 1388.29,910.98 1391.08,908.117L1392.95,906.228L1393.74,905.377L1395.06,904.024L1396.3,902.628L1397.16,901.695L1396.3,902.628L1400.7,897.672L1401.47,896.712L1401.31,896.916C1402.2,895.844 1403.09,894.759 1403.96,893.659L1405,892.318C1407.16,889.601 1409.21,886.78 1411.16,883.877C1423.71,865.251 1427.1,847.326 1425.19,830.998L1424.58,826.692C1417.88,787.436 1381.83,758.25 1373.99,752.323C1383.51,745.286 1395.54,739.656 1409.67,742.943C1438.34,749.61 1458.18,796.223 1463.67,812.943C1474.69,846.44 1496.75,954.788 1507.47,1025.83L1507.72,1027.5C1512.43,1058.83 1514.85,1082.61 1513.01,1088.94L1463.6,1110.69Z" style="fill:white;stroke:black;stroke-width:2.9px;"/>
                    <g transform="matrix(1,0,0,1,-13,-14.3333)">
                        <ellipse cx="1322.53" cy="697.118" rx="18" ry="17" style="fill:white;stroke:black;stroke-width:2.9px;"/>
                    </g>
                    <g transform="matrix(1,0,0,1,-63,-14.3333)">
                        <ellipse cx="1322.53" cy="697.118" rx="18" ry="17" style="fill:white;stroke:black;stroke-width:2.9px;"/>
                    </g>
                    <path d="M1501.49,1094.02L1538.53,1110.62L1542.51,1139.15L1514,1119.3L1463.6,1110.69L1501.49,1094.02Z" style="fill:white;stroke:black;stroke-width:2.9px;"/>
                    <path d="M1088.89,1155.1L1144.01,1201.82L1171.33,1189.26L1094.3,1119.01L1088.89,1155.1Z" style="stroke:black;stroke-width:2.9px;"/>
                    <path d="M1439.44,1063.47L1503.64,1001.69L1507.47,1025.83L1450.23,1084.55L1439.44,1063.47Z" style="stroke:black;stroke-width:2.9px;"/>
                    <path d="M1747.25,1149.5C1747.25,1149.5 1826.7,1137.62 1844.7,1148.62C1862.7,1159.62 1877.7,1177.62 1872.7,1193.12C1867.7,1208.62 1739.19,1191.34 1739.44,1186.59L1748.83,1187.38L1753.83,1152.88L1747.25,1149.5Z" style="stroke:black;stroke-width:2.9px;"/>
                    <path d="M1780.1,1161.01L1775.7,1152.95L1769.2,1154.95L1775.98,1167.78L1769.75,1178.02L1774.74,1182.64L1779.67,1174.77L1783.2,1181.45L1790.7,1180.45L1783.91,1168.01L1790.65,1157.25L1786.03,1151.26L1780.1,1161.01Z" style="fill:white;"/>
                    <g transform="matrix(1,0,0,1,25.5,2)">
                        <path d="M1780.1,1161.01L1775.7,1152.95L1769.2,1154.95L1775.98,1167.78L1769.75,1178.02L1774.74,1182.64L1779.67,1174.77L1783.2,1181.45L1790.7,1180.45L1783.91,1168.01L1790.65,1157.25L1786.03,1151.26L1780.1,1161.01Z" style="fill:white;"/>
                    </g>
                    <path d="M1669.91,1180.74L1703.33,1126.94L1753.83,1152.88C1753.83,1152.88 1760.95,1161.31 1758.85,1172.15C1756.54,1184.14 1748.83,1187.38 1748.83,1187.38L1669.91,1180.74Z" style="fill:white;stroke:black;stroke-width:2.9px;"/>
                    <path d="M1422.29,1029.92L1270.53,989.452L1257.2,996.118L1261.87,1012.78L1422.29,1029.92Z"/>
                    <path d="M1428.26,1041.59L1273.2,1050.79L1276.53,1062.79L1428.26,1041.59Z"/>
                    <path d="M1432.8,1050.48L1290.2,1115.45L1296.87,1136.12L1432.8,1050.48Z"/>
                </g>
            </g>
        </g>
    </g>
</svg>
