<?xml version="1.0" encoding="UTF-8"?>
<svg width="621px" height="465px" viewBox="0 0 621 465" version="1.1" xmlns="http://www.w3.org/2000/svg" xmlns:xlink="http://www.w3.org/1999/xlink">
    <title>Artboard</title>
    <g id="Artboard" stroke="none" stroke-width="1" fill="none" fill-rule="evenodd">
        <g id="g_01" transform="translate(-72.000000, -333.000000)">
            <rect id="Rectangle" x="0" y="0" width="710" height="947"></rect>
            <g id="Group" transform="translate(88.000000, 360.000000)">
                <path d="M69.3705407,198.878198 C61.4020302,192.984199 51.6862078,182.579116 52.4478566,167.326166 C53.0046923,156.209176 62.6053073,143.762313 73.2747908,133.247313 C77.1918418,139.92607 80.9936853,145.368257 84.6227178,149.871034 C86.4020318,144.840398 87.7589187,141.231019 87.7589187,141.231019 L108.240231,159.97704 C108.240231,159.97704 107.248167,164.444669 105.488054,169.061198 C115.223078,175.796832 120.887441,178.529428 119.549755,192.568814 C116.989591,219.409098 96.9307063,252.213677 128.081502,268.402841 C135.998809,272.516434 143.03286,272.452529 149.113249,270.042016 L149.260459,269.98514 L189.205418,408.251586 L77.4158561,408.251586 L77.63347,400.864117 L77.9854926,400.723525 L80.7568701,399.579618 L83.4450424,398.474054 L83.5858514,398.410148 L83.7650629,398.333462 L86.6260461,397.029791 L89.3078179,395.815587 L89.4230253,395.751682 L89.5766352,395.681386 L92.4184172,394.224342 L94.9849816,392.91428 L95.1193902,392.837594 L95.1961952,392.79286 L96.489078,392.064338 L97.6859547,391.38055 L97.76916,391.329426 L97.8651661,391.271911 L99.1132461,390.505045 L100.252519,389.802086 L100.322924,389.757352 L100.406129,389.706227 L101.590205,388.901019 L102.659073,388.178887 L102.716677,388.134154 L102.780681,388.08942 L103.894352,387.245868 L104.873615,386.510956 L104.918418,386.472612 L104.969621,386.434269 L105.993687,385.552374 L106.870543,384.80468 L106.902545,384.772728 L106.940948,384.740775 L107.862607,383.820537 L108.617855,383.066452 L108.643457,383.0345 L108.669058,383.008938 L109.47551,382.037575 L110.09635,381.289881 L110.109151,381.27071 L110.128352,381.251538 L110.800395,380.209879 L111.261224,379.494138 L111.267625,379.481357 L111.280426,379.462186 L111.81806,378.279935 L112.099678,377.666443 L112.099678,377.660052 C112.317292,377.052951 112.477302,376.439458 112.566908,375.825966 L112.566908,375.825966 L113.680579,374.701231 C122.173923,366.144292 125.815757,358.616232 126.782219,351.931723 C128.196709,342.269221 124.030042,334.351337 120.829837,327.590141 C119.748168,325.315108 118.775306,323.167885 118.160866,321.122911 C118.160866,321.122911 116.823181,311.537095 116.823181,311.537095 L116.65677,310.41875 L116.586365,309.926678 L115.88232,305.351049 L114.429427,295.778014 L114.032602,293.292093 L113.725382,291.272681 L113.706181,291.208775 C107.977814,254.383905 98.5756117,196.628087 95.6122218,178.50131 L94.6905628,172.864211 C94.6905628,172.864211 92.3224111,173.994698 89.0197995,176.081211 L88.9109925,176.150868 L88.6101732,176.351531 L86.5556416,177.701214 L86.1780174,177.977285 L85.8579969,178.191368 L88.3285552,175.52076 C88.3221548,175.519482 85.8515965,178.213735 85.8515965,178.213735 C83.3170342,179.984555 80.5648578,182.182263 78.0238951,184.736563 L77.8382832,184.921889 C73.9660351,188.808618 70.6314215,193.529952 69.3705407,198.878198 Z" id="Path" stroke="#000000" stroke-width="0.5" fill="#FFFFFF"></path>
                <path d="M95.6122218,178.50131 C98.5756117,196.628087 107.977814,254.383905 113.706181,291.208775 L114.429427,295.778014 L116.823181,311.537095 L118.160866,321.122911 L118.21847,321.314627 C118.832909,323.295696 119.78017,325.385404 120.829837,327.590141 C121.18186,328.325054 121.540283,329.079138 121.905106,329.846003 C122.250728,330.568135 122.58995,331.296657 122.935572,332.04435 C123.178788,332.587547 123.422003,333.137133 123.665219,333.693111 C124.452469,335.527197 125.188517,337.44436 125.770954,339.4446 L125.822157,339.623535 L126.033371,340.396791 C126.33419,341.527917 126.577406,342.684606 126.756617,343.866856 L126.788619,344.128869 C126.987032,345.54757 127.089438,347.011004 127.063837,348.519172 C127.051036,349.043197 127.025434,349.567222 126.987032,350.091246 C126.948629,350.621661 126.891026,351.164858 126.814221,351.701663 L126.782219,351.931723 C125.822157,358.622622 122.180324,366.150683 113.680579,374.701231 L112.566908,375.825966 L112.099678,377.660052 L111.81806,378.279935 L111.267625,379.481357 L110.800395,380.209879 L110.109151,381.27071 L109.47551,382.037575 L108.643457,383.0345 L107.862607,383.820537 L106.902545,384.772728 L105.993687,385.552374 L104.918418,386.472612 L103.894352,387.245868 L102.716677,388.134154 L101.590205,388.901019 L100.322924,389.757352 L99.1132461,390.505045 L97.76916,391.329426 L96.489078,392.064338 L95.1193902,392.837594 L92.4184172,394.224342 L89.4230253,395.751682 L86.6260461,397.029791 L83.5858514,398.410148 L80.7568701,399.579618 L77.63347,400.864117 C66.3559476,405.318326 56.7169301,408.034307 56.7169301,408.034307 C56.7169301,408.034307 36.7604516,392.620315 39.2246095,391.84706 C48.5756085,329.718192 65.6775041,214.61619 69.3641403,198.899287 L69.4281444,198.627688 C70.733828,193.382969 74.0300392,188.747908 77.8382832,184.921889 L78.0238951,184.736563 C80.5648578,182.182263 83.3170342,179.984555 85.8515965,178.213735 L86.1780174,177.977285 L88.6101732,176.351531 L89.0197995,176.081211 L89.5126311,175.771908 C92.5592262,173.882864 94.6905628,172.864211 94.6905628,172.864211 L95.6122218,178.50131 Z" id="Path" stroke="#000000" stroke-width="0.5" fill="#FFFFFF"></path>
                <path d="M42.3992128,396.135115 C42.3992128,396.135115 18.7240961,399.343168 13.9237886,399.343168 C9.12348109,399.343168 3.68313256,397.745532 0.162907048,404.136075 C-3.35731847,410.526619 51.3405856,403.771814 51.3405856,403.771814 L42.3992128,396.135115 Z" id="Path" stroke="#000000" stroke-width="0.5" fill="#FFFFFF"></path>
                <polygon id="Path" stroke="#000000" stroke-width="0.5" fill="#FFFFFF" points="46.3930687 399.547665 30.2448342 409.248511 36.3252237 415 56.7169301 408.034307"></polygon>
                <path d="M348.415617,380.912839 C350.508551,386.09557 351.161393,391.655343 349.426882,397.387661 C345.778648,409.459398 336.005222,408.820344 336.005222,408.820344 L194.965787,407.612531 L194.952986,407.471939 C194.664967,404.589804 190.312689,358.283923 204.777615,347.963195 C212.362101,342.556795 233.598662,336.03205 233.598662,336.03205 L314.442241,348.129349 C314.442241,348.129349 340.645519,361.996829 348.326011,380.68917 L348.415617,380.912839 Z" id="Shape" stroke="#000000" stroke-width="0.5" fill="#000000"></path>
                <g transform="translate(502.496671, 380.769325) rotate(6.129408) translate(-502.496671, -380.769325) translate(441.486952, 354.170737)" fill="#FFFFFF" id="Path" stroke="#000000" stroke-width="0.5">
                    <path d="M11.5240707,13.8091868 C28.5756753,7.64796111 63.4359891,-0.292728249 75.3687623,0.00830883726 C88.7688444,0.342794489 110.208976,1.68073709 120.259038,24.4257614 C130.154998,46.8162309 95.3616849,48.9502493 89.5527492,49.3984601 C84.4741181,49.7864635 15.2894938,61.3998053 -7.17198155e-14,41.9929478 L24.6293511,41.4243222 L25.4534561,19.1609572 L11.5240707,13.8091868 Z"></path>
                </g>
                <path d="M176.91023,33.7145922 C183.925079,33.7631603 190.370292,35.5505954 191.144742,35.7729863 L191.151142,35.7736254 L191.227947,35.840087 L192.168808,61.9090325 L193.679304,102.265956 C192.386421,103.633532 191.003933,104.901416 189.55104,106.070886 L187.458106,107.643599 C186.158823,108.56831 184.795535,109.417614 183.387445,110.166585 L183.105827,110.314846 C177.435064,113.388058 171.015452,115.105198 164.224617,115.105198 C156.326511,115.105198 148.940438,112.78543 142.636034,108.726796 L140.869521,107.561161 L133.20183,80.0952422 C133.20183,80.0952422 133.777867,79.5079512 134.76353,78.4554287 L135.307565,77.8681377 L135.736392,77.402267 L136.594047,76.4654133 C136.805261,76.227046 137.035676,75.9778148 137.26609,75.7189978 C137.432501,75.5355892 137.598912,75.3464291 137.771723,75.1527956 C138.078942,74.8089843 138.392562,74.4498358 138.718983,74.0772671 L139.429429,73.2682242 L139.954263,72.6585663 L144.082527,67.6867232 C147.40434,63.5443727 150.930966,58.7476305 153.80475,53.9087107 C155.942487,50.3657932 157.7154,46.7960354 158.80347,43.4556981 C159.206696,42.2216841 159.74433,41.1340136 160.403573,40.187574 C161.491642,38.577157 162.899732,37.3373915 164.506235,36.3890348 C165.178278,35.9985725 165.882324,35.6592346 166.61197,35.3729383 C167.360818,35.0706656 168.141668,34.8176 168.94812,34.6322742 C170.413814,34.2405339 171.949912,33.995137 173.498811,33.8404859 L176.231787,33.7152312 C176.346994,33.713314 176.462201,33.713314 176.577409,33.713314 L176.91023,33.7145922 Z" id="Path" stroke="#000000" stroke-width="0.5" fill="#FFFFFF"></path>
                <path d="M189.295023,147.162083 C179.739211,152.183772 168.884116,154.559776 157.894612,155.028203 L142.636034,108.731908 C148.940438,112.786708 156.332912,115.105198 164.224617,115.105198 C171.015452,115.105198 177.435064,113.388058 183.105827,110.314846 C183.105827,110.314846 177.211049,118.055073 177.211049,118.055073 C170.810639,126.682307 175.610947,139.782922 182.331377,148.729683 C182.644997,149.145707 182.977819,149.530418 183.349043,149.878703 C185.377972,149.081163 187.3621,148.178818 189.295023,147.162083 Z" id="Path" stroke="#000000" stroke-width="0.5" fill="#FFFFFF"></path>
                <path d="M193.679304,102.272346 L195.055392,138.296481 L195.266606,143.563567 L195.202602,143.603189 L192.719243,145.210411 L191.963994,145.664778 L189.877461,146.84639 L189.295023,147.162083 C187.3621,148.178818 185.377972,149.081163 183.349043,149.878703 C182.977819,149.530418 182.644997,149.145707 182.331377,148.729683 C175.610947,139.782922 170.810639,126.682307 177.211049,118.055073 L183.105827,110.314846 C183.105827,110.314846 184.904342,109.317921 184.904342,109.317921 L185.160359,109.149211 C185.947609,108.678867 186.715658,108.173375 187.458106,107.643599 L193.679304,102.272346 Z" id="Path" stroke="#000000" stroke-width="0.5" fill="#000000"></path>
                <path d="M282.177774,342.607919 L282.216176,342.742121 L281.582536,343.215021 L233.598662,336.03205 C233.598662,336.03205 212.362101,342.556795 204.777615,347.963195 C191.714378,357.286999 193.999325,395.96257 194.773774,405.48448 L194.965787,407.612531 L189.205418,408.251586 L149.260459,269.98514 L152.620674,268.530652 C169.511356,260.672201 187.394102,244.545024 187.394102,244.545024 L157.888211,155.01031 C166.656773,154.641575 175.34213,153.059916 183.349043,149.878703 L183.445049,149.84036 C187.598915,148.199907 191.567169,146.122341 195.266606,143.564206 L195.689033,153.801858 L195.753037,155.472985 C197.141926,190.53023 198.582018,223.501602 199.554881,238.58073 C202.799889,238.002385 216.592772,230.731864 230.328052,218.371274 L238.066148,256.51643 L282.177774,342.607919 Z" id="Path" stroke="#000000" stroke-width="0.5" fill="#FFFFFF"></path>
                <path d="M230.008032,218.658848 C216.381559,230.843698 202.774287,238.006859 199.554881,238.58073 C198.466811,221.803635 196.809105,182.874998 195.266606,143.564206 L195.055392,138.296481 L193.679304,102.272346 C199.772495,95.9233412 199.772495,95.920785 193.679304,102.265956 L192.168808,61.9090325 L191.227947,35.840087 C195.029791,39.2162113 192.162407,36.6376269 191.227947,35.8043 L191.227947,35.7959923 L191.208746,35.792158 C186.133221,31.2587062 189.461434,34.2629008 191.151142,35.7736254 L191.144742,35.7729863 C190.344691,35.5429267 183.496252,33.6462133 176.231787,33.7152312 L173.498811,33.8404859 C171.949912,33.9721311 170.407413,34.2136936 168.94812,34.6322742 C168.148069,34.8361326 167.367219,35.0840857 166.61197,35.3729383 C165.882324,35.663708 165.178278,36.0011287 164.506235,36.3890348 C162.893332,37.3284447 161.485242,38.5675711 160.403573,40.187574 C159.74433,41.1340136 159.206696,42.2216841 158.80347,43.4556981 C157.7154,46.7960354 155.942487,50.3657932 153.80475,53.9087107 C149.670085,60.8392555 144.210535,67.6988653 139.954263,72.6585663 C136.082014,77.1594264 133.20183,80.0952422 133.20183,80.0952422 L140.869521,107.561161 L142.636034,108.726796 L187.394102,244.545024 C187.394102,244.545024 169.511356,260.672201 152.620674,268.530652 L150.655748,269.379956 C150.738953,269.341612 150.822159,269.30263 150.905364,269.263648 L149.260459,269.98514 L149.113249,270.042016 C143.03286,272.452529 135.998809,272.516434 128.081502,268.402841 C96.9307063,252.213677 116.989591,219.409098 119.549755,192.568814 C121.169059,175.586583 112.541306,175.148191 98.8636301,164.155817 L95.1833943,161.060237 C94.4537476,160.385396 93.7241009,159.709916 92.9944541,159.035074 L91.0359286,157.090432 L90.7799122,156.82778 C85.4547711,151.365782 79.6431988,144.043497 73.5628093,133.740662 L73.2747908,133.247313 L70.9066391,129.088986 C42.744835,77.9646349 99.0684432,67.7397647 99.0684432,67.7397647 C99.0684432,67.7397647 148.991641,0 175.444536,0 C196.796304,0 193.960922,23.3120649 192.072801,32.3093116 C193.333682,30.90467 196.194665,29.8751534 202.537472,31.1008597 C215.767119,33.6570773 211.498046,53.6805683 212.355701,66.461656 C248.940444,82.0124054 223.876439,112.899821 223.876439,112.899821 L224.8301,113.611088 L225.079716,113.799609 C230.564867,117.98222 252.991904,136.441306 257.209774,161.136924 L257.600199,163.888692 C258.822678,174.323172 256.652939,185.778222 248.620424,197.681249 C247.372344,199.536424 246.06026,201.339196 244.677771,203.075507 L245.663435,201.79612 L242.418427,205.883512 L241.925595,206.497004 L239.109415,209.664158 L237.47091,211.422196 L235.768401,213.171288 L235.320372,213.6231 C233.669066,215.276972 231.998559,216.858632 230.328052,218.369996 L230.008032,218.658848 Z M234.219501,214.728664 L235.768401,213.171927 L234.219501,214.728664 Z" id="Shape" stroke="#000000" stroke-width="0.5" fill="#000000"></path>
                <path d="M310.422783,289.464157 C316.080746,290.32688 321.853916,292.275996 327.454274,295.13896 C344.946595,304.085721 371.828317,328.369788 371.828317,328.369788 L437.970154,349.241304 L410.659605,393.125168 L348.428418,380.91923 L348.415617,380.912839 C340.856733,362.105469 314.442241,348.129349 314.442241,348.129349 L282.388987,343.336441 L282.216176,342.742121 L282.184174,342.627091 L313.8086,328.727658 C314.986276,324.682444 313.437376,309.485731 310.422783,289.464157 Z" id="Path" stroke="#000000" stroke-width="0.5" fill="#000000"></path>
                <path d="M282.184174,342.627091 L238.066148,256.51643 L230.328052,218.369996 C232.158569,216.730821 233.982686,215.00154 235.768401,213.171927 L236.965277,211.964753 L237.47091,211.420918 L238.315764,210.556278 L239.109415,209.664158 L239.65985,209.06792 L239.109415,209.664158 L241.925595,206.497004 L242.418427,205.883512 L242.31602,206.013879 C242.885657,205.328813 243.455293,204.635439 244.012129,203.932479 L244.677771,203.075507 C246.06026,201.339196 247.372344,199.536424 248.620424,197.681249 C256.652939,185.778222 258.822678,174.323172 257.600199,163.888692 L257.209774,161.136924 C252.9215,136.050205 229.848021,117.398764 224.8301,113.611088 C230.92329,109.114063 238.622984,105.516187 247.666763,107.616758 C266.016738,111.877334 278.715152,141.665576 282.228977,152.350565 C289.282229,173.75697 303.401533,242.997234 310.262773,288.396936 L310.422783,289.464157 C313.437376,309.485731 314.986276,324.682444 313.8086,328.727658 L282.184174,342.627091 Z" id="Path" stroke="#000000" stroke-width="0.5" fill="#FFFFFF"></path>
                <g transform="translate(172.052319, 58.308408)" fill="#FFFFFF" id="Oval" stroke="#000000" stroke-width="0.5">
                    <ellipse cx="11.5207381" cy="10.8639245" rx="11.5207381" ry="10.8639245"></ellipse>
                </g>
                <g transform="translate(140.050269, 58.308408)" fill="#FFFFFF" id="Oval" stroke="#000000" stroke-width="0.5">
                    <ellipse cx="11.5207381" cy="10.8639245" rx="11.5207381" ry="10.8639245"></ellipse>
                </g>
                <polygon id="Path" stroke="#000000" stroke-width="0.5" fill="#FFFFFF" points="306.435328 331.974054 330.142447 342.582357 332.68981 360.814579 314.442241 348.129349 282.184174 342.627091"></polygon>
                <polygon id="Path" stroke="#000000" stroke-width="0.5" fill="#000000" points="42.35441 371.007496 77.63347 400.864117 95.1193902 392.837594 45.8170318 347.944023"></polygon>
                <polygon id="Path" stroke="#000000" stroke-width="0.5" fill="#000000" points="266.720784 312.450943 307.811416 272.970163 310.262773 288.396936 273.626826 325.922209"></polygon>
                <path d="M463.731805,367.428792 C463.731805,367.428792 514.583062,359.836826 526.1038,366.866424 C537.624538,373.896022 547.225154,385.399001 544.024948,395.304344 C540.824743,405.209687 458.573074,394.166827 458.732851,391.131319 L464.743069,391.636172 L467.943274,369.588795 L463.731805,367.428792 Z" id="Path" stroke="#000000" stroke-width="0.5" fill="#000000"></path>
                <polygon id="Path" fill="#FFFFFF" points="484.757152 374.784308 481.940971 369.633529 477.780705 370.911638 482.120183 379.110706 478.132727 385.654623 481.326532 388.607054 484.481934 383.577696 486.741279 387.846579 491.541586 387.207525 487.195708 379.257688 491.509584 372.381463 488.552595 368.553527"></polygon>
                <g transform="translate(494.101750, 369.831636)" fill="#FFFFFF" id="Path">
                    <polygon points="6.97644693 6.23078025 4.16026652 1.08000191 0 2.35811068 4.339478 10.5571784 0.352022552 17.1010953 3.54582716 20.0535266 6.7012293 15.0241686 8.96057404 19.2930519 13.7608816 18.6539975 9.41500315 10.7041609 13.7288795 3.82793576 10.7718901 0"></polygon>
                </g>
                <path d="M414.231034,387.392851 L435.621204,353.011725 L467.943274,369.588795 C467.943274,369.588795 472.500366,374.976024 471.15628,381.903373 C469.677786,389.565636 464.743069,391.636172 464.743069,391.636172 L414.231034,387.392851 Z" id="Path" stroke="#000000" stroke-width="0.5" fill="#FFFFFF"></path>
                <polygon id="Path" fill="#000000" points="255.74408 291.010668 158.611458 265.149416 150.079711 269.409352 153.068703 280.057276"></polygon>
                <polygon id="Path" fill="#000000" points="259.565125 298.468433 160.320367 304.347733 162.451704 312.016386"></polygon>
                <polygon id="Path" fill="#000000" points="262.470911 304.149626 171.201064 345.66899 175.470138 358.878244"></polygon>
            </g>
        </g>
    </g>
</svg>