<svg width="800" height="465" viewBox="0 0 800 465" fill="none" xmlns="http://www.w3.org/2000/svg">
<g clip-path="url(#clip0_630_1238)">
<rect width="800" height="465" fill="#001D3D"/>
<path fill-rule="evenodd" clip-rule="evenodd" d="M275.858 414.176C279.28 417.222 281.403 421.474 281.403 426.176C281.403 435.462 273.124 443 262.925 443C252.728 443 244.448 435.462 244.448 426.176C244.448 421.474 246.57 417.222 249.993 414.176H275.858Z" fill="#001D3D"/>
<mask id="mask0_630_1238" style="mask-type:alpha" maskUnits="userSpaceOnUse" x="244" y="414" width="38" height="29">
<path d="M275.858 414.176C279.28 417.222 281.403 421.474 281.403 426.176C281.403 435.462 273.124 443 262.925 443C252.728 443 244.448 435.462 244.448 426.176C244.448 421.474 246.57 417.222 249.993 414.176H275.858Z" fill="white"/>
</mask>
<g mask="url(#mask0_630_1238)">
<path d="M266.62 434.791C271.847 434.791 276.085 430.934 276.085 426.176C276.085 421.418 271.847 417.561 266.62 417.561C261.394 417.561 257.156 421.418 257.156 426.176C257.156 430.934 261.394 434.791 266.62 434.791Z" fill="#001D3D" stroke="white" stroke-width="0.5"/>
</g>
<path fill-rule="evenodd" clip-rule="evenodd" d="M275.858 414.176C279.28 417.222 281.403 421.474 281.403 426.176C281.403 435.462 273.124 443 262.925 443C252.728 443 244.448 435.462 244.448 426.176C244.448 421.474 246.57 417.222 249.993 414.176H275.858Z" stroke="white" stroke-width="0.5"/>
<path d="M312.199 442.996C322.403 442.996 330.676 435.465 330.676 426.176C330.676 416.886 322.403 409.356 312.199 409.356C301.994 409.356 293.721 416.886 293.721 426.176C293.721 435.465 301.994 442.996 312.199 442.996Z" fill="#001D3D"/>
<mask id="mask1_630_1238" style="mask-type:alpha" maskUnits="userSpaceOnUse" x="293" y="409" width="38" height="34">
<path d="M312.199 442.996C322.403 442.996 330.676 435.465 330.676 426.176C330.676 416.886 322.403 409.356 312.199 409.356C301.994 409.356 293.721 416.886 293.721 426.176C293.721 435.465 301.994 442.996 312.199 442.996Z" fill="white"/>
</mask>
<g mask="url(#mask1_630_1238)">
<path d="M315.894 434.792C321.121 434.792 325.358 430.935 325.358 426.177C325.358 421.419 321.121 417.562 315.894 417.562C310.667 417.562 306.43 421.419 306.43 426.177C306.43 430.935 310.667 434.792 315.894 434.792Z" fill="#001D3D" stroke="white" stroke-width="0.5"/>
</g>
<path d="M312.199 442.996C322.403 442.996 330.676 435.465 330.676 426.176C330.676 416.886 322.403 409.356 312.199 409.356C301.994 409.356 293.721 416.886 293.721 426.176C293.721 435.465 301.994 442.996 312.199 442.996Z" stroke="white" stroke-width="0.5"/>
<path fill-rule="evenodd" clip-rule="evenodd" d="M219.399 411.021C211.484 405.225 197.554 393.145 213.704 389.976C218.082 389.114 224.56 389.459 232.175 390.597L232.501 390.64C246.333 392.702 263.846 397.286 279.384 401.871H475.263V414.178H275.858C275.701 414.037 223.969 414.178 223.969 414.178C223.969 414.178 222.103 413.003 219.584 411.157L219.399 411.021Z" fill="#001D3D" stroke="white" stroke-width="0.5"/>
<path fill-rule="evenodd" clip-rule="evenodd" d="M496.691 200.74C502.012 206.107 506.293 214.994 508.572 228.924C519.042 292.919 518.427 297.842 518.427 297.842L509.015 306.378C509.015 306.378 493.747 300.341 479.907 316.051C472.288 325.448 471.561 340.327 471.561 340.327L456.699 353.798L456.662 353.773C442.43 335.011 420.322 306.076 414.338 299.282C410.754 295.215 407.688 291.953 403.55 289.553L403.352 289.443L442.67 212.605C442.67 212.605 485.167 206.976 489.688 205.334C491.64 204.624 494.523 203.527 496.691 200.74Z" fill="#001D3D" stroke="white" stroke-width="0.5"/>
<path fill-rule="evenodd" clip-rule="evenodd" d="M471.568 340.284C471.617 339.404 472.522 325.159 479.907 316.051C493.747 300.341 509.015 306.378 509.015 306.378L521.026 371.293C507.821 353.663 487.428 364.302 479.125 374.536L471.562 340.327L471.568 340.284Z" fill="#001D3D" stroke="white" stroke-width="0.5"/>
<path fill-rule="evenodd" clip-rule="evenodd" d="M375.415 84.184C373.602 86.4295 372.667 87.8602 372.667 87.8602L372.632 86.5384C372.539 80.6149 372.815 56.5176 383.234 50.0562C395.142 42.6718 425.26 36.3907 441.202 56.7613C441.728 57.4339 442.218 58.104 442.672 58.7772C422.764 53.6186 406.439 59.2375 394.58 66.8798L378.154 80.9866L377.475 81.7275L375.502 84.0763L375.415 84.184Z" stroke="white" stroke-width="0.5"/>
<path fill-rule="evenodd" clip-rule="evenodd" d="M379.077 79.9749C382.316 76.4698 386.746 72.276 392.265 68.4294C404.272 60.0369 421.434 53.274 442.672 58.7773L445.341 59.4917C457.555 63.1839 471.235 71.3893 463.573 78.3633C459.945 81.6635 441.202 96.0041 441.202 96.0041L439.79 95.8361L439.643 95.3284C439.614 95.23 439.585 95.1321 439.554 95.033C439.345 94.35 439.79 95.8361 439.79 95.8361C439.79 95.8361 430.454 83.0813 413.517 79.6968C396.601 76.3166 377.892 82.8992 375.518 84.0721C376.47 82.8924 377.659 81.498 379.077 79.9749Z" fill="white" stroke="white" stroke-width="0.5"/>
<path fill-rule="evenodd" clip-rule="evenodd" d="M479.587 374.007L479.223 374.413L479.125 374.536C474.77 379.896 472.245 396.689 470.841 411.446L457.863 406.763C457.863 406.763 482.5 394.455 469.153 370.253L479.587 374.007Z" stroke="white" stroke-width="0.5"/>
<path fill-rule="evenodd" clip-rule="evenodd" d="M510.167 420.301L469.831 423.962C470.077 420.233 470.403 415.932 470.841 411.446L470.902 410.75C472.319 396.166 474.844 379.816 479.125 374.536L479.223 374.413L479.587 374.007L479.685 373.89C488.296 363.865 508.097 354.038 521.026 371.293L521.278 371.625C523.415 374.493 525.503 377.508 527.499 380.591C527.08 380.837 527.08 380.837 527.499 380.591C535.512 392.739 542.373 405.79 546.488 414.11C538.807 407.027 529.051 399.292 523.15 399.188C512.267 398.991 510.167 420.301 510.167 420.301Z" fill="white" stroke="white" stroke-width="0.5"/>
<path fill-rule="evenodd" clip-rule="evenodd" d="M550.46 433.064C550.152 434.208 549.838 434.867 549.838 434.867L469.153 436.51C469.153 436.51 469.319 431.347 469.831 423.962L510.167 420.301L510.179 420.246C510.309 418.996 512.606 398.997 523.15 399.188L524.302 399.292C525.411 399.471 526.63 399.871 527.918 400.449C529.094 400.966 530.332 401.624 531.601 402.406C536.454 405.317 541.85 409.834 546.488 414.11L549.432 420.098C551.951 425.415 551.224 430.35 550.491 432.947L550.46 433.064Z" fill="#001D3D" stroke="white" stroke-width="0.5"/>
<path fill-rule="evenodd" clip-rule="evenodd" d="M428.189 133.734C424.244 137.087 419.57 139.601 414.435 141L414.363 141.02C411.256 141.921 407.974 142.382 404.584 142.382C397.834 142.382 391.508 140.553 386.093 137.331L386.03 137.294C375.214 130.96 367.966 119.217 367.966 105.796C367.966 99.2779 369.675 93.1562 372.692 87.8628L372.854 87.5982C373.212 87.0732 374.107 85.805 375.518 84.0721C377.892 82.8992 396.601 76.3166 413.517 79.6968C430.455 83.0813 439.79 95.8361 439.79 95.8361L439.834 95.9844L440.032 96.7764L441.467 97.4619L428.189 133.734Z" stroke="white" stroke-width="0.5"/>
<path fill-rule="evenodd" clip-rule="evenodd" d="M442.262 95.292C450.682 91.0103 457.703 88.1187 460.832 87.331C461.547 87.1513 462.212 87.0701 462.834 87.0676H462.963C467.915 87.1384 469.917 92.254 469.917 92.254C469.917 92.254 492.09 156.663 497.836 178.406C501.07 190.631 499.499 197.15 496.697 200.802L496.629 200.888C494.461 203.675 491.579 204.771 489.626 205.482C485.105 207.123 442.608 212.752 442.608 212.752L442.599 212.704C442.421 211.716 439.579 195.739 441.141 186.201C442.752 176.355 457.186 174.303 457.186 174.303L447.886 120.561L432.138 137.459L428.127 133.904L442.262 95.292ZM429.37 132.712C429.154 132.909 428.936 133.103 428.715 133.293C428.936 133.103 429.154 132.909 429.37 132.712Z" fill="#001D3D" stroke="white" stroke-width="0.5"/>
<path fill-rule="evenodd" clip-rule="evenodd" d="M541.603 372.967C523.237 389.766 555.616 404.505 555.616 404.505L550.343 420.91L549.894 419.79C549.894 419.79 535.974 392.431 527.961 380.284C532.155 377.773 536.855 375.065 541.603 372.967Z" fill="white" stroke="white" stroke-width="0.5"/>
<path fill-rule="evenodd" clip-rule="evenodd" d="M541.603 372.967C551.205 368.684 560.98 366.868 567.01 374.099C579.328 388.868 573.988 424.965 561.67 431.531C559.409 432.738 555.609 433.058 550.922 432.756C551.612 430.375 552.345 425.87 550.343 420.91L555.615 404.504C555.615 404.504 523.237 389.766 541.603 372.967Z" fill="#001D3D" stroke="white" stroke-width="0.5"/>
<path fill-rule="evenodd" clip-rule="evenodd" d="M524.345 375.896L499.413 372.764L500.337 379.84L527.499 380.591L524.345 375.896Z" fill="#001D3D" stroke="white" stroke-width="0.5"/>
<path fill-rule="evenodd" clip-rule="evenodd" d="M503.109 389.533L532.149 387.933L535.912 393.612L506.034 395.84L503.109 389.533Z" fill="#001D3D" stroke="white" stroke-width="0.5"/>
<path d="M484.065 417.632C489.961 417.632 494.74 411.02 494.74 402.864C494.74 394.707 489.961 388.095 484.065 388.095C478.169 388.095 473.389 394.707 473.389 402.864C473.389 411.02 478.169 417.632 484.065 417.632Z" fill="#001D3D" stroke="white" stroke-width="0.5"/>
<path fill-rule="evenodd" clip-rule="evenodd" d="M308.76 408.603C302.93 406.141 294.176 400.769 291.771 390.357C290.598 385.28 295.443 372.825 303.494 358.173L303.903 357.435L307.122 351.798L309.04 348.604L310.838 345.638L312.898 342.389L314.816 339.392L316.997 336.131L319.014 333.134L321.296 329.903L323.393 326.949L325.755 323.78L327.911 320.9L330.334 317.83L332.529 315.067L334.993 312.137L337.205 309.516L339.693 306.765L341.898 304.335L344.395 301.793L346.569 299.596L349.061 297.301L351.208 295.332L352.369 294.359L353.445 293.461L354.626 292.538L355.68 291.72L356.851 290.876L357.881 290.138L359.039 289.381L360.039 288.735L361.187 288.07L362.151 287.517L363.291 286.95L364.212 286.492L365.352 286.023L366.216 285.67L367.377 285.304L368.159 285.059L369.405 284.8L370.035 284.67L371.84 284.512L377.688 284.47L382.865 284.619L387.434 284.957C394.577 285.677 399.447 287.178 403.352 289.443L403.55 289.553C407.688 291.953 410.754 295.215 414.338 299.282C420.321 306.076 442.43 335.011 456.662 353.773L459.292 357.226L469.153 370.253L470.299 372.487C480.979 395.219 457.863 406.763 457.863 406.763L314.149 410.455C314.149 410.455 311.938 409.975 308.897 408.658L308.76 408.603Z" fill="#001D3D" stroke="white" stroke-width="0.5"/>
<path fill-rule="evenodd" clip-rule="evenodd" d="M447.45 157.039C450.565 159.25 453.207 161.389 455.363 163.271L457.248 174.156C457.248 174.156 442.814 176.207 441.202 186.053C439.641 195.592 442.482 211.569 442.661 212.556L442.67 212.605L403.352 289.442C399.447 287.178 394.577 285.676 387.434 284.956L382.865 284.619L377.688 284.47L371.84 284.512C371.25 284.525 370.648 284.579 370.035 284.67L370.028 284.671L369.405 284.8L368.174 285.054L368.145 285.062L367.377 285.304L366.24 285.66L366.194 285.676L365.352 286.023L364.245 286.476L364.181 286.505L363.291 286.95L362.193 287.492L362.111 287.535L361.187 288.07L360.09 288.704L359.99 288.766L359.039 289.381L357.942 290.095L357.822 290.175L356.851 290.876L355.752 291.658L355.613 291.762L354.626 292.538L353.526 293.393L353.367 293.522L352.369 294.359L351.269 295.276L351.091 295.43L349.061 297.301L346.682 299.479L346.569 299.596L346.464 299.688L344.395 301.793L342.031 304.187L341.898 304.334L341.774 304.464L339.693 306.765L337.356 309.337L337.205 309.516L337.062 309.676L334.993 312.137L332.697 314.851L332.529 315.066L332.369 315.251L330.334 317.83L328.094 320.654L327.911 320.9L327.736 321.122L325.755 323.78L323.588 326.672L323.393 326.949L323.204 327.202L321.296 329.903L319.218 332.832L319.014 333.134L318.814 333.417L316.997 336.131L315.024 339.066L314.816 339.392L314.607 339.7L312.898 342.389L311.047 345.287L310.838 345.638L310.624 345.97L309.04 348.604L307.327 351.435L307.122 351.798L306.906 352.155L305.461 354.702L303.903 357.435L303.495 358.173C295.443 372.825 290.598 385.28 291.771 390.357C294.195 400.849 303.069 406.227 308.897 408.658L308.9 408.689L277.604 398.972L281.3 310.359L299.162 290.667L274.525 222.975C274.525 222.975 301.147 185.425 321.717 160.798C313.618 188.858 330.573 212.605 330.573 212.605L367.966 259.897L372.621 207.209C372.621 207.209 380.576 203.901 383.655 199.792C387.165 200.4 390.952 200.719 395.039 200.719C397.427 200.719 399.694 200.597 401.845 200.334L409.977 224.924C409.977 224.924 435.054 191.465 444.621 165.848C445.743 162.843 446.683 159.906 447.45 157.039Z" fill="#001D3D" stroke="white" stroke-width="0.5"/>
<path fill-rule="evenodd" clip-rule="evenodd" d="M384.659 137.39L386.093 137.331C391.508 140.553 397.834 142.382 404.584 142.382C407.974 142.382 411.257 141.921 414.363 141.02L415.74 141.438C413.961 142.207 412.831 142.382 412.831 142.382L392.884 173.233L401.845 200.335C399.695 200.597 397.427 200.719 395.039 200.719C390.952 200.719 387.165 200.4 383.655 199.792L383.72 199.705C384.381 198.809 384.802 197.872 384.853 196.925C385.306 188.449 375.337 156.354 375.337 156.354L375.382 138.058L375.907 138.007L384.659 137.39Z" stroke="white" stroke-width="0.5"/>
<path fill-rule="evenodd" clip-rule="evenodd" d="M383.655 199.792C380.576 203.901 372.621 207.209 372.621 207.209L367.966 259.897L330.573 212.605C330.573 212.605 313.618 188.858 321.717 160.798C322.155 160.269 322.591 159.747 323.024 159.231L322.839 159.444L321.717 160.798C325.097 148.913 332.988 136.263 348.538 124.311C349.148 121.125 345.355 109.747 352.438 98.8175C359.521 87.8873 375.518 84.072 375.518 84.072L378.076 81.3336C380.628 76.6131 383.474 75.5559 383.474 75.5559L378.076 81.3336C375.728 85.6769 373.628 93.1217 374.224 105.697C374.851 118.924 386.03 137.294 386.03 137.294L384.659 137.39L380.55 137.561L375.907 138.007L375.382 138.044L375.337 156.354C375.337 156.354 385.305 188.449 384.853 196.925C384.802 197.872 384.381 198.808 383.72 199.705L383.655 199.792ZM392.884 173.233L412.831 142.382C412.831 142.382 413.961 142.207 415.74 141.437L415.879 141.377C418.812 140.091 423.413 137.228 427.659 131.035L428.189 133.756L432.199 137.311L447.948 120.413L450.633 135.916C450.46 142.361 449.53 149.441 447.45 157.039L446.473 156.327C445.389 155.6 444.489 154.378 443.289 153.961L442.755 153.835C444.424 154.905 445.993 155.974 447.45 157.039C446.683 159.906 445.743 162.843 444.621 165.849C435.054 191.465 409.977 224.924 409.977 224.924L392.884 173.233ZM439.874 152.049C439.709 151.95 439.544 151.852 439.378 151.754C439.212 151.656 439.045 151.558 438.877 151.459C439.212 151.656 439.545 151.852 439.874 152.049ZM437.913 150.903L438.073 150.995L437.913 150.903ZM435.525 149.581L435.639 149.642L435.525 149.581ZM338.451 148.821L338.352 148.867L338.608 148.749L338.451 148.821ZM338.968 148.583L338.871 148.628L339.121 148.514L338.968 148.583ZM339.484 148.349L339.388 148.392L339.634 148.281L339.484 148.349ZM339.998 148.117L339.904 148.159L340.148 148.051L339.998 148.117ZM340.512 147.888L340.419 147.93L340.661 147.823L340.512 147.888ZM341.025 147.662L340.932 147.703L341.175 147.597L341.025 147.662ZM341.537 147.439L341.443 147.48L341.689 147.373L341.537 147.439ZM374.584 138.155C370.911 138.614 367.141 139.281 363.277 140.181C359.412 141.081 355.454 142.213 351.407 143.603C359.504 140.823 367.238 139.074 374.584 138.155Z" fill="white" stroke="white" stroke-width="0.5"/>
<path fill-rule="evenodd" clip-rule="evenodd" d="M219.585 411.157L211.599 424.202L142 424.818L206.671 393.434L279.117 235.591L299.161 290.667L281.3 310.359L232.175 390.597C224.56 389.459 218.082 389.114 213.704 389.976C197.428 393.169 211.704 405.415 219.585 411.157Z" fill="#001D3D" stroke="white" stroke-width="0.5"/>
<path fill-rule="evenodd" clip-rule="evenodd" d="M356.268 409.378C356.268 409.378 381.144 407.821 397.195 361.865C401.543 361.755 382.357 408.708 382.357 408.708L356.268 409.378Z" fill="white" stroke="white" stroke-width="0.5"/>
<path fill-rule="evenodd" clip-rule="evenodd" d="M473.692 328.599C473.692 328.599 449.746 306.039 446.87 290.039C443.996 274.04 444.816 311.374 452.209 321.626C459.6 331.885 471.561 340.327 471.561 340.327L473.692 328.599Z" fill="white" stroke="white" stroke-width="0.5"/>
</g>
<defs>
<clipPath id="clip0_630_1238">
<rect width="800" height="465" fill="white"/>
</clipPath>
</defs>
</svg>
