<?xml version="1.0" encoding="UTF-8" standalone="no"?>
<!DOCTYPE svg PUBLIC "-//W3C//DTD SVG 1.1//EN" "http://www.w3.org/Graphics/SVG/1.1/DTD/svg11.dtd">
<svg width="100%" height="100%" viewBox="0 0 935 1484" version="1.1" xmlns="http://www.w3.org/2000/svg" xmlns:xlink="http://www.w3.org/1999/xlink" xml:space="preserve" xmlns:serif="http://www.serif.com/" style="fill-rule:evenodd;clip-rule:evenodd;stroke-linecap:round;stroke-linejoin:round;stroke-miterlimit:1.5;">
    <g transform="matrix(1,0,0,1,-3997,0)">
        <g id="Girl_02" transform="matrix(0.469524,0,0,1,3995.03,-9.45171)">
            <rect x="4.201" y="9.452" width="1990.67" height="1483.33" style="fill:none;"/>
            <g id="Layer1" transform="matrix(2.12981,0,0,1,-881.802,0.451715)">
                <g>
                    <g transform="matrix(1,0,0,1,-80,-3.33333)">
                        <path d="M800.176,1210.27C805.733,1215.22 809.179,1222.13 809.179,1229.77C809.179,1244.86 795.737,1257.11 779.179,1257.11C762.622,1257.11 749.179,1244.86 749.179,1229.77C749.179,1222.13 752.625,1215.22 758.183,1210.27L800.176,1210.27Z" style="fill:white;"/>
                        <clipPath id="_clip1">
                            <path d="M800.176,1210.27C805.733,1215.22 809.179,1222.13 809.179,1229.77C809.179,1244.86 795.737,1257.11 779.179,1257.11C762.622,1257.11 749.179,1244.86 749.179,1229.77C749.179,1222.13 752.625,1215.22 758.183,1210.27L800.176,1210.27Z"/>
                        </clipPath>
                        <g clip-path="url(#_clip1)">
                            <g transform="matrix(0.512195,0,0,0.512195,386.087,599.889)">
                                <ellipse cx="779.179" cy="1229.77" rx="30" ry="27.333" style="fill:white;stroke:black;stroke-width:2.9px;"/>
                            </g>
                        </g>
                        <path d="M800.176,1210.27C805.733,1215.22 809.179,1222.13 809.179,1229.77C809.179,1244.86 795.737,1257.11 779.179,1257.11C762.622,1257.11 749.179,1244.86 749.179,1229.77C749.179,1222.13 752.625,1215.22 758.183,1210.27L800.176,1210.27Z" style="fill:none;stroke:black;stroke-width:2.9px;"/>
                    </g>
                    <g transform="matrix(1,0,0,1,0,-3.33333)">
                        <ellipse cx="779.179" cy="1229.77" rx="30" ry="27.333" style="fill:white;"/>
                        <clipPath id="_clip2">
                            <ellipse cx="779.179" cy="1229.77" rx="30" ry="27.333"/>
                        </clipPath>
                        <g clip-path="url(#_clip2)">
                            <g transform="matrix(0.512195,0,0,0.512195,386.087,599.889)">
                                <ellipse cx="779.179" cy="1229.77" rx="30" ry="27.333" style="fill:white;stroke:black;stroke-width:2.9px;"/>
                            </g>
                        </g>
                        <ellipse cx="779.179" cy="1229.77" rx="30" ry="27.333" style="fill:none;stroke:black;stroke-width:2.9px;"/>
                    </g>
                    <path d="M628.51,1201.81C615.659,1192.39 593.043,1172.76 619.263,1167.61C626.372,1166.21 636.889,1166.77 649.253,1168.62L649.782,1168.69C672.24,1172.04 700.674,1179.49 725.901,1186.94L1043.93,1186.94L1043.93,1206.94L720.176,1206.94C719.922,1206.71 635.929,1206.94 635.929,1206.94C635.929,1206.94 632.9,1205.03 628.811,1202.03L628.51,1201.81Z" style="fill:white;stroke:black;stroke-width:2.9px;"/>
                </g>
                <path d="M1078.72,860.095C1087.36,868.817 1094.31,883.258 1098.01,905.895C1115.01,1009.89 1114.01,1017.89 1114.01,1017.89L1098.73,1031.76C1098.73,1031.76 1073.94,1021.95 1051.47,1047.48C1039.1,1062.75 1037.92,1086.93 1037.92,1086.93L1013.79,1108.82L1013.73,1108.78C990.623,1078.29 954.727,1031.27 945.012,1020.23C939.194,1013.62 934.215,1008.32 927.497,1004.42L927.175,1004.24L991.012,879.376C991.012,879.376 1060.01,870.228 1067.35,867.561C1070.52,866.406 1075.2,864.624 1078.72,860.095Z" style="fill:white;stroke:black;stroke-width:2.9px;"/>
                <path d="M1037.93,1086.86C1038.01,1085.43 1039.48,1062.28 1051.47,1047.48C1073.94,1021.95 1098.73,1031.76 1098.73,1031.76L1118.23,1137.25C1096.79,1108.6 1063.68,1125.89 1050.2,1142.52L1037.92,1086.93L1037.93,1086.86Z" style="fill:white;stroke:black;stroke-width:2.9px;"/>
                <path d="M881.817,670.687C878.874,674.336 877.355,676.661 877.355,676.661L877.299,674.513C877.147,664.887 877.595,625.728 894.512,615.228C913.845,603.228 962.745,593.021 988.629,626.124C989.483,627.217 990.278,628.306 991.015,629.4C958.692,621.017 932.187,630.148 912.934,642.567L886.264,665.491L885.162,666.695L881.959,670.512L881.817,670.687Z" style="fill:none;stroke:black;stroke-width:2.9px;"/>
                <path d="M887.763,663.847C893.022,658.151 900.214,651.336 909.175,645.085C928.67,631.447 956.533,620.457 991.015,629.4L995.348,630.561C1015.18,636.561 1037.39,649.895 1024.95,661.228C1019.06,666.591 988.629,689.895 988.629,689.895L986.336,689.622L986.098,688.797C986.051,688.637 986.003,688.478 985.953,688.317C985.614,687.207 986.336,689.622 986.336,689.622C986.336,689.622 971.179,668.895 943.679,663.395C916.214,657.902 885.839,668.599 881.984,670.505C883.53,668.588 885.461,666.322 887.763,663.847Z" style="stroke:black;stroke-width:2.9px;"/>
                <path d="M1050.95,1141.66L1050.36,1142.32L1050.2,1142.52C1043.13,1151.23 1039.03,1178.52 1036.75,1202.5L1015.68,1194.89C1015.68,1194.89 1055.68,1174.89 1034.01,1135.56L1050.95,1141.66Z" style="fill:none;stroke:black;stroke-width:2.9px;"/>
                <path d="M1100.6,1216.89L1035.11,1222.84C1035.51,1216.78 1036.04,1209.79 1036.75,1202.5L1036.85,1201.37C1039.15,1177.67 1043.25,1151.1 1050.2,1142.52L1050.36,1142.32L1050.95,1141.66L1051.11,1141.47C1065.09,1125.18 1097.24,1109.21 1118.23,1137.25L1118.64,1137.79C1122.11,1142.45 1125.5,1147.35 1128.74,1152.36C1128.06,1152.76 1128.06,1152.76 1128.74,1152.36C1141.75,1172.1 1152.89,1193.31 1159.57,1206.83C1147.1,1195.32 1131.26,1182.75 1121.68,1182.58C1104.01,1182.26 1100.6,1216.89 1100.6,1216.89Z" style="stroke:black;stroke-width:2.9px;"/>
                <path d="M1166.02,1237.63C1165.52,1239.49 1165.01,1240.56 1165.01,1240.56L1034.01,1243.23C1034.01,1243.23 1034.28,1234.84 1035.11,1222.84L1100.6,1216.89L1100.62,1216.8C1100.83,1214.77 1104.56,1182.27 1121.68,1182.58L1123.55,1182.75C1125.35,1183.04 1127.33,1183.69 1129.42,1184.63C1131.33,1185.47 1133.34,1186.54 1135.4,1187.81C1143.28,1192.54 1152.04,1199.88 1159.57,1206.83L1164.35,1216.56C1168.44,1225.2 1167.26,1233.22 1166.07,1237.44L1166.02,1237.63Z" style="fill:white;stroke:black;stroke-width:2.9px;"/>
                <path d="M967.501,751.207C961.096,756.656 953.506,760.741 945.169,763.015L945.052,763.047C940.009,764.511 934.679,765.261 929.175,765.261C918.216,765.261 907.945,762.289 899.154,757.052L899.051,756.992C881.491,746.7 869.722,727.617 869.722,705.808C869.722,695.215 872.498,685.267 877.396,676.665L877.658,676.235C878.24,675.382 879.694,673.321 881.984,670.505C885.839,668.599 916.214,657.902 943.679,663.395C971.179,668.895 986.336,689.622 986.336,689.622L986.407,689.863L986.729,691.15L989.059,692.264L967.501,751.207Z" style="fill:none;stroke:black;stroke-width:2.9px;"/>
                <path d="M990.349,688.738C1004.02,681.78 1015.42,677.081 1020.5,675.801C1021.66,675.509 1022.74,675.377 1023.75,675.373L1023.96,675.374C1032,675.488 1035.25,683.801 1035.25,683.801C1035.25,683.801 1071.25,788.468 1080.58,823.801C1085.83,843.668 1083.28,854.261 1078.73,860.196L1078.62,860.335C1075.1,864.864 1070.42,866.645 1067.25,867.801C1059.91,870.468 990.912,879.615 990.912,879.615L990.897,879.537C990.607,877.932 985.994,851.968 988.529,836.468C991.145,820.468 1014.58,817.134 1014.58,817.134L999.481,729.801L973.912,757.261L967.4,751.484L990.349,688.738ZM969.418,749.547C969.068,749.867 968.714,750.182 968.354,750.491C968.714,750.182 969.068,749.867 969.418,749.547Z" style="fill:white;stroke:black;stroke-width:2.9px;"/>
                <g transform="matrix(1,0,0,1,0.75,-0.5)">
                    <path d="M1150.89,1140.47C1121.07,1167.77 1173.64,1191.72 1173.64,1191.72L1165.08,1218.38L1164.35,1216.56C1164.35,1216.56 1141.75,1172.1 1128.74,1152.36C1135.55,1148.28 1143.18,1143.88 1150.89,1140.47Z" style="stroke:black;stroke-width:2.9px;"/>
                </g>
                <path d="M1151.64,1139.97C1167.23,1133.01 1183.1,1130.06 1192.89,1141.81C1212.89,1165.81 1204.22,1224.47 1184.22,1235.14C1180.55,1237.1 1174.38,1237.62 1166.77,1237.13C1167.89,1233.26 1169.08,1225.94 1165.83,1217.88L1174.39,1191.22C1174.39,1191.22 1121.82,1167.27 1151.64,1139.97Z" style="fill:white;stroke:black;stroke-width:2.9px;"/>
                <path d="M1123.62,1144.73L1083.14,1139.64L1084.64,1151.14L1128.74,1152.36L1123.62,1144.73Z" style="fill:white;stroke:black;stroke-width:2.9px;"/>
                <path d="M1089.14,1166.89L1136.29,1164.29L1142.4,1173.52L1093.89,1177.14L1089.14,1166.89Z" style="fill:white;stroke:black;stroke-width:2.9px;"/>
                <g transform="matrix(1,0,0,1,-4,-18.6667)">
                    <ellipse cx="1062.22" cy="1207.22" rx="17.333" ry="24" style="fill:white;stroke:black;stroke-width:2.9px;"/>
                </g>
                <path d="M773.596,1197.88C764.131,1193.88 749.917,1185.15 746.012,1168.23C744.108,1159.98 751.975,1139.74 765.047,1115.93L765.71,1114.73L770.936,1105.57L774.05,1100.38L776.97,1095.56L780.315,1090.28L783.428,1085.41L786.97,1080.11L790.245,1075.24L793.95,1069.99L797.354,1065.19L801.189,1060.04L804.69,1055.36L808.623,1050.37L812.187,1045.88L816.188,1041.12L819.779,1036.86L823.819,1032.39L827.399,1028.44L831.453,1024.31L834.982,1020.74L839.029,1017.01L842.515,1013.81L844.4,1012.23L846.146,1010.77L848.064,1009.27L849.776,1007.94L851.676,1006.57L853.348,1005.37L855.229,1004.14L856.852,1003.09L858.716,1002.01L860.282,1001.11L862.133,1000.19L863.627,999.445L865.479,998.683L866.882,998.109L868.766,997.515L870.036,997.117L872.059,996.696L873.082,996.485L876.012,996.228L885.508,996.16L893.913,996.401L901.331,996.95C912.928,998.12 920.835,1000.56 927.175,1004.24L927.497,1004.42C934.215,1008.32 939.194,1013.62 945.012,1020.23C954.727,1031.27 990.623,1078.29 1013.73,1108.78L1018,1114.39L1034.01,1135.56L1035.87,1139.19C1053.21,1176.13 1015.68,1194.89 1015.68,1194.89L782.345,1200.89C782.345,1200.89 778.756,1200.11 773.819,1197.97L773.596,1197.88Z" style="fill:white;stroke:black;stroke-width:2.9px;"/>
                <path d="M998.773,789.079C1003.83,792.672 1008.12,796.149 1011.62,799.206L1014.68,816.895C1014.68,816.895 991.245,820.228 988.629,836.228C986.094,851.729 990.707,877.692 990.997,879.297L991.012,879.376L927.175,1004.24C920.835,1000.56 912.928,998.12 901.331,996.95L893.913,996.401L885.508,996.16L876.012,996.228C875.055,996.249 874.077,996.336 873.082,996.485L873.071,996.486L872.059,996.696L870.061,997.109L870.013,997.122L868.766,997.515L866.921,998.093L866.845,998.12L865.479,998.683L863.681,999.419L863.577,999.466L862.133,1000.19L860.35,1001.07L860.217,1001.14L858.716,1002.01L856.936,1003.04L856.773,1003.14L855.229,1004.14L853.447,1005.3L853.253,1005.43L851.676,1006.57L849.892,1007.84L849.666,1008.01L848.064,1009.27L846.278,1010.66L846.02,1010.87L844.4,1012.23L842.614,1013.72L842.324,1013.97L839.029,1017.01L835.166,1020.55L834.982,1020.74L834.812,1020.89L831.453,1024.31L827.615,1028.2L827.399,1028.44L827.198,1028.65L823.819,1032.39L820.025,1036.57L819.779,1036.86L819.547,1037.12L816.188,1041.12L812.46,1045.53L812.187,1045.88L811.928,1046.18L808.623,1050.37L804.987,1054.96L804.69,1055.36L804.405,1055.72L801.189,1060.04L797.671,1064.74L797.354,1065.19L797.047,1065.6L793.95,1069.99L790.575,1074.75L790.245,1075.24L789.919,1075.7L786.97,1080.11L783.766,1084.88L783.428,1085.41L783.089,1085.91L780.315,1090.28L777.309,1094.99L776.97,1095.56L776.622,1096.1L774.05,1100.38L771.269,1104.98L770.936,1105.57L770.586,1106.15L768.24,1110.29L765.71,1114.73L765.047,1115.93C751.975,1139.74 744.108,1159.98 746.012,1168.23C749.948,1185.28 764.356,1194.02 773.819,1197.97L773.824,1198.02L723.012,1182.23L729.012,1038.23L758.012,1006.23L718.012,896.228C718.012,896.228 761.235,835.208 794.633,795.187C781.483,840.787 809.012,879.376 809.012,879.376L869.722,956.228L877.281,870.607C877.281,870.607 890.197,865.232 895.196,858.554C900.894,859.543 907.042,860.061 913.679,860.061C917.555,860.061 921.237,859.863 924.729,859.436L937.931,899.395C937.931,899.395 978.646,845.023 994.179,803.395C996.001,798.511 997.528,793.738 998.773,789.079Z" style="fill:white;stroke:black;stroke-width:2.9px;"/>
                <path d="M896.826,757.149L899.154,757.052C907.945,762.289 918.216,765.261 929.175,765.261C934.679,765.261 940.009,764.511 945.052,763.047L947.289,763.726C944.4,764.976 942.566,765.261 942.566,765.261L910.179,815.395L924.729,859.436C921.237,859.863 917.555,860.061 913.679,860.061C907.042,860.061 900.894,859.543 895.196,858.554L895.301,858.413C896.374,856.956 897.058,855.434 897.14,853.895C897.875,840.121 881.69,787.966 881.69,787.966L881.764,758.234L882.616,758.152L896.826,757.149Z" style="fill:none;stroke:black;stroke-width:2.9px;"/>
                <path d="M895.196,858.554C890.197,865.232 877.281,870.607 877.281,870.607L869.722,956.228L809.012,879.376C809.012,879.376 781.483,840.787 794.633,795.187C795.344,794.328 796.052,793.479 796.755,792.642L796.454,792.988L794.633,795.187C800.12,775.874 812.933,755.318 838.179,735.895C839.17,730.718 833.012,712.228 844.512,694.467C856.012,676.705 881.984,670.505 881.984,670.505L886.138,666.055C890.281,658.384 894.902,656.666 894.902,656.666L886.138,666.055C882.325,673.113 878.916,685.211 879.884,705.646C880.902,727.14 899.051,756.992 899.051,756.992L896.826,757.149L890.154,757.426L882.616,758.152L881.764,758.212L881.69,787.966C881.69,787.966 897.875,840.121 897.14,853.895C897.058,855.434 896.374,856.956 895.301,858.413L895.196,858.554ZM910.179,815.395L942.566,765.261C942.566,765.261 944.4,764.976 947.289,763.726L947.514,763.628C952.276,761.538 959.747,756.886 966.641,746.821L967.5,751.244L974.012,757.021L999.581,729.561L1003.94,754.754C1003.66,765.227 1002.15,776.732 998.773,789.079L997.187,787.922C995.426,786.741 993.966,784.755 992.017,784.077L991.15,783.872C993.86,785.611 996.407,787.349 998.773,789.079C997.528,793.738 996.001,798.511 994.179,803.395C978.646,845.023 937.931,899.395 937.931,899.395L910.179,815.395ZM986.472,780.97C986.205,780.81 985.936,780.65 985.667,780.491C985.397,780.331 985.126,780.172 984.854,780.012C985.398,780.331 985.938,780.65 986.472,780.97ZM983.288,779.108L983.548,779.257L983.288,779.108ZM979.411,776.959L979.597,777.059L979.411,776.959ZM821.803,775.724L821.642,775.799L822.057,775.607L821.803,775.724ZM822.641,775.338L822.484,775.411L822.89,775.225L822.641,775.338ZM823.479,774.957L823.324,775.027L823.723,774.847L823.479,774.957ZM824.314,774.581L824.162,774.649L824.557,774.473L824.314,774.581ZM825.149,774.209L824.998,774.276L825.391,774.102L825.149,774.209ZM825.982,773.841L825.83,773.908L826.225,773.735L825.982,773.841ZM826.813,773.478L826.66,773.545L827.06,773.372L826.813,773.478ZM880.467,758.392C874.505,759.138 868.383,760.222 862.109,761.684C855.835,763.146 849.409,764.986 842.837,767.245C855.984,762.727 868.541,759.885 880.467,758.392Z" style="stroke:black;stroke-width:2.9px;"/>
                <path d="M628.811,1202.03L615.845,1223.23L502.845,1224.23L607.845,1173.23L725.467,916.729L758.012,1006.23L729.012,1038.23L649.253,1168.62C636.889,1166.77 626.372,1166.21 619.263,1167.61C592.837,1172.8 616.017,1192.7 628.811,1202.03Z" style="fill:white;stroke:black;stroke-width:2.9px;"/>
                <path d="M850.73,1199.14C850.73,1199.14 891.119,1196.61 917.179,1121.93C924.238,1121.75 893.088,1198.05 893.088,1198.05L850.73,1199.14Z" style="stroke:black;stroke-width:2.9px;"/>
                <path d="M1041.38,1067.87C1041.38,1067.87 1002.5,1031.21 997.831,1005.21C993.164,979.21 994.497,1039.88 1006.5,1056.54C1018.5,1073.21 1037.92,1086.93 1037.92,1086.93L1041.38,1067.87Z" style="stroke:black;stroke-width:2.9px;"/>
            </g>
        </g>
    </g>
</svg>
