<?xml version="1.0" encoding="UTF-8"?>
<svg width="621px" height="465px" viewBox="0 0 621 465" version="1.1" xmlns="http://www.w3.org/2000/svg" xmlns:xlink="http://www.w3.org/1999/xlink">
    <title>Artboard</title>
    <defs>
        <path d="M31.409881,0 C34.8325277,3.04608222 36.9549751,7.29828993 36.9549751,11.9997178 C36.9549751,21.2856533 28.6758288,28.8239376 18.4774875,28.8239376 C8.27976216,28.8239376 0,21.2856533 0,11.9997178 C0,7.29828993 2.1224474,3.04608222 5.54570992,0 L31.409881,0 Z" id="path-1"></path>
        <ellipse id="path-3" cx="18.4774875" cy="16.8199122" rx="18.4774875" ry="16.8199122"></ellipse>
    </defs>
    <g id="Artboard" stroke="none" stroke-width="1" fill="none" fill-rule="evenodd">
        <g id="g_02" transform="translate(0.000000, -325.000000)">
            <rect id="Rectangle" x="0" y="0" width="575" height="914"></rect>
            <g id="Layer1" transform="translate(53.000000, 368.000000)">
                <g id="Group" transform="translate(64.243443, 346.493329)">
                    <g transform="translate(38.204371, 24.682733)">
                        <path d="M31.409881,0 C34.8325277,3.04608222 36.9549751,7.29828993 36.9549751,11.9997178 C36.9549751,21.2856533 28.6758288,28.8239376 18.4774875,28.8239376 C8.27976216,28.8239376 0,21.2856533 0,11.9997178 C0,7.29828993 2.1224474,3.04608222 5.54570992,0 L31.409881,0 Z" id="Path" fill="#FFFFFF"></path>
                        <g id="Clipped">
                            <mask id="mask-2" fill="white">
                                <use xlink:href="#path-1"></use>
                            </mask>
                            <g id="Path"></g>
                            <g id="Group" mask="url(#mask-2)" fill="#FFFFFF" stroke="#000000" stroke-width="0.5">
                                <g transform="translate(12.708654, 3.385286)" id="Oval">
                                    <ellipse cx="9.46407672" cy="8.61507492" rx="9.46407672" ry="8.61507492"></ellipse>
                                </g>
                            </g>
                        </g>
                        <path d="M31.409881,0 C34.8325277,3.04608222 36.9549751,7.29828993 36.9549751,11.9997178 C36.9549751,21.2856533 28.6758288,28.8239376 18.4774875,28.8239376 C8.27976216,28.8239376 0,21.2856533 0,11.9997178 C0,7.29828993 2.1224474,3.04608222 5.54570992,0 L31.409881,0 Z" id="Path" stroke="#000000" stroke-width="0.5"></path>
                    </g>
                    <g transform="translate(87.477671, 19.862539)">
                        <ellipse id="Oval" fill="#FFFFFF" cx="18.4774875" cy="16.8199122" rx="18.4774875" ry="16.8199122"></ellipse>
                        <g id="Clipped">
                            <mask id="mask-4" fill="white">
                                <use xlink:href="#path-3"></use>
                            </mask>
                            <g id="Oval"></g>
                            <g id="Group" mask="url(#mask-4)" fill="#FFFFFF" stroke="#000000" stroke-width="0.5">
                                <g transform="translate(12.708654, 8.205480)" id="Oval">
                                    <ellipse cx="9.46407672" cy="8.61507492" rx="9.46407672" ry="8.61507492"></ellipse>
                                </g>
                            </g>
                        </g>
                        <ellipse id="Oval" stroke="#000000" stroke-width="0.5" cx="18.4774875" cy="16.8199122" rx="18.4774875" ry="16.8199122"></ellipse>
                    </g>
                    <path d="M13.1556731,21.5279336 C5.2405334,15.7311468 -8.68902853,3.65143089 7.46029557,0.482274639 C11.8388442,-0.379243565 18.3164354,-0.0346362833 25.9316239,1.10379849 L26.2574436,1.1468744 C40.0896908,3.20836438 57.6026535,7.79287197 73.1403727,12.3773796 L269.019602,12.3773796 L269.019602,24.6847825 L69.6142522,24.6847825 C69.4578095,24.5432473 17.7251558,24.6847825 17.7251558,24.6847825 C17.7251558,24.6847825 15.8595455,23.5094255 13.3410639,21.6633151 L13.1556731,21.5279336 Z" id="Path" stroke="#000000" stroke-width="0.5" fill="#FFFFFF"></path>
                </g>
                <path d="M354.690771,157.740053 C360.012287,163.107312 364.292905,171.993872 366.571795,185.924006 C377.042372,249.919424 376.426455,254.842386 376.426455,254.842386 L367.015255,263.377569 C367.015255,263.377569 351.746691,257.340788 337.907053,273.051188 C330.288169,282.44789 329.561388,297.32754 329.561388,297.32754 L314.699329,310.797993 L314.662374,310.773378 C300.430397,292.010742 278.321467,263.076038 272.337841,256.282352 C268.75444,252.214755 265.687793,248.953293 261.550068,246.55335 L261.351743,246.442583 L300.669988,169.605005 C300.669988,169.605005 343.166978,163.975599 347.687803,162.334407 C349.640258,161.623654 352.522746,160.527065 354.690771,157.740053 Z" id="Path" stroke="#000000" stroke-width="0.5" fill="#FFFFFF"></path>
                <path d="M329.567547,297.284464 C329.61682,296.404485 330.522217,282.158666 337.907053,273.051188 C351.746691,257.340788 367.015255,263.377569 367.015255,263.377569 L379.025622,328.292966 C365.820378,310.662611 345.427391,321.302361 337.12484,331.535967 L329.561388,297.32754 L329.567547,297.284464 Z" id="Path" stroke="#000000" stroke-width="0.5" fill="#FFFFFF"></path>
                <path d="M233.415013,41.1840249 C231.602372,43.4295105 230.666795,44.8602461 230.666795,44.8602461 L230.632304,43.5384311 C230.538685,37.614878 230.814615,13.5175985 241.23407,7.05621197 C253.141579,-0.328229778 283.259884,-6.60931285 299.20226,13.7612851 C299.728252,14.4338846 300.217906,15.1040227 300.671836,15.7772377 C280.763575,10.6185897 264.438715,16.2375345 252.580479,23.8798164 L236.153993,37.9865616 L235.475253,38.7274673 L233.502474,41.0763351 L233.415013,41.1840249 Z" id="Path" stroke="#000000" stroke-width="0.5"></path>
                <path d="M237.077251,36.9748931 C240.316355,33.4697447 244.746025,29.2759972 250.26525,25.4293184 C262.272538,17.0369004 279.433812,10.2739825 300.671836,15.7772377 L303.340601,16.4916824 C315.555452,20.1839033 329.234952,28.3892488 321.572954,35.3632387 C317.945207,38.6634688 299.20226,53.0040546 299.20226,53.0040546 L297.789964,52.8360586 L297.643376,52.3283782 C297.614428,52.229919 297.584864,52.1320751 297.554068,52.0330005 C297.345273,51.3499397 297.789964,52.8360586 297.789964,52.8360586 C297.789964,52.8360586 288.454521,40.0812816 271.516825,36.6967458 C254.600685,33.3165176 235.892229,39.899132 233.517871,41.0720275 C234.470078,39.8923629 235.659412,38.4979342 237.077251,36.9748931 Z" id="Path" stroke="#000000" stroke-width="0.5" fill="#000000"></path>
                <path d="M337.586777,331.006748 L337.223386,331.412893 L337.12484,331.535967 C332.770312,336.895841 330.245055,353.689292 328.840766,368.445868 L315.863411,363.762901 C315.863411,363.762901 340.500061,351.455498 327.153155,327.252991 L337.586777,331.006748 Z" id="Path" stroke="#000000" stroke-width="0.5"></path>
                <path d="M368.167019,377.301045 L327.830663,380.962497 C328.07703,377.233354 328.403465,372.931916 328.840766,368.445868 L328.902358,367.7505 C330.318965,353.166227 332.844222,336.815843 337.12484,331.535967 L337.223386,331.412893 L337.586777,331.006748 L337.685323,330.889828 C346.295832,320.865448 366.09754,311.037987 379.025622,328.292966 L379.278148,328.625266 C381.415377,331.492891 383.503333,334.508205 385.498902,337.591209 C385.080079,337.837357 385.080079,337.837357 385.498902,337.591209 C393.511972,349.738616 400.373279,362.790616 404.4876,371.110421 C396.807124,364.02751 387.051011,356.292308 381.150533,356.187695 C370.267293,355.990776 368.167019,377.301045 368.167019,377.301045 Z" id="Path" stroke="#000000" stroke-width="0.5" fill="#000000"></path>
                <path d="M408.46026,390.063821 C408.152302,391.20841 407.838184,391.866856 407.838184,391.866856 L327.153155,393.509894 C327.153155,393.509894 327.319453,388.346939 327.830663,380.962497 L368.167019,377.301045 L368.179337,377.245661 C368.308679,375.99646 370.606047,355.99693 381.150533,356.187695 L382.302297,356.292308 C383.410946,356.470765 384.63046,356.870756 385.917725,357.449204 C387.094125,357.966115 388.332117,358.624561 389.600904,359.406081 C394.454324,362.316781 399.84975,366.833598 404.4876,371.110421 L407.43168,377.097972 C409.950777,382.41477 409.223996,387.350039 408.491055,389.946901 L408.46026,390.063821 Z" id="Path" stroke="#000000" stroke-width="0.5" fill="#FFFFFF"></path>
                <path d="M286.189181,90.733629 C282.244238,94.0867809 277.569434,96.600568 272.43454,97.9999197 L272.362478,98.0196115 C269.256412,98.9205134 265.973578,99.382041 262.583575,99.382041 C255.833749,99.382041 249.507673,97.553161 244.093153,94.3304675 L244.029714,94.2935453 C233.214225,87.9601558 225.965506,76.2170473 225.965506,62.7964398 C225.965506,56.2778238 227.67529,50.1561216 230.692048,44.8627076 L230.853418,44.5980984 C231.211881,44.0731877 232.107423,42.8049098 233.517871,41.0720275 C235.892229,39.899132 254.600685,33.3165176 271.516825,36.6967458 C288.454521,40.0812816 297.789964,52.8360586 297.789964,52.8360586 L297.833694,52.9843628 L298.032019,53.7763442 L299.467104,54.4618665 L286.189181,90.733629 Z" id="Path" stroke="#000000" stroke-width="0.5"></path>
                <path d="M300.261636,52.2920714 C308.681827,48.0103259 315.703272,45.1187016 318.832127,44.3310278 C319.54659,44.1513397 320.211779,44.0701109 320.833855,44.0676494 L320.963197,44.0676494 C325.915164,44.1384169 327.916892,49.253989 327.916892,49.253989 C327.916892,49.253989 350.089877,113.662936 355.836375,135.405809 C359.069936,147.631368 357.499349,154.149984 354.69693,157.802206 L354.629179,157.887742 C352.461154,160.674754 349.578666,161.770728 347.626212,162.482096 C343.105386,164.123288 300.608397,169.752079 300.608397,169.752079 L300.599158,169.70408 C300.420542,168.716411 297.579321,152.73894 299.140668,143.200703 C300.751905,133.354781 315.185903,131.303137 315.185903,131.303137 L305.886183,77.5610157 L290.137821,94.4590799 L286.126974,90.9040865 L300.261636,52.2920714 Z M287.369893,89.7121146 C287.154322,89.909033 286.936288,90.1028746 286.714558,90.293024 C286.936288,90.1028746 287.154322,89.909033 287.369893,89.7121146 Z" id="Shape" stroke="#000000" stroke-width="0.5" fill="#FFFFFF"></path>
                <g id="Group" transform="translate(385.960839, 329.966773)" fill="#000000" stroke="#000000" stroke-width="0.5">
                    <path d="M13.642545,0 C-4.72407764,16.799605 27.6546397,31.53772 27.6546397,31.53772 L22.3823966,47.943488 L21.9327777,46.8235144 C21.9327777,46.8235144 8.01307042,19.4641577 0,7.31675103 C4.19438967,4.80604084 8.89383066,2.0984122 13.642545,0 Z" id="Path"></path>
                </g>
                <path d="M399.603384,329.966773 C409.205518,325.683797 418.980109,323.868455 425.009929,331.099054 C437.328254,345.867937 431.98826,381.96555 419.669935,388.53155 C417.409523,389.737675 413.60932,390.057668 408.922197,389.756136 C409.612023,387.374654 410.344963,382.870144 408.343236,377.910261 L413.615479,361.504493 C413.615479,361.504493 381.236761,346.766378 399.603384,329.966773 Z" id="Path" stroke="#000000" stroke-width="0.5" fill="#FFFFFF"></path>
                <polygon id="Path" stroke="#000000" stroke-width="0.5" fill="#FFFFFF" points="382.345411 332.895935 357.413121 329.763701 358.336995 336.840457 385.498902 337.591209"></polygon>
                <polygon id="Path" stroke="#000000" stroke-width="0.5" fill="#FFFFFF" points="361.108618 346.532537 390.14907 344.932575 393.912318 350.612441 364.034221 352.840081"></polygon>
                <g id="Group" transform="translate(331.388811, 345.094602)" fill="#FFFFFF" stroke="#000000" stroke-width="0.5">
                    <ellipse id="Oval" cx="10.6756764" cy="14.7688835" rx="10.6756764" ry="14.7688835"></ellipse>
                </g>
                <path d="M166.759941,365.602858 C160.930294,363.141377 152.17566,357.769196 149.770507,347.357133 C148.597802,342.28033 153.443216,329.825238 161.494473,315.173275 L161.902825,314.43483 L165.121604,308.79804 L167.039567,305.604269 L168.838042,302.638185 L170.898282,299.38903 L172.815629,296.392178 L174.997205,293.130716 L177.014331,290.133863 L179.2963,286.90317 L181.392879,283.949393 L183.754918,280.780237 L185.911241,277.900305 L188.333639,274.829608 L190.528765,272.066596 L192.993046,269.137434 L195.204801,266.515957 L197.693103,263.765253 L199.898083,261.334541 L202.395007,258.793062 L204.568576,256.59619 L207.061189,254.30086 L209.208273,252.331675 L210.369275,251.359391 L211.444665,250.46095 L212.625992,249.537895 L213.680441,248.719453 L214.850682,247.876395 L215.880494,247.137951 L217.039032,246.381046 L218.038664,245.734907 L219.186732,245.070308 L220.151257,244.516474 L221.291318,243.950334 L222.211497,243.491883 L223.352174,243.022971 L224.216304,242.669749 L225.37669,242.304219 L226.158904,242.059302 L227.404903,241.800231 L228.034985,241.670388 L229.83962,241.512237 L235.68836,241.470392 L240.865136,241.618696 L245.434003,241.956535 C252.576784,242.676518 257.446834,244.178021 261.351743,246.442583 L261.550068,246.55335 C265.687793,248.953293 268.75444,252.214755 272.337841,256.282352 C278.321467,263.076038 300.430397,292.010742 314.662374,310.773378 L317.292336,314.225605 L327.153155,327.252991 L328.29876,329.486784 C338.978747,352.218557 315.863411,363.762901 315.863411,363.762901 L172.148592,367.455122 C172.148592,367.455122 169.938069,366.975133 166.89729,365.658241 L166.759941,365.602858 Z" id="Path" stroke="#000000" stroke-width="0.5" fill="#FFFFFF"></path>
                <path d="M305.450114,114.038927 C308.564803,116.249952 311.207084,118.389594 313.362791,120.270781 L315.247494,131.156063 C315.247494,131.156063 300.813497,133.207092 299.20226,143.053014 C297.640912,152.591867 300.482134,168.568722 300.66075,169.556391 L300.669988,169.605005 L261.351743,246.442583 C257.446834,244.178021 252.576784,242.676518 245.434003,241.956535 L240.865136,241.618696 L235.68836,241.470392 L229.83962,241.512237 C229.250188,241.52516 228.647822,241.578697 228.034985,241.670388 L228.02821,241.671003 L227.404903,241.800231 L226.174302,242.054379 L226.144738,242.062378 L225.37669,242.304219 L224.240325,242.659903 L224.193515,242.676518 L223.352174,243.022971 L222.244756,243.475884 L222.180701,243.504806 L221.291318,243.950334 L220.193139,244.49186 L220.111222,244.534936 L219.186732,245.070308 L218.090401,245.704139 L217.990007,245.765676 L217.039032,246.381046 L215.941469,247.094875 L215.821982,247.174874 L214.850682,247.876395 L213.751887,248.657916 L213.61269,248.762528 L212.625992,249.537895 L211.525966,250.393259 L211.367059,250.522487 L210.369275,251.359391 L209.269249,252.276292 L209.090633,252.430135 L207.061189,254.30086 L204.681904,256.47927 L204.568576,256.59619 L204.46387,256.688496 L202.395007,258.793062 L200.031121,261.186852 L199.898083,261.334541 L199.774284,261.463768 L197.693103,263.765253 L195.356316,266.3375 L195.204801,266.515957 L195.061908,266.675953 L192.993046,269.137434 L190.69691,271.851216 L190.528765,272.066596 L190.369243,272.251207 L188.333639,274.829608 L186.094168,277.654157 L185.911241,277.900305 L185.735705,278.121838 L183.754918,280.780237 L181.588125,283.672477 L181.392879,283.949393 L181.203793,284.201695 L179.2963,286.90317 L177.217583,289.832332 L177.014331,290.133863 L176.813542,290.416934 L174.997205,293.130716 L173.023809,296.066032 L172.815629,296.392178 L172.606834,296.699863 L170.898282,299.38903 L169.046838,302.287424 L168.838042,302.638185 L168.623703,302.970485 L167.039567,305.604269 L165.326704,308.434972 L165.121604,308.79804 L164.906033,309.154955 L163.461093,311.702587 L161.902825,314.43483 L161.494473,315.173275 C153.443216,329.825238 148.597802,342.28033 149.770507,347.357133 C152.194753,357.849194 161.068875,363.227529 166.89729,365.658241 L166.90037,365.68901 L135.604433,355.972315 L139.299931,267.359014 L157.161502,247.66717 L132.524852,179.975223 C132.524852,179.975223 159.1466,142.425337 179.716971,117.797608 C171.617672,145.858487 188.573231,169.605005 188.573231,169.605005 L225.965506,216.897432 L230.621217,164.208824 C230.621217,164.208824 238.576392,160.90121 241.655357,156.791768 C245.164848,157.400369 248.951501,157.719131 253.039337,157.719131 C255.426628,157.719131 257.694432,157.597288 259.845212,157.334524 L267.976538,181.9241 C267.976538,181.9241 293.053568,148.465195 302.620595,122.848566 C303.742795,119.843098 304.683299,116.905937 305.450114,114.038927 Z" id="Path" stroke="#000000" stroke-width="0.5" fill="#FFFFFF"></path>
                <path d="M242.6593,94.3901584 L244.093153,94.3304675 C249.507673,97.553161 255.833749,99.382041 262.583575,99.382041 C265.973578,99.382041 269.256412,98.9205134 272.362478,98.0196115 L273.740282,98.4374479 C271.9609,99.2066605 270.83131,99.382041 270.83131,99.382041 L250.88363,130.233008 L259.845212,157.334524 C257.694432,157.597288 255.426628,157.719131 253.039337,157.719131 C248.951501,157.719131 245.164848,157.400369 241.655357,156.791768 L241.720028,156.705001 C242.380906,155.808407 242.802193,154.871813 242.852698,153.924759 C243.305397,145.44865 233.336792,113.35402 233.336792,113.35402 L233.38237,95.057835 L233.907131,95.0073747 L242.6593,94.3901584 Z" id="Path" stroke="#000000" stroke-width="0.5"></path>
                <path d="M241.655357,156.791768 C238.576392,160.90121 230.621217,164.208824 230.621217,164.208824 L225.965506,216.897432 L188.573231,169.605005 C188.573231,169.605005 171.617672,145.858487 179.716971,117.797608 C180.154887,117.269005 180.590956,116.746556 181.023945,116.231491 L180.838555,116.444409 L179.716971,117.797608 C183.096503,105.912964 190.988238,93.2634157 206.53766,81.3110813 C207.148033,78.1253101 203.355221,66.7471161 210.438258,55.8175269 C217.521295,44.8873224 233.517871,41.0720275 233.517871,41.0720275 L236.076388,38.3336304 C238.628129,33.613126 241.474278,32.5559201 241.474278,32.5559201 L236.076388,38.3336304 C233.727899,42.6769128 231.62824,50.1216609 232.224447,62.6967498 C232.85145,75.9235157 244.029714,94.2935453 244.029714,94.2935453 L242.6593,94.3901584 L238.549907,94.5606159 L233.907131,95.0073747 L233.38237,95.0442969 L233.336792,113.35402 C233.336792,113.35402 243.305397,145.44865 242.852698,153.924759 C242.802193,154.871813 242.380906,155.808407 241.720028,156.705001 L241.655357,156.791768 Z M250.88363,130.233008 L270.83131,99.382041 C270.83131,99.382041 271.9609,99.2066605 273.740282,98.4374479 L273.878863,98.3771416 C276.811857,97.091018 281.413367,94.2283161 285.659493,88.0346155 L286.188566,90.7563977 L290.199412,94.311391 L305.947775,77.4133268 L308.632554,92.9163469 C308.460097,99.3611184 307.530064,106.440952 305.450114,114.038927 L304.473271,113.326944 C303.388643,112.600192 302.489405,111.378067 301.288984,110.960846 L300.754985,110.834695 C302.424118,111.904823 303.992857,112.974337 305.450114,114.038927 C304.683299,116.905937 303.742795,119.843098 302.620595,122.848566 C293.053568,148.465195 267.976538,181.9241 267.976538,181.9241 L250.88363,130.233008 Z M297.873729,109.048891 C297.709279,108.950431 297.543598,108.851972 297.377916,108.754128 C297.211619,108.655669 297.044705,108.557825 296.877176,108.459366 C297.212235,108.655669 297.544829,108.851972 297.873729,109.048891 Z M295.912651,107.903071 L296.07279,107.994762 L295.912651,107.903071 Z M293.524744,106.580641 L293.639304,106.642178 L293.524744,106.580641 Z M196.451416,105.820659 L196.352253,105.866812 L196.607858,105.748661 L196.451416,105.820659 Z M196.967553,105.583126 L196.870855,105.628048 L197.120917,105.513589 L196.967553,105.583126 Z M197.483691,105.34867 L197.388224,105.391746 L197.633975,105.280979 L197.483691,105.34867 Z M197.997981,105.117291 L197.904362,105.159136 L198.147649,105.050831 L197.997981,105.117291 Z M198.512271,104.888373 L198.419268,104.929603 L198.661323,104.822528 L198.512271,104.888373 Z M199.02533,104.661917 L198.93171,104.703147 L199.174997,104.596688 L199.02533,104.661917 Z M199.537156,104.438538 L199.442921,104.479767 L199.689287,104.373308 L199.537156,104.438538 Z M232.583526,95.1550635 C228.911434,95.6141296 225.140795,96.2811909 221.276536,97.180862 C217.412277,98.0805332 213.4544,99.2128142 209.406598,100.602935 C217.504049,97.8226931 225.238109,96.0738111 232.583526,95.1550635 Z" id="Shape" stroke="#000000" stroke-width="0.5" fill="#000000"></path>
                <path d="M77.5845065,368.156644 L69.5985364,381.202491 L0,381.817861 L64.6712063,350.433984 L137.116508,192.590926 L157.161502,247.66717 L139.299931,267.359014 L90.1750665,347.597128 C82.5598779,346.458693 76.0822867,346.114086 71.7037381,346.975604 C55.4275352,350.169375 69.7044739,362.415241 77.5845065,368.156644 Z" id="Path" stroke="#000000" stroke-width="0.5" fill="#FFFFFF"></path>
                <path d="M214.268025,366.378224 C214.268025,366.378224 239.144266,364.821338 255.195044,318.8653 C259.542797,318.754729 240.357005,365.707471 240.357005,365.707471 L214.268025,366.378224 Z" id="Path" stroke="#000000" stroke-width="0.5" fill="#000000"></path>
                <path d="M331.692458,285.598585 C331.692458,285.598585 307.745634,263.039116 304.869921,247.039492 C301.99544,231.039868 302.816457,268.374375 310.209299,278.626442 C317.600294,288.884662 329.561388,297.32754 329.561388,297.32754 L331.692458,285.598585 Z" id="Path" stroke="#000000" stroke-width="0.5" fill="#000000"></path>
            </g>
        </g>
    </g>
</svg>