<?xml version="1.0" encoding="UTF-8" standalone="no"?>
<!DOCTYPE svg PUBLIC "-//W3C//DTD SVG 1.1//EN" "http://www.w3.org/Graphics/SVG/1.1/DTD/svg11.dtd">
<svg width="100%" height="100%" viewBox="0 0 743 1484" version="1.1" xmlns="http://www.w3.org/2000/svg" xmlns:xlink="http://www.w3.org/1999/xlink" xml:space="preserve" xmlns:serif="http://www.serif.com/" style="fill-rule:evenodd;clip-rule:evenodd;stroke-linecap:round;stroke-linejoin:round;stroke-miterlimit:1.5;">
    <g transform="matrix(1,0,0,1,-2468,-8)">
        <g id="Girl_03" transform="matrix(0.373074,0,0,1,2466.43,-1.45171)">
            <rect x="4.201" y="9.452" width="1990.67" height="1483.33" style="fill:none;"/>
            <g transform="matrix(2.68043,0,0,1,-60.1297,-9.54829)">
                <g>
                    <path d="M281.675,1122.25L278.095,1181.61L278.095,1163.61L231.431,1161.11L236.666,1111.53L281.675,1122.25Z" style="fill:white;stroke:black;stroke-width:2.9px;"/>
                    <path d="M408.556,1116.63L415.512,1171.39L445.512,1173.39L448.943,1134.06L408.556,1116.63Z" style="fill:white;stroke:black;stroke-width:2.9px;"/>
                    <path d="M400.302,1236.69L415.512,1171.39L445.512,1173.39C445.512,1173.39 489.424,1199.34 520.126,1218.32C502.536,1211.07 489.012,1236.39 489.012,1236.39L400.302,1236.69Z" style="stroke:black;stroke-width:2.9px;"/>
                    <path d="M400.302,1236.69L489.012,1236.39C489.012,1236.39 502.536,1211.07 520.126,1218.32C532.912,1226.15 543.402,1232.81 547.512,1235.89C561.512,1246.39 553.512,1260.89 553.512,1260.89L396.012,1255.11L400.302,1236.69Z" style="fill:white;stroke:black;stroke-width:2.9px;"/>
                    <path d="M231.431,1161.11L278.095,1163.61L278.095,1181.61C278.095,1181.61 277.265,1194.11 284.765,1206.61C290.39,1215.99 293.786,1238.02 295.133,1248.45L295.803,1254.11C295.803,1254.11 279.765,1209.28 242.784,1216.28C227.991,1219.08 221.265,1236.28 221.265,1236.28L195.587,1241.98L189.765,1255.11L231.431,1161.11Z" style="stroke:black;stroke-width:2.9px;"/>
                    <path d="M189.765,1255.11L195.587,1241.98L221.265,1236.28C221.265,1236.28 227.991,1219.08 242.784,1216.28C275.142,1210.15 291.466,1243.71 295.042,1252.2L295.803,1254.11L189.765,1255.11Z" style="fill:white;stroke:black;stroke-width:2.9px;"/>
                    <path d="M386.098,1106.95L454.098,1136.28L467.06,776.52L375.265,745.574L386.098,1106.95Z" style="fill:white;stroke:black;stroke-width:3.09px;"/>
                    <g transform="matrix(1,0,0,1,3,2)">
                        <path d="M269.202,808.401L256.636,801.104L257.554,849.222L262.817,855.363L269.202,808.401Z" style="fill:white;stroke:black;stroke-width:2.9px;"/>
                    </g>
                    <path d="M285.146,715.194L375.265,745.574L315.765,1111.53L295.803,1125.61L231.431,1110.28L285.146,715.194Z" style="fill:white;stroke:black;stroke-width:3.09px;"/>
                </g>
                <g>
                    <path d="M407.003,432.475C453.457,443.328 478.06,470.52 478.06,470.52L467.06,776.52L281.852,715.194L296.727,576.187L272.47,450.973C318.59,429.566 357.535,425.455 388.691,429.218L388.747,430.838L388.691,431.262L388.797,432.316L388.803,432.365C389.306,436.562 392.894,439.805 397.234,439.805C401.649,439.805 405.286,436.448 405.687,432.146L406.73,432.411L407.003,432.475Z" style="fill:white;stroke:black;stroke-width:3.09px;"/>
                    <path d="M395.18,752.288L406.098,818.378L468.479,795.108L467.06,776.52L395.18,752.288Z" style="fill:white;stroke:black;stroke-width:3.09px;"/>
                    <path d="M375.265,745.574L371.098,843.779L278.095,752.288L281.852,715.194L375.265,745.574Z" style="fill:white;stroke:black;stroke-width:3.09px;"/>
                    <g transform="matrix(1,0,0,1,39.3266,7.75)">
                        <path d="M233.143,443.715L256.477,569.687L232.908,802.412L217.31,793.354L218.31,458.687C218.31,458.687 219.551,441.823 233.143,443.715Z" style="fill:white;stroke:black;stroke-width:3.09px;"/>
                    </g>
                    <path d="M533.723,676.711L555.16,851.711L463.715,879.761L470.41,683.324L533.723,676.711Z" style="stroke:black;stroke-width:3.09px;"/>
                    <path d="M449.369,448.98L472.096,636.412L478.06,470.52C478.06,470.52 457.227,452.731 449.369,448.98Z" style="stroke:black;stroke-width:3.09px;"/>
                    <g>
                        <path d="M518.41,802.711L533.723,836.045L472.327,832.045L470.41,800.711L518.41,802.711Z" style="fill:white;stroke:black;stroke-width:3.27px;"/>
                        <path d="M511.11,834.571L511.11,873.761L500.391,879.761L498.699,833.763L511.11,834.571Z" style="fill:white;stroke:black;stroke-width:3.09px;"/>
                        <path d="M485.676,832.914L487.46,877.211L500.298,877.211L498.699,833.763L485.676,832.914Z" style="fill:white;stroke:black;stroke-width:3.09px;"/>
                        <path d="M472.327,832.045L470.41,861.561L486.568,855.063L485.71,833.763L472.327,832.045Z" style="fill:white;stroke:black;stroke-width:3.09px;"/>
                        <path d="M523.241,835.362L515.86,867.561L511.11,867.561L511.11,834.571L523.241,835.362Z" style="fill:white;stroke:black;stroke-width:3.09px;"/>
                        <path d="M478.06,470.52C478.06,470.52 486.41,468.711 489.41,472.711C492.41,476.711 537.91,633.211 533.41,665.711C528.91,698.211 518.41,802.711 518.41,802.711L470.41,800.711L467.06,776.52L478.06,470.52Z" style="fill:white;stroke:black;stroke-width:3.09px;"/>
                    </g>
                </g>
                <g>
                    <path d="M366.41,434.378L386.743,416.711L392.743,466.378L375.265,474.045L366.41,434.378Z" style="fill:white;stroke:black;stroke-width:2.9px;"/>
                    <path d="M421.077,416.711L425.41,451.317L409.077,470.112L405.268,432.014L421.077,416.711Z" style="fill:white;stroke:black;stroke-width:2.9px;"/>
                    <path d="M388.691,429.218L388.691,429.209C389.973,424.311 396.041,408.001 399.421,399.088C406.076,402.6 413.478,405.007 421.347,406.067L422.327,406.711L406.735,432.394L406.73,432.411L405.687,432.146C405.286,436.448 401.649,439.805 397.234,439.805C392.877,439.805 389.278,436.537 388.797,432.316L388.747,430.838L388.956,429.246L388.691,429.218Z" style="fill:none;stroke:black;stroke-width:3.27px;"/>
                    <path d="M501.077,451.545L430.66,416.711L427.829,406.644L430.66,406.711C466.121,406.711 494.91,379.826 494.91,346.711L501.077,451.545ZM473.408,269.755C469.061,280.868 445.077,309.378 445.077,309.378C445.077,309.378 350.659,301.47 379.577,371.378C390.255,397.192 400.077,406.711 400.077,406.711L387.497,422.954L357.743,416.711C357.743,416.711 356.077,356.378 355.41,343.378C354.743,330.378 363.41,335.045 366.41,320.711C369.41,306.378 383.077,255.045 410.743,253.045C438.41,251.045 465.743,263.548 473.077,265.463L473.167,265.447C475.017,265.114 504.764,260.013 510.577,274.545C516.577,289.545 516.577,320.545 514.077,324.545C511.577,328.545 478.06,330.045 478.06,330.045L473.408,269.755ZM494.582,346.904C494.491,346.965 494.381,347.04 494.254,347.128C494.323,347.079 494.387,347.036 494.445,346.997L494.519,346.947C494.54,346.933 494.561,346.918 494.582,346.904ZM494.786,346.772L494.696,346.829L494.852,346.733L494.786,346.772ZM494.91,346.711L494.905,346.71L494.908,346.71L494.91,346.711Z" style="stroke:black;stroke-width:3.27px;"/>
                    <path d="M421.162,406.042C413.364,404.965 406.022,402.576 399.421,399.088L399.306,399.028C379.671,388.791 366.41,369.186 366.41,346.711C366.41,313.596 415.2,264.312 450.66,264.312C485.011,264.312 493.101,311.94 494.826,343.626L494.91,346.711L494.826,349.797C493.101,381.483 465.011,406.711 430.66,406.711L427.829,406.644L427.429,406.627L421.347,406.067L421.162,406.042Z" style="fill-opacity:0;stroke:black;stroke-width:3.27px;"/>
                </g>
            </g>
        </g>
    </g>
</svg>
