<?xml version="1.0" encoding="UTF-8"?>
<svg width="621px" height="465px" viewBox="0 0 621 465" version="1.1" xmlns="http://www.w3.org/2000/svg" xmlns:xlink="http://www.w3.org/1999/xlink">
    <title>Artboard</title>
    <g id="Artboard" stroke="none" stroke-width="1" fill="none" fill-rule="evenodd">
        <g id="g_03" transform="translate(149.000000, -74.000000)">
            <rect id="Rectangle" x="0" y="0" width="322" height="640"></rect>
            <g id="Group" transform="translate(72.000000, 100.000000)" stroke="#000000">
                <g transform="translate(0.000000, 199.520421)" id="Path">
                    <polygon stroke-width="0.595905895" fill="#FFFFFF" points="39.6745495 175.653432 38.1291803 201.268551 38.1291803 193.501163 17.9858533 192.422359 20.2456321 171.027521"></polygon>
                    <polygon stroke-width="0.595905895" fill="#FFFFFF" points="94.4449392 173.228281 97.4476175 196.858401 110.397639 197.721444 111.87869 180.749702"></polygon>
                    <path d="M90.8819566,225.036757 L97.4476175,196.858401 L110.397639,197.721444 C110.397639,197.721444 129.353017,208.919428 142.60607,217.109707 C135.01304,213.981175 129.17517,224.907301 129.17517,224.907301 L90.8819566,225.036757 Z" stroke-width="0.595905895" fill="#000000"></path>
                    <path d="M90.8819566,225.036757 L129.17517,224.907301 C129.17517,224.907301 135.01304,213.981175 142.60607,217.109707 C148.125369,220.48852 152.65356,223.362454 154.427713,224.69154 C160.471056,229.222516 157.017717,235.479579 157.017717,235.479579 L89.0301035,232.985384 L90.8819566,225.036757 Z" stroke-width="0.595905895" fill="#FFFFFF"></path>
                    <path d="M17.9858533,192.422359 L38.1291803,193.501163 L38.1291803,201.268551 C38.1291803,201.268551 37.7708963,206.66257 41.0084017,212.056589 C43.4365308,216.104261 44.9024732,225.610681 45.4839292,230.111451 L45.7731463,232.553863 C45.7731463,232.553863 38.8500648,213.208752 22.8865732,216.229403 C16.5009175,217.437663 13.5975227,224.859834 13.5975227,224.859834 L2.51316752,227.319506 L0,232.985384 L17.9858533,192.422359 Z" stroke-width="0.595905895" fill="#000000"></path>
                    <path d="M0,232.985384 L2.51316752,227.319506 L13.5975227,224.859834 C13.5975227,224.859834 16.5009175,217.437663 22.8865732,216.229403 C36.8544665,213.584176 43.9010049,228.066039 45.4446475,231.729656 L45.7731463,232.553863 L0,232.985384 Z" stroke-width="0.595905895" fill="#FFFFFF"></path>
                    <polygon stroke-width="0.634948005" fill="#FFFFFF" points="84.750553 169.051153 114.103935 181.707679 119.699208 26.46349 80.0743002 13.1096244"></polygon>
                    <g transform="translate(30.161032, 37.935059)" fill="#FFFFFF" stroke-width="0.595905895">
                        <polygon points="5.42433238 3.14881268 0 0 0.396270661 20.7639535 2.66813612 23.4139273"></polygon>
                    </g>
                    <polygon stroke-width="0.634948005" fill="#FFFFFF" points="41.172867 5.68434189e-14 80.0743002 13.1096244 54.3900907 171.027521 45.7731463 177.103345 17.9858533 170.488119"></polygon>
                </g>
                <g transform="translate(28.866289, 75.579742)" id="Path">
                    <path d="M64.9082709,1.94134071 C84.9609477,6.62464399 95.5812604,18.3585777 95.5812604,18.3585777 L90.8329192,150.404169 L10.8846658,123.940679 L17.3057182,63.9561644 L6.8347624,9.92362617 C26.7432623,0.686044545 43.5545486,-1.08794051 57.0035777,0.535875049 L57.0277511,1.23493994 L57.0035777,1.41790508 L57.0493345,1.87272878 L57.0519245,1.89387334 C57.2690532,3.70496924 58.8178758,5.1043936 60.6913122,5.1043936 C62.5971237,5.1043936 64.167098,3.65577579 64.3401966,1.79937012 L64.7904257,1.91372333 L64.9082709,1.94134071 Z" stroke-width="0.634948005" fill="#FFFFFF"></path>
                    <polygon stroke-width="0.634948005" fill="#FFFFFF" points="59.8046674 139.947539 64.5176119 168.466798 91.4454552 158.425292 90.8329192 150.404169"></polygon>
                    <polygon stroke-width="0.634948005" fill="#FFFFFF" points="51.2080114 137.050304 49.4092534 179.427876 9.26289145 139.947539 10.8846658 123.940679"></polygon>
                    <g transform="translate(0.000000, 10.072037)" fill="#FFFFFF" stroke-width="0.634948005">
                        <path d="M6.83458973,0.0638974961 L16.9071165,54.423529 L6.7331479,154.84938 L0,150.940657 L0.431667387,6.524638 C0.431667387,6.524638 0.967366613,-0.752541259 6.83458973,0.0638974961 Z"></path>
                    </g>
                    <polygon stroke-width="0.634948005" fill="#000000" points="119.609162 107.334436 128.862816 182.850705 89.3889918 194.954885 92.2790049 110.188088"></polygon>
                    <path d="M83.1962914,9.06360374 L93.0067961,89.9445491 L95.5812604,18.3585777 C95.5812604,18.3585777 86.5883337,10.682241 83.1962914,9.06360374 Z" stroke-width="0.634948005" fill="#000000"></path>
                    <g transform="translate(90.832919, 18.182503)" fill="#FFFFFF">
                        <polygon stroke-width="0.671935268" points="22.1661203 143.523647 28.776243 157.907986 2.27359213 156.181899 1.44608575 142.660603"></polygon>
                        <polygon stroke-width="0.634948005" points="19.0149484 157.271923 19.0149484 174.183252 14.3879057 176.772381 13.6575244 156.923253"></polygon>
                        <polygon stroke-width="0.634948005" points="8.03592007 156.556892 8.80601469 175.672001 14.3477606 175.672001 13.6575244 156.923253"></polygon>
                        <polygon stroke-width="0.634948005" points="2.27359213 156.181899 1.44608575 168.918689 8.42096738 166.114662 8.05059676 156.923253"></polygon>
                        <polygon stroke-width="0.634948005" points="24.2515054 157.613256 21.0653685 171.507818 19.0149484 171.507818 19.0149484 157.271923"></polygon>
                        <path d="M4.74834125,0.176074407 C4.74834125,0.176074407 8.35276393,-0.60454806 9.64776609,1.1215381 C10.9427683,2.84762427 30.5836343,70.3807454 28.6411311,84.4051954 C26.6986279,98.4296455 22.1661203,143.523647 22.1661203,143.523647 L1.44608575,142.660603 L0,132.221666 L4.74834125,0.176074407 Z" stroke-width="0.634948005"></path>
                    </g>
                </g>
                <g transform="translate(71.487804, 0.000000)">
                    <polygon id="Path" stroke-width="0.595905895" fill="#FFFFFF" points="4.76408113 78.3422684 13.5411741 70.7185773 16.1311784 92.1509577 8.58649584 95.4594333"></polygon>
                    <polygon id="Path" stroke-width="0.595905895" fill="#FFFFFF" points="28.3620422 70.7185773 30.2324569 85.6518118 23.1820335 93.7622591 21.5378124 77.3221515"></polygon>
                    <path d="M14.3820622,76.1156172 L14.3820622,76.1117335 C14.9354598,73.998141 17.5548175,66.9600247 19.0138532,63.1138732 C21.8865997,64.6293769 25.0818017,65.6680492 28.4785923,66.125462 L28.9016264,66.4033619 L22.1710685,77.4861297 L22.1689102,77.4934655 L21.7186811,77.3791123 C21.5455825,79.235518 19.9756082,80.6841358 18.0697967,80.6841358 C16.1890218,80.6841358 14.6354509,79.2739234 14.4278189,77.452471 L14.4062355,76.8146821 L14.496454,76.1276998 L14.3820622,76.1156172 Z" id="Path" stroke-width="0.671935268"></path>
                    <path d="M62.8954331,85.7501987 L32.4987107,70.7185773 L31.2766603,66.37445 L32.4987107,66.4033619 C47.8060679,66.4033619 60.2333403,54.8019053 60.2333403,40.5120695 L62.8954331,85.7501987 Z M50.9516282,7.3038978 C49.07517,12.0993967 38.7220594,24.4020758 38.7220594,24.4020758 C38.7220594,24.4020758 -2.03511188,20.9896035 10.4478456,51.1564113 C15.05719,62.2957084 19.297027,66.4033619 19.297027,66.4033619 L13.8666513,73.4125663 L1.02281989,70.7185773 C1.02281989,70.7185773 0.303662022,44.6835882 0.0157398755,39.0738082 C-0.272182271,33.4640282 3.46907897,35.4779392 4.76408113,29.2925094 C6.05908329,23.1075112 11.9586815,0.956215936 23.9011914,0.093172855 C35.844133,-0.769870226 47.6428976,4.6254436 50.8087463,5.45180735 L50.8475963,5.444903 C51.646181,5.30120633 64.4869907,3.10001495 66.9962733,9.37088598 C69.5862776,15.8437091 69.5862776,29.2208768 68.5071091,30.946963 C67.4279406,32.6730492 52.9597448,33.3203315 52.9597448,33.3203315 L50.9516282,7.3038978 Z M60.0917534,40.5953531 C60.0524717,40.621676 60.0049883,40.6540401 59.9501665,40.692014 C59.9799516,40.6708694 60.0075783,40.652314 60.032615,40.6354846 L60.0645584,40.6139086 C60.0736234,40.6078673 60.0826884,40.6013944 60.0917534,40.5953531 Z M60.1798136,40.5383923 L60.1409635,40.562989 L60.2083036,40.521563 L60.1798136,40.5383923 Z" id="Shape" stroke-width="0.671935268" fill="#000000"></path>
                    <path d="M28.3987339,66.114674 C25.0325916,65.6499253 21.8632896,64.6190204 19.0138532,63.1138732 L18.9642115,63.0879819 C10.4884223,58.6704959 4.76408113,50.2105161 4.76408113,40.5120695 C4.76408113,26.2222337 25.8251329,4.95512605 41.1320585,4.95512605 C55.9602648,4.95512605 59.452454,25.507634 60.1970802,39.1808255 L60.2333403,40.5120695 L60.1970802,41.843745 C59.452454,55.5169365 47.3269171,66.4033619 32.4987107,66.4033619 L31.2766603,66.37445 L31.1039934,66.3671141 L28.4785923,66.125462 L28.3987339,66.114674 Z" id="Path" stroke-width="0.671935268" fill-opacity="0" fill="#000000"></path>
                </g>
            </g>
        </g>
    </g>
</svg>