<svg width="800" height="465" viewBox="0 0 800 465" fill="none" xmlns="http://www.w3.org/2000/svg">
<g clip-path="url(#clip0_632_1325)">
<rect width="800" height="465" fill="#001D3D"/>
<mask id="mask0_632_1325" style="mask-type:alpha" maskUnits="userSpaceOnUse" x="192" y="-103" width="357" height="699">
<path d="M549 -103H192V596H549V-103Z" fill="white"/>
</mask>
<g mask="url(#mask0_632_1325)">
<path d="M575.493 417.146H-391.8V596.217H575.493V417.146Z" stroke="white" stroke-width="0.589725"/>
<path fill-rule="evenodd" clip-rule="evenodd" d="M427.007 247.232L427.052 247.221C426.588 243.001 426.402 238.642 426.389 234.622L427.909 263.475L354.604 263.42L357.264 224.817C359.73 226.371 362.536 228.077 365.589 229.831L357.485 229.635L357.264 231.875C365.249 235.403 376.746 240.048 388.826 243.513C402.179 247.343 416.244 249.733 427.052 247.571L427.007 247.232Z" fill="white" stroke="white" stroke-width="0.539536"/>
<path fill-rule="evenodd" clip-rule="evenodd" d="M427.007 247.233L426.985 247.238L427.007 247.233L427.052 247.571C416.244 249.733 402.179 247.343 388.826 243.513C376.746 240.048 365.249 235.403 357.264 231.875L357.485 229.635L425.828 231.286L426.389 238.744C426.402 241.454 426.574 244.383 427.007 247.233ZM417.45 248.385L417.512 248.385L417.375 248.383L417.45 248.385ZM417.309 248.382L417.37 248.383L417.233 248.381L417.309 248.382ZM417.163 248.38L417.229 248.381L417.092 248.378L417.163 248.38ZM417.021 248.377L417.083 248.378L416.955 248.375L417.021 248.377ZM416.88 248.373L416.942 248.375L416.814 248.372L416.88 248.373ZM416.734 248.37L416.796 248.371L416.672 248.367L416.734 248.37ZM416.593 248.365L416.655 248.367L416.531 248.363L416.593 248.365ZM416.447 248.36L416.509 248.362L416.389 248.358L416.447 248.36ZM416.306 248.355L416.367 248.357L416.248 248.353L416.306 248.355ZM416.16 248.349L416.222 248.351L416.107 248.347L416.16 248.349ZM416.018 248.343L416.076 248.345L415.965 248.34L416.018 248.343ZM415.873 248.336L415.93 248.339L415.824 248.334L415.873 248.336ZM415.727 248.329L415.784 248.332L415.683 248.326L415.727 248.329ZM415.581 248.321L415.638 248.324L415.537 248.319L415.581 248.321ZM415.439 248.313L415.493 248.316L415.395 248.311L415.439 248.313ZM415.294 248.305L415.347 248.308L415.254 248.302L415.294 248.305ZM415.148 248.296L415.201 248.299L415.108 248.293L415.148 248.296ZM415.002 248.286L415.055 248.29L414.967 248.284L415.002 248.286ZM414.856 248.276L414.909 248.28L414.821 248.274L414.856 248.276ZM414.71 248.266L414.763 248.27L414.679 248.264L414.71 248.266ZM414.565 248.256L414.613 248.259L414.534 248.253L414.565 248.256ZM414.419 248.244L414.467 248.248L414.388 248.242L414.419 248.244ZM414.273 248.233L414.317 248.237L414.246 248.23L414.273 248.233ZM414.127 248.221L414.171 248.224L414.101 248.218L414.127 248.221ZM413.981 248.208L414.026 248.212L413.955 248.206L413.981 248.208ZM413.831 248.195L413.875 248.199L413.809 248.193L413.831 248.195ZM413.685 248.182L413.725 248.185L413.663 248.18L413.685 248.182ZM413.539 248.168L413.579 248.172L413.522 248.166L413.539 248.168ZM413.394 248.154L413.429 248.157L413.376 248.152L413.394 248.154ZM413.243 248.139L413.279 248.142L413.226 248.138L413.243 248.139ZM413.098 248.124L413.129 248.127L413.08 248.123L413.098 248.124ZM412.947 248.108L412.978 248.112L412.934 248.107L412.947 248.108ZM426.371 247.404C426.256 247.434 426.146 247.462 426.031 247.49C425.916 247.517 425.806 247.544 425.691 247.571C425.916 247.518 426.146 247.463 426.371 247.404Z" fill="#001D3D"/>
<path d="M427.007 247.233L426.985 247.238L427.007 247.233ZM427.007 247.233L427.052 247.571C416.244 249.733 402.179 247.343 388.826 243.513C376.746 240.048 365.249 235.403 357.264 231.875L357.485 229.635L425.828 231.286L426.389 238.744C426.402 241.454 426.574 244.383 427.007 247.233ZM417.45 248.385L417.512 248.385L417.375 248.383L417.45 248.385ZM417.309 248.382L417.37 248.383L417.233 248.381L417.309 248.382ZM417.163 248.38L417.229 248.381L417.092 248.378L417.163 248.38ZM417.021 248.377L417.083 248.378L416.955 248.375L417.021 248.377ZM416.88 248.373L416.942 248.375L416.814 248.372L416.88 248.373ZM416.734 248.37L416.796 248.371L416.672 248.367L416.734 248.37ZM416.593 248.365L416.655 248.367L416.531 248.363L416.593 248.365ZM416.447 248.36L416.509 248.362L416.389 248.358L416.447 248.36ZM416.306 248.355L416.367 248.357L416.248 248.353L416.306 248.355ZM416.16 248.349L416.222 248.351L416.107 248.347L416.16 248.349ZM416.018 248.343L416.076 248.345L415.965 248.34L416.018 248.343ZM415.873 248.336L415.93 248.339L415.824 248.334L415.873 248.336ZM415.727 248.329L415.784 248.332L415.683 248.326L415.727 248.329ZM415.581 248.321L415.638 248.324L415.537 248.319L415.581 248.321ZM415.439 248.313L415.493 248.316L415.395 248.311L415.439 248.313ZM415.294 248.305L415.347 248.308L415.254 248.302L415.294 248.305ZM415.148 248.296L415.201 248.299L415.108 248.293L415.148 248.296ZM415.002 248.286L415.055 248.29L414.967 248.284L415.002 248.286ZM414.856 248.276L414.909 248.28L414.821 248.274L414.856 248.276ZM414.71 248.266L414.763 248.27L414.679 248.264L414.71 248.266ZM414.565 248.256L414.613 248.259L414.534 248.253L414.565 248.256ZM414.419 248.244L414.467 248.248L414.388 248.242L414.419 248.244ZM414.273 248.233L414.317 248.237L414.246 248.23L414.273 248.233ZM414.127 248.221L414.171 248.224L414.101 248.218L414.127 248.221ZM413.981 248.208L414.026 248.212L413.955 248.206L413.981 248.208ZM413.831 248.195L413.875 248.199L413.809 248.193L413.831 248.195ZM413.685 248.182L413.725 248.185L413.663 248.18L413.685 248.182ZM413.539 248.168L413.579 248.172L413.522 248.166L413.539 248.168ZM413.394 248.154L413.429 248.157L413.376 248.152L413.394 248.154ZM413.243 248.139L413.279 248.142L413.226 248.138L413.243 248.139ZM413.098 248.124L413.129 248.127L413.08 248.123L413.098 248.124ZM412.947 248.108L412.978 248.112L412.934 248.107L412.947 248.108ZM426.371 247.404C426.256 247.434 426.146 247.462 426.031 247.49C425.916 247.517 425.806 247.544 425.691 247.571C425.916 247.518 426.146 247.463 426.371 247.404Z" stroke="white" stroke-width="0.539536"/>
<path fill-rule="evenodd" clip-rule="evenodd" d="M412.152 118.22C416.637 119.751 421.064 121.744 425.311 123.051L336.276 225.742C336.276 225.742 337.159 228.687 337.752 233.988C336.249 237.142 331.658 249.658 328.243 262.335C327.469 262.857 326.807 263.427 326.263 264.024C322.728 261.08 320.077 260.491 321.549 248.123C323.02 235.754 341.286 143.583 352.775 126.503C354.569 123.832 357.26 121.608 360.565 119.769C363.017 122.301 366.795 124.067 372.539 123.922C377.515 121.233 383.802 119.69 387.96 118.9C388.345 119.207 388.751 119.493 389.175 119.762L389.242 119.807C392.162 121.681 395.755 122.781 399.639 122.781C402.338 122.781 404.897 122.25 407.186 121.291L407.243 121.268C409.077 120.505 410.738 119.471 412.152 118.22ZM442.579 120.771C445.367 123.669 447.589 127.322 448.804 131.804C452.635 145.939 452.635 234.871 448.217 247.534C443.798 260.196 438.787 263.436 438.787 263.436L427.507 255.784L426.389 234.622C426.402 238.642 426.588 243.001 427.052 247.221L427.007 247.232C426.574 244.383 426.402 241.454 426.389 238.744L425.828 231.286L376.715 230.1H356.902L355.276 253.647C340.99 247.687 341.874 233.988 343.054 228.687C344.03 224.289 407.539 149.422 429.142 124.065C434.029 125.037 438.584 124.572 442.579 120.771Z" fill="#001D3D" stroke="white" stroke-width="0.539536"/>
<path fill-rule="evenodd" clip-rule="evenodd" d="M425.311 123.052C426.561 123.459 427.803 123.794 429.022 124.041L429.142 124.065C407.539 149.423 344.03 224.289 343.054 228.687C341.91 233.822 341.048 246.838 353.981 253.066L355.276 253.647C353.95 270.208 352.775 297.89 352.775 297.89C352.775 297.89 330.973 300.245 325.38 291.117C322.737 286.814 324.947 274.5 328.243 262.335L328.402 261.741C331.8 249.27 336.271 237.093 337.752 233.988C337.16 228.687 336.276 225.743 336.276 225.743L425.311 123.052Z" fill="white" stroke="white" stroke-width="0.539536"/>
<path fill-rule="evenodd" clip-rule="evenodd" d="M406.633 116.649C408.431 117.019 410.221 117.555 412.006 118.17L412.147 118.219C410.72 119.482 409.041 120.52 407.185 121.282V121.291L405.431 121.925L407.185 121.282L406.633 116.649ZM383.55 112.848C385.821 112.492 388.11 112.202 390.381 111.978C390.368 113.806 390.222 115.506 389.926 116.992C388.128 116.077 385.662 114.654 383.55 112.848ZM410.773 110.932C409.819 113.171 408.431 114.239 406.434 114.975L405.961 110.985L410.773 110.932Z" fill="#001D3D" stroke="white" stroke-width="0.539536"/>
<path fill-rule="evenodd" clip-rule="evenodd" d="M403.682 91.7606L407.186 121.291L405.431 121.925L405.37 121.941L403.77 122.344L403.271 122.44L401.976 122.632L401.45 122.692L399.639 122.781L398.216 122.73L397.761 122.684L396.824 122.583L396.316 122.495L395.463 122.342L394.968 122.222L394.133 122.009L393.691 121.869L392.838 121.585L392.476 121.442L391.579 121.07L391.314 120.946L390.355 120.464L390.214 120.385L389.175 119.762C389.719 118.41 390.072 116.699 390.249 114.756C390.267 113.612 390.236 112.267 390.165 110.811L390.227 110.861C389.878 106.014 389.056 99.3975 388 95.9318C393.581 96.4649 399.06 94.9021 403.682 91.7606Z" fill="#001D3D" stroke="white" stroke-width="0.539536"/>
<path fill-rule="evenodd" clip-rule="evenodd" d="M380.312 93.8235C379.507 93.4543 378.734 93.0271 377.992 92.558L377.886 92.4913C368.876 86.7954 364.056 75.0377 366.733 63.0433C367.993 57.377 370.75 52.4677 374.426 48.7286C375.376 47.7581 376.384 46.8658 377.453 46.0685L389.918 51.1125C389.918 51.1125 386.387 43.7641 400.169 42.3577L400.222 42.3762C400.898 42.772 411.635 49.5153 412.828 76.1685L412.841 76.4737C412.912 78.003 412.943 79.5954 412.943 81.2553C410.72 85.5802 407.53 89.1616 403.77 91.7011L403.682 91.7607C399.639 94.5095 394.937 96.0498 390.086 96.0344L388 95.9319L387.907 95.9252C386.988 95.8559 386.069 95.7101 385.15 95.5051C383.573 95.1544 382.07 94.646 380.656 93.9781L380.312 93.8235Z" fill="#001D3D" stroke="white" stroke-width="0.539536"/>
<path fill-rule="evenodd" clip-rule="evenodd" d="M403.682 91.7606L403.77 91.701C407.53 89.1616 403.209 84.9913 408.966 80.0772C408.966 80.0772 400.518 75.8593 396.921 65.3561C392.043 51.1323 400.752 42.6862 400.222 42.3762L400.191 42.3545C402.414 41.4256 404.596 41.0174 406.722 41.0227L406.916 41.0245C421.67 41.2405 431.819 58.4997 427.918 67.0143C432.336 68.3394 439.627 72.7566 436.534 78.2781C443.162 80.7075 442.72 95.9468 439.627 99.7014C447.139 99.2597 453.325 110.523 442.601 120.755L442.534 120.815C438.549 124.576 434.011 125.034 429.142 124.065L429.022 124.041C427.803 123.794 426.561 123.459 425.311 123.051L425.209 123.021C421.003 121.702 417.269 124.588 412.815 123.079C412.815 123.079 397.686 118.918 399.351 105.689C400.094 99.83 403.682 91.7606 403.682 91.7606ZM383.573 112.869C385.685 114.664 388.133 116.084 389.927 116.992L389.957 117.01C391.416 117.77 392.423 118.18 392.423 118.18C392.423 118.18 391.314 118.306 389.538 118.628L388.084 118.875L387.96 118.9C383.802 119.69 377.515 121.233 372.539 123.922C366.795 124.067 363.017 122.301 360.565 119.769L360.534 119.739C355.545 114.597 356.04 106.334 356.632 104.707C352.656 102.278 353.318 99.6276 355.528 96.9773C333.435 81.0755 361.272 69.1491 361.272 69.1491C351.993 55.0141 367.679 52.5847 374.426 48.7161V48.7285C370.75 52.4676 367.993 57.3769 366.733 63.0432C364.047 75.0849 368.912 86.8872 377.992 92.5579V92.5703C378.403 95.9415 377.634 100.15 379.304 106.902C379.861 109.146 381.549 111.166 383.551 112.848L383.573 112.869ZM380.656 93.9781C382.07 94.646 383.573 95.1544 385.15 95.5051C386.069 95.71 386.988 95.8558 387.907 95.9252L388 95.9318C389.224 99.9479 389.935 105.988 390.165 110.811C383.851 105.967 381.5 98.4028 380.656 93.9781ZM377.453 46.0685C377.736 45.852 377.453 46.0685 377.453 46.0685L371.36 43.6032C379.313 25.4928 399.418 36.094 400.191 42.3545L400.169 42.3576C386.387 43.764 389.918 51.1125 389.918 51.1125L377.453 46.0685Z" fill="white" stroke="white" stroke-width="0.539536"/>
<path fill-rule="evenodd" clip-rule="evenodd" d="M411.794 65.9489C411.794 65.9489 417.857 64.1052 419.332 67.6389C420.804 71.1727 416.239 76.915 416.239 76.915L411.794 65.9489Z" fill="#001D3D" stroke="white" stroke-width="0.539536"/>
<path fill-rule="evenodd" clip-rule="evenodd" d="M433.772 260.034C433.772 260.034 431.408 269.761 429.345 271.234C427.286 272.706 427.135 270.203 427.135 270.203L428.169 263.43V255.921L433.772 260.034Z" fill="#001D3D" stroke="white" stroke-width="0.539536"/>
<path fill-rule="evenodd" clip-rule="evenodd" d="M438.787 263.436C438.787 263.436 436.565 275.062 432.292 280.216C429.053 277.565 430.525 276.24 430.525 276.24C430.525 276.24 434.665 263.264 433.772 260.034C437.74 261.074 438.787 263.436 438.787 263.436Z" fill="#001D3D" stroke="white" stroke-width="0.539536"/>
<path fill-rule="evenodd" clip-rule="evenodd" d="M322.927 261.088C322.927 261.088 320.373 266.254 321.548 270.377C322.728 274.5 323.908 276.414 323.908 276.414L325.689 273.031L324.938 267.432L326.263 264.024L322.927 261.088Z" fill="#001D3D" stroke="white" stroke-width="0.539536"/>
<path d="M348.652 211.468L357.339 149.42" stroke="white" stroke-width="0.539536"/>
<path fill-rule="evenodd" clip-rule="evenodd" d="M396.656 349.817L416.093 357.759L427.909 263.475L397.085 263.452L396.656 349.817ZM356.712 350.444C354.317 342.812 352.589 336.329 352.183 332.491C351.038 321.682 352.872 288.932 354.617 263.42L385.358 263.443C380.992 291.772 375.76 328.893 377.369 334.258C377.886 335.982 378.672 339.878 379.583 345.035L356.712 350.444Z" fill="#001D3D" stroke="white" stroke-width="0.539536"/>
<path fill-rule="evenodd" clip-rule="evenodd" d="M418.095 390.375L415.886 410.474L395.118 410.253L390.921 390.596L418.095 390.375Z" fill="#001D3D" stroke="white" stroke-width="0.539536"/>
<path fill-rule="evenodd" clip-rule="evenodd" d="M377.241 447.644C379.03 440.484 384.288 421.534 391.588 413.265L391.641 413.204C392.745 411.936 393.912 410.929 395.118 410.253C404.176 410.916 415.886 410.474 415.886 410.474C415.886 410.474 433.56 439.406 431.793 452.658C422.955 453.1 376.56 450.449 376.56 450.449C376.56 450.449 376.763 449.535 377.161 447.976L377.241 447.644Z" fill="#001D3D" stroke="white" stroke-width="0.539536"/>
<path fill-rule="evenodd" clip-rule="evenodd" d="M371.209 391.502C366.596 379.328 360.72 363.267 356.712 350.444L379.583 345.035C381.514 355.657 384.054 371.625 386.109 384.938L389.741 408.91L379.728 389.863L371.209 391.502ZM396.453 390.552L411.997 390.429L416.094 357.759L396.656 349.817L396.453 390.552Z" fill="white" stroke="white" stroke-width="0.539536"/>
<path fill-rule="evenodd" clip-rule="evenodd" d="M379.728 389.863L389.741 408.91L366.473 411.949L355.647 394.501L379.728 389.863Z" fill="#001D3D" stroke="white" stroke-width="0.539536"/>
<path fill-rule="evenodd" clip-rule="evenodd" d="M363.11 419.312C365.165 416.534 366.472 413.773 366.472 411.949L389.741 408.91C390.421 410.416 391.035 411.865 391.588 413.265C384.178 421.667 378.862 441.085 377.161 447.976C365.165 448.02 346.469 448.02 340.624 447.728C338.101 440.356 345.29 433.328 351.418 429.335V429.379H372.482V427.025H355.232L356.261 426.314C356.646 426.013 357.034 425.713 357.419 425.408L358.108 424.816H371.302V423.049H359.973L360.68 422.312L361.921 420.841H370.458V419.312H363.11Z" fill="#001D3D" stroke="white" stroke-width="0.539536"/>
<path d="M342.559 437.582H370.639" stroke="white" stroke-width="0.539536"/>
<path d="M382.128 440.789H424.546" stroke="white" stroke-width="0.539536"/>
<path fill-rule="evenodd" clip-rule="evenodd" d="M355.232 427.025H372.482V429.379H351.418V429.335L353.88 427.851C354.335 427.599 354.785 427.325 355.232 427.025Z" fill="white"/>
<path fill-rule="evenodd" clip-rule="evenodd" d="M359.973 423.049H371.302V424.816H358.108C358.749 424.255 359.376 423.663 359.973 423.049Z" fill="white"/>
<path fill-rule="evenodd" clip-rule="evenodd" d="M363.11 419.312L362.58 420.063L361.921 420.841H370.458V419.312H363.11Z" fill="white"/>
<path d="M416.225 427.467H395.163V429.822H416.225V427.467Z" fill="white"/>
<path d="M415.048 423.491H396.784V425.258H415.048V423.491Z" fill="white"/>
<path d="M414.203 419.754H398.401V421.283H414.203V419.754Z" fill="white"/>
</g>
</g>
<defs>
<clipPath id="clip0_632_1325">
<rect width="800" height="465" fill="white"/>
</clipPath>
</defs>
</svg>
