<?xml version="1.0" encoding="UTF-8"?>
<svg width="621px" height="465px" viewBox="0 0 621 465" version="1.1" xmlns="http://www.w3.org/2000/svg" xmlns:xlink="http://www.w3.org/1999/xlink">
    <title>Artboard</title>
    <defs>
        <rect id="path-1" x="-3.98207257e-15" y="8.37085093e-16" width="357" height="699"></rect>
    </defs>
    <g id="Artboard" stroke="none" stroke-width="1" fill="none" fill-rule="evenodd">
        <g id="g_04" transform="translate(103.000000, -103.000000)">
            <rect id="Rectangle" x="0" y="0" width="357" height="699"></rect>
            <g id="Clipped">
                <mask id="mask-2" fill="white">
                    <use xlink:href="#path-1"></use>
                </mask>
                <g id="Rectangle"></g>
                <g id="Group" mask="url(#mask-2)">
                    <g transform="translate(-583.800310, 136.527983)">
                        <g id="Layer3" transform="translate(0.000000, 383.618586)" stroke="#000000" stroke-width="0.589725268">
                            <rect id="Rectangle" x="1.85082926e-14" y="0" width="967.293393" height="179.070065"></rect>
                        </g>
                        <g id="Group" transform="translate(712.934411, 0.000000)">
                            <path d="M105.873334,213.704544 L105.91752,213.693501 C105.453566,209.47333 105.267985,205.114459 105.254729,201.094385 L106.774729,229.947391 L33.4701067,229.891734 L36.1301056,191.288692 C38.595686,192.842655 41.4014989,194.549011 44.4547535,196.303072 L36.3510358,196.107391 L36.1301056,198.3469 C44.114521,201.875342 55.6117257,206.519563 67.692186,209.984839 L67.692186,209.984839 C81.0452039,213.814974 95.1096169,216.205109 105.91752,214.0429 L105.873334,213.704544 Z" id="Path" stroke="#000000" stroke-width="0.539535885" fill="#000000"></path>
                            <path d="M105.873334,213.704544 L105.851241,213.710287 L105.873334,213.704544 C105.873334,213.704544 105.91752,214.0429 105.91752,214.0429 C95.1096169,216.205109 81.0452039,213.814974 67.692186,209.984839 L67.692186,209.984839 C55.6117257,206.519563 44.114521,201.875342 36.1301056,198.3469 L36.3510358,196.107391 L104.693567,197.757649 L105.254729,205.216495 C105.267985,207.925992 105.44031,210.854581 105.873334,213.704544 Z M96.3158955,214.856544 L96.3777559,214.856986 L96.2407792,214.855219 L96.3158955,214.856544 Z M96.1745002,214.854336 L96.2363606,214.855219 L96.099384,214.853011 L96.1745002,214.854336 Z M96.0286863,214.851685 L96.0949654,214.853011 L95.9579887,214.85036 L96.0286863,214.851685 Z M95.887291,214.849035 L95.9491515,214.85036 L95.821012,214.847268 L95.887291,214.849035 Z M95.7458957,214.845501 L95.8077562,214.846827 L95.6796167,214.843735 L95.7458957,214.845501 Z M95.6000818,214.841526 L95.6619423,214.843293 L95.5382214,214.839317 L95.6000818,214.841526 Z M95.4586865,214.837109 L95.520547,214.838876 L95.3968261,214.8349 L95.4586865,214.837109 Z M95.3128726,214.83225 L95.3747331,214.834017 L95.2554308,214.830041 L95.3128726,214.83225 Z M95.1714774,214.826949 L95.2333378,214.829158 L95.1140355,214.824741 L95.1714774,214.826949 Z M95.0256635,214.821207 L95.0875239,214.823416 L94.9726402,214.818557 L95.0256635,214.821207 Z M94.8842682,214.814581 L94.94171,214.817232 L94.8312449,214.812373 L94.8842682,214.814581 Z M94.7384543,214.807955 L94.7958961,214.810606 L94.6898496,214.805747 L94.7384543,214.807955 Z M94.5926404,214.800888 L94.6500822,214.80398 L94.5484543,214.798238 L94.5926404,214.800888 Z M94.4468265,214.793379 L94.5042683,214.796471 L94.4026404,214.790728 L94.4468265,214.793379 Z M94.3054312,214.785428 L94.3584544,214.78852 L94.2612452,214.782778 L94.3054312,214.785428 Z M94.1596173,214.776593 L94.2126405,214.780127 L94.1198499,214.774385 L94.1596173,214.776593 Z M94.0138034,214.767759 L94.0668266,214.771293 L93.974036,214.765109 L94.0138034,214.767759 Z M93.8679895,214.758483 L93.9210127,214.761575 L93.8326407,214.755833 L93.8679895,214.758483 Z M93.7221756,214.748324 L93.7751988,214.751857 L93.6868268,214.746115 L93.7221756,214.748324 Z M93.5763617,214.738164 L93.6293849,214.741698 L93.5454315,214.735955 L93.5763617,214.738164 Z M93.4305478,214.727563 L93.4791524,214.731097 L93.3996176,214.724912 L93.4305478,214.727563 Z M93.2847339,214.716078 L93.3333386,214.720054 L93.2538037,214.71387 L93.2847339,214.716078 Z M93.13892,214.704593 L93.1831061,214.708569 L93.1124084,214.702385 L93.13892,214.704593 Z M92.9931061,214.692667 L93.0372922,214.696201 L92.9665945,214.690459 L92.9931061,214.692667 Z M92.8472922,214.680299 L92.8914783,214.683833 L92.8207806,214.67809 L92.8472922,214.680299 Z M92.6970597,214.667047 L92.7412458,214.671023 L92.6749667,214.665281 L92.6970597,214.667047 Z M92.5512458,214.653796 L92.5910133,214.65733 L92.5291528,214.652029 L92.5512458,214.653796 Z M92.4054319,214.640103 L92.4451994,214.643636 L92.3877575,214.638336 L92.4054319,214.640103 Z M92.2596181,214.625968 L92.2949669,214.629501 L92.2419436,214.624201 L92.2596181,214.625968 Z M92.1093856,214.611391 L92.1447344,214.614483 L92.0917111,214.609624 L92.1093856,214.611391 Z M91.9635717,214.595931 L91.9945019,214.599465 L91.9458972,214.594606 L91.9635717,214.595931 Z M91.8133392,214.580471 L91.8442694,214.584005 L91.8000834,214.579146 L91.8133392,214.580471 Z M105.237055,213.876373 C105.122171,213.905526 105.011706,213.934238 104.896822,213.961624 C104.781939,213.989452 104.671474,214.016397 104.55659,214.0429 C104.781939,213.990336 105.011706,213.934679 105.237055,213.876373 Z" id="Shape" stroke="#000000" stroke-width="0.539535885" fill="#FFFFFF"></path>
                            <path d="M91.0179906,84.692031 C95.5028726,86.2234665 99.9303127,88.2164972 104.17659,89.5235401 L15.1417419,192.214532 C15.1417419,192.214532 16.0254625,195.159023 16.6175553,200.459637 C15.1152303,203.614385 10.5243019,216.130017 7.1087219,228.807317 C6.3354664,229.328986 5.67267597,229.899244 5.12918781,230.496446 C1.59430551,227.551955 -1.05685622,226.962704 0.414538537,214.594606 C1.8859333,202.226508 20.1524376,110.055024 31.6408051,92.9751229 C33.4347579,90.3040554 36.125687,88.0795646 39.430802,86.2411352 C41.8831266,88.7726198 45.6610321,90.539491 51.4052158,90.3941658 C56.3805626,87.7054297 62.6682345,86.1625095 66.8261399,85.3718346 C67.2105583,85.6788285 67.6170698,85.9646199 68.0412557,86.2345095 L68.1075347,86.2786812 C71.0282312,88.1533315 74.6205553,89.2532088 78.5045073,89.2532088 C81.2042736,89.2532088 83.7626447,88.7218223 86.051481,87.7632947 L86.1089228,87.7403254 C87.942643,86.9765953 89.6040377,85.9434174 91.0179906,84.692031 Z M121.44449,87.2429512 C124.232629,90.1406198 126.455186,93.7936259 127.670302,98.2757363 C131.50123,112.410705 131.50123,201.343072 127.082627,214.005796 C122.664024,226.66852 117.653329,229.907636 117.653329,229.907636 L106.372636,222.255759 L105.254729,201.094385 C105.267985,205.114459 105.453566,209.47333 105.91752,213.693501 C105.91752,213.693501 105.873334,213.704544 105.873334,213.704544 C105.44031,210.854581 105.267985,207.925992 105.254729,205.216495 L104.693567,197.757649 L55.5807955,196.571637 L35.7677802,196.571637 L34.1417343,220.11917 C19.8563912,214.159514 20.7401118,200.459637 21.9198788,195.159023 C22.89639,190.761281 86.4049692,115.894534 108.007519,90.5368407 C112.894494,91.5095032 117.450073,91.0439327 121.44449,87.2429512 Z" id="Shape" stroke="#000000" stroke-width="0.539535885" fill="#FFFFFF"></path>
                            <path d="M104.17659,89.5235401 C105.427055,89.9312456 106.668682,90.2665094 107.888216,90.5134296 L108.007519,90.5368407 C86.4049692,115.894534 22.89639,190.761281 21.9198788,195.159023 C20.7754606,200.293992 19.9138331,213.31009 32.8470837,219.538311 L34.1417343,220.11917 C32.8161535,236.680495 31.6408051,264.361623 31.6408051,264.361623 C31.6408051,264.361623 9.83941848,266.717304 4.24546724,257.588765 C1.60314271,253.28555 3.81244415,240.971783 7.1087219,228.807317 L7.26779161,228.213207 C10.6656972,215.741747 15.1373233,203.564913 16.6175553,200.459637 C16.0254625,195.159023 15.1417419,192.214532 15.1417419,192.214532 L104.17659,89.5235401 Z" id="Path" stroke="#000000" stroke-width="0.539535885" fill="#000000"></path>
                            <path d="M85.4991556,83.1208408 C87.297527,83.491442 89.0870612,84.0272457 90.8721767,84.6416751 L91.013572,84.6911475 C89.5863633,85.9535769 87.9072942,86.9920555 86.051481,87.7540186 L86.051481,87.7632947 L84.2972957,88.396718 L86.051481,87.7540186 L85.4991556,83.1208408 Z M62.4163742,79.320301 C64.6875361,78.9638347 66.9763724,78.6736261 69.2475342,78.4496752 C69.2342784,80.2783868 69.0884645,81.9781169 68.7924181,83.4640555 C66.9940468,82.5488163 64.5284664,81.126485 62.4163742,79.320301 Z M89.6393865,77.4041292 C88.6849683,79.642755 87.297527,80.7112703 85.3003185,81.4467304 L84.827528,77.4566936 L89.6393865,77.4041292 Z" id="Shape" stroke="#000000" stroke-width="0.539535885" fill="#FFFFFF"></path>
                            <path d="M82.5475289,58.2326939 L86.051481,87.7632947 L84.2972957,88.396718 L84.2354352,88.4135033 L82.635901,88.8163499 L82.1365988,88.9122027 L80.8419482,89.1043499 L80.3161345,89.1644235 L78.5045073,89.2532088 L77.0817171,89.2024113 L76.6266011,89.1560309 L75.6898572,89.0548775 L75.1817179,88.9674174 L74.3289276,88.8136996 L73.834044,88.6939941 L72.9989281,88.4806444 L72.5570678,88.3410616 L71.7042774,88.057037 L71.341952,87.9139205 L70.4449756,87.5424358 L70.1798594,87.4178714 L69.2210226,86.936399 L69.0796273,86.8568898 L68.0412557,86.2345095 C68.5847438,84.8819696 68.938232,83.1711966 69.1149762,81.2285218 C69.1326506,80.0835893 69.1017203,78.7390004 69.0310227,77.2835403 L69.0928831,77.3334544 C68.7438135,72.4860434 67.9219534,65.8695527 66.8659073,62.403835 C72.4466027,62.9369883 77.9256703,61.3741908 82.5475289,58.2326939 Z" id="Path" stroke="#000000" stroke-width="0.539535885" fill="#FFFFFF"></path>
                            <path d="M59.1775383,60.295516 C58.3733525,59.9262399 57.600097,59.4990988 56.8577718,59.0299945 L56.7517253,58.9632951 C47.742194,53.2673443 42.9214983,41.5097003 45.5991716,29.5152956 C46.8584734,23.8489398 49.6156816,18.9396883 53.2919592,15.2005473 C54.2419589,14.2300933 55.2494003,13.3378234 56.3187022,12.5405228 L68.7835809,17.5844982 C68.7835809,17.5844982 65.2531172,10.2360811 79.0347396,8.82965169 L79.0877629,8.84820383 C79.7638091,9.24398297 90.5010141,15.9872467 91.6940369,42.6404978 L91.7072927,42.9457248 C91.7779903,44.4749518 91.8089206,46.0673444 91.8089206,47.7273198 C89.5863633,52.0521787 86.396132,55.6336265 82.635901,58.173062 L82.5475289,58.2326939 C78.5045073,60.9815037 73.8031138,62.5217736 68.9514878,62.5064288 L66.8659073,62.403835 L66.7731166,62.3972092 C65.8540472,62.3278595 64.9349778,62.1820926 64.0159084,61.9771356 C62.4384672,61.6264117 60.9361422,61.1179945 59.5221893,60.4501172 L59.1775383,60.295516 Z" id="Path" stroke="#000000" stroke-width="0.539535885" fill="#FFFFFF"></path>
                            <path d="M82.5475289,58.2326939 L82.635901,58.173062 C86.396132,55.6336265 82.0747384,51.4633689 87.832178,46.5492585 C87.832178,46.5492585 79.3838093,42.3312954 75.7870665,31.8281299 C70.9089289,17.6043755 79.6179952,9.15828972 79.0877629,8.84820383 L79.0568326,8.82655966 C81.2793899,7.89762716 83.4621797,7.48947993 85.5875277,7.4947296 L85.7819462,7.49654741 C100.535661,7.71254741 110.685192,24.9717864 106.783566,33.4863384 C111.202169,34.8114918 118.492863,39.2286696 115.399841,44.750142 C122.027746,47.1795898 121.585885,62.4188534 118.492863,66.1734545 C126.004488,65.7317367 132.190532,76.9955403 121.466583,87.2270493 L121.400304,87.2871229 C117.414724,91.0479082 112.876819,91.5059695 108.007519,90.5368407 L107.888216,90.5134296 C106.668682,90.2665094 105.427055,89.9312456 104.17659,89.5235401 L104.074962,89.4926198 C99.8684522,88.1740923 96.1347328,91.0602763 91.6807811,89.5509266 C91.6807811,89.5509266 76.5514848,85.3903868 78.2172981,72.1609391 C78.9596234,66.3019944 82.5475289,58.2326939 82.5475289,58.2326939 Z M62.4384672,79.3410617 C64.5505594,81.1362028 66.9984654,82.5558837 68.7924181,83.4640555 L68.8233484,83.4821659 C70.2814873,84.2419205 71.2889288,84.6518346 71.2889288,84.6518346 C71.2889288,84.6518346 70.1798594,84.7777242 68.4035811,85.1001782 L66.9498607,85.3475401 L66.8261399,85.3718346 C62.6682345,86.1625095 56.3805626,87.7054297 51.4052158,90.3941658 C45.6610321,90.539491 41.8831266,88.7726198 39.430802,86.2411352 L39.3998718,86.2110984 C34.4112691,81.0690617 34.9061526,72.8062888 35.4982454,71.1794422 C31.5215028,68.7499944 32.1842933,66.0996877 34.3935947,63.449381 C12.3005803,47.5475407 40.1377784,35.6211605 40.1377784,35.6211605 C30.8587124,21.4861914 46.5447526,19.0567436 53.2919592,15.1881792 L53.2919592,15.2005473 C49.6156816,18.9396883 46.8584734,23.8489398 45.5991716,29.5152956 C42.9126611,41.5569641 47.7775428,53.3592216 56.8577718,59.0299945 L56.8577718,59.0423626 C57.2687018,62.4135527 56.4998649,66.6222398 58.1700968,73.3743379 C58.7268408,75.6178225 60.4147471,77.6382396 62.4163742,79.320301 L62.4384672,79.3410617 Z M59.5221893,60.4501172 C60.9361422,61.1179945 62.4384672,61.6264117 64.0159084,61.9771356 C64.9349778,62.1820926 65.8540472,62.3278595 66.7731166,62.3972092 L66.8659073,62.403835 C68.0898603,66.4199331 68.8012553,72.4604238 69.0310227,77.2835403 C62.7168392,72.4392213 60.3661424,64.8748042 59.5221893,60.4501172 Z M56.3187022,12.5405228 C56.6014928,12.3240811 56.3187022,12.5405228 56.3187022,12.5405228 L50.2254488,10.0752958 C58.178934,-8.03513334 78.2835771,2.5660935 79.0568326,8.82655966 L79.0347396,8.82965169 C65.2531172,10.2360811 68.7835809,17.5844982 68.7835809,17.5844982 L56.3187022,12.5405228 Z" id="Shape" stroke="#000000" stroke-width="0.539535885" fill="#000000"></path>
                            <path d="M90.6600838,32.4209151 C90.6600838,32.4209151 96.722407,30.5771851 98.1982203,34.1109274 C99.6696151,37.6446697 95.1051983,43.3870009 95.1051983,43.3870009 L90.6600838,32.4209151 Z" id="Path" stroke="#000000" stroke-width="0.539535885" fill="#FFFFFF"></path>
                            <path d="M112.638215,226.505968 C112.638215,226.505968 110.274262,236.233477 108.210774,237.705722 C106.151706,239.178409 106.001473,236.675194 106.001473,236.675194 L107.035426,229.902336 L107.035426,222.393133 L112.638215,226.505968 Z" id="Path" stroke="#000000" stroke-width="0.539535885" fill="#FFFFFF"></path>
                            <path d="M117.653329,229.907636 C117.653329,229.907636 115.430772,241.53409 111.157983,246.687611 C107.919147,244.037305 109.390541,242.712151 109.390541,242.712151 C109.390541,242.712151 113.530772,229.735808 112.638215,226.505968 C116.60612,227.546213 117.653329,229.907636 117.653329,229.907636 Z" id="Path" stroke="#000000" stroke-width="0.539535885" fill="#FFFFFF"></path>
                            <path d="M1.79314264,227.559906 C1.79314264,227.559906 -0.76080983,232.726237 0.414538537,236.849231 C1.59430551,240.971783 2.77407248,242.885746 2.77407248,242.885746 L4.55476944,239.50263 L3.80360695,233.904299 L5.12918781,230.496446 L1.79314264,227.559906 Z" id="Path" stroke="#000000" stroke-width="0.539535885" fill="#FFFFFF"></path>
                            <line x1="27.5182486" y1="177.940422" x2="36.2052219" y2="115.891883" id="Path" stroke="#000000" stroke-width="0.539535885"></line>
                            <path d="M75.5219503,316.289525 L94.9593844,324.231169 L106.774729,229.947391 L75.9505548,229.92398 L75.5219503,316.289525 Z M35.5777803,316.916322 C33.1828975,309.284322 31.4552238,302.800789 31.0487123,298.962703 C29.9042942,288.15431 31.7380144,255.403587 33.4833625,229.891734 L64.2235828,229.915145 C59.8580031,258.244274 54.6263773,295.365353 56.2347488,300.729574 C56.7517253,302.45404 57.5382366,306.349991 58.4484688,311.506604 L35.5777803,316.916322 Z" id="Shape" stroke="#000000" stroke-width="0.539535885" fill="#FFFFFF"></path>
                            <polygon id="Path" stroke="#000000" stroke-width="0.539535885" fill="#FFFFFF" points="96.9610115 356.84761 94.7517101 376.945769 73.9842765 376.72491 69.7866038 357.068469"></polygon>
                            <path d="M56.1066093,414.116321 C57.8961434,406.956075 63.1542809,388.006382 70.4538128,379.737425 L70.5068361,379.675585 C71.6114868,378.407855 72.7779979,377.400738 73.9842765,376.72491 C83.0424124,377.387487 94.7517101,376.945769 94.7517101,376.945769 C94.7517101,376.945769 112.426122,405.878284 110.65868,419.129817 C101.821475,419.571535 55.4261444,416.921229 55.4261444,416.921229 C55.4261444,416.921229 55.6294002,416.006873 56.0270744,414.447609 L56.1066093,414.116321 Z" id="Path" stroke="#000000" stroke-width="0.539535885" fill="#FFFFFF"></path>
                            <path d="M50.0752163,357.97399 C45.4621949,345.800248 39.5854531,329.739389 35.5777803,316.916322 L58.4484688,311.506604 C60.3793983,322.128592 62.9200949,338.09669 64.9747453,351.410064 L68.6068368,375.382088 L58.5942827,356.335217 L50.0752163,357.97399 Z M75.3186946,357.024297 L90.8633395,356.900616 L94.9593844,324.231169 L75.5219503,316.289525 L75.3186946,357.024297 Z" id="Shape" stroke="#000000" stroke-width="0.539535885" fill="#000000"></path>
                            <polygon id="Path" stroke="#000000" stroke-width="0.539535885" fill="#FFFFFF" points="58.5942827 356.335217 68.6068368 375.382088 45.338474 378.421106 34.512897 360.973254"></polygon>
                            <path d="M41.9759172,385.784542 C44.0305676,383.006137 45.338474,380.245401 45.338474,378.421106 L68.6068368,375.382088 C69.2873017,376.888346 69.9014875,378.33718 70.4538128,379.737425 C63.0438158,388.138898 57.7282365,407.556812 56.0270744,414.447609 C44.0305676,414.491781 25.3354588,414.491781 19.4896472,414.200247 C16.9666249,406.827977 24.1556918,399.800247 30.284294,395.807118 L30.284294,395.85129 L51.347774,395.85129 L51.347774,393.496934 L34.0975483,393.496934 L35.1270828,392.785769 C35.5115012,392.485401 35.9003383,392.185033 36.2847567,391.880247 L36.9740588,391.288346 L50.168007,391.288346 L50.168007,389.521474 L38.8387092,389.521474 L39.5456857,388.783806 L40.7873131,387.312885 L49.3240538,387.312885 L49.3240538,385.784542 L41.9759172,385.784542 Z" id="Path" stroke="#000000" stroke-width="0.539535885" fill="#FFFFFF"></path>
                            <g transform="translate(21.424995, 385.784542)">
                                <line x1="0" y1="18.2694476" x2="28.0802213" y2="18.2694476" id="Path" stroke="#000000" stroke-width="0.539535885"></line>
                                <line x1="39.5685888" y1="21.4763187" x2="81.9871765" y2="21.4763187" id="Path" stroke="#000000" stroke-width="0.539535885"></line>
                                <path d="M12.6725531,7.71239253 L29.9227787,7.71239253 L29.9227787,10.0667483 L8.85929878,10.0667483 L8.85929878,10.0225765 L11.3204606,8.53840478 C11.7755767,8.28662565 12.2262742,8.01276062 12.6725531,7.71239253 Z" id="Path" fill="#000000"></path>
                                <path d="M17.413714,3.73693246 L28.7430118,3.73693246 L28.7430118,5.5038036 L15.5490635,5.5038036 C16.189761,4.94282201 16.8172026,4.35092018 17.413714,3.73693246 Z" id="Path" fill="#000000"></path>
                                <polygon id="Path" fill="#000000" points="20.550922 0 20.0206897 0.750920234 19.3623178 1.52834354 27.8990586 1.52834354 27.8990586 0"></polygon>
                                <rect id="Rectangle" fill="#000000" x="52.6034673" y="8.15411031" width="21.0621544" height="2.35568095"></rect>
                                <rect id="Rectangle" fill="#000000" x="54.2250946" y="4.17865025" width="18.2634113" height="1.76687114"></rect>
                                <rect id="Rectangle" fill="#000000" x="55.8423032" y="0.441717785" width="15.8018076" height="1.52878525"></rect>
                            </g>
                        </g>
                    </g>
                </g>
            </g>
        </g>
    </g>
</svg>